VelekaWorld-Medium.ufo
<glyph name="exclam" format="2">
  <advance width="338"/>
  <unicode hex="0021"/>
  <outline>
    <contour>
      <point x="102" y="56.6667" type="curve" smooth="yes"/>
      <point x="102" y="98"/>
      <point x="133.333" y="123.667"/>
      <point x="169.667" y="123.667" type="curve" smooth="yes"/>
      <point x="205.333" y="123.667"/>
      <point x="237.667" y="96.3333"/>
      <point x="237.667" y="56.6667" type="curve" smooth="yes"/>
      <point x="237.667" y="18"/>
      <point x="207.333" y="-12"/>
      <point x="169.667" y="-12" type="curve" smooth="yes"/>
      <point x="135.333" y="-12"/>
      <point x="102" y="13.6667"/>
    </contour>
    <contour>
      <point x="101.667" y="616.667" type="line"/>
      <point x="101.667" y="662.246"/>
      <point x="126.459" y="686.333"/>
      <point x="169" y="686.333" type="curve" smooth="yes"/>
      <point x="212" y="686.333"/>
      <point x="236.667" y="662.333"/>
      <point x="236.667" y="616" type="curve"/>
      <point x="195.333" y="189.333" type="line"/>
      <point x="144.667" y="189.333" type="line"/>
    </contour>
  </outline>
</glyph>
<glyph name="quotesingle" format="2">
  <advance width="172"/>
  <unicode hex="0027"/>
  <outline>
    <contour>
      <point x="39" y="660.333" type="line"/>
      <point x="39" y="692"/>
      <point x="53" y="714"/>
      <point x="86" y="714" type="curve" smooth="yes"/>
      <point x="118.667" y="714"/>
      <point x="134" y="692"/>
      <point x="134" y="660.333" type="curve"/>
      <point x="98" y="419.667" type="line"/>
      <point x="75.3333" y="419.667" type="line"/>
    </contour>
  </outline>
</glyph>
<glyph name="slash" format="2">
  <advance width="493"/>
  <unicode hex="002F"/>
  <outline>
    <contour>
      <point x="0" y="-93" type="line"/>
      <point x="424.667" y="671" type="line"/>
      <point x="493.667" y="671" type="line"/>
      <point x="68.6667" y="-93" type="line"/>
    </contour>
  </outline>
</glyph>
<glyph name="three" format="2">
  <advance width="570"/>
  <unicode hex="0033"/>
  <outline>
    <contour>
      <point x="45.6667" y="106" type="curve" smooth="yes"/>
      <point x="45.6667" y="142"/>
      <point x="71.6667" y="165"/>
      <point x="109.667" y="165" type="curve" smooth="yes"/>
      <point x="121.333" y="165"/>
      <point x="138.333" y="162"/>
      <point x="146.667" y="157.333" type="curve"/>
      <point x="177.333" y="60.3333" type="line"/>
      <point x="201" y="46"/>
      <point x="227.667" y="37.3333"/>
      <point x="259.667" y="37.3333" type="curve" smooth="yes"/>
      <point x="344.175" y="37.3333"/>
      <point x="407.333" y="103.857"/>
      <point x="407.333" y="189.333" type="curve" smooth="yes"/>
      <point x="407.333" y="271.333"/>
      <point x="345" y="314"/>
      <point x="260.667" y="314" type="curve" smooth="yes"/>
      <point x="236" y="314"/>
      <point x="209.333" y="311"/>
      <point x="196.667" y="309.667" type="curve"/>
      <point x="196.667" y="376" type="line"/>
      <point x="202.667" y="375"/>
      <point x="214.333" y="375"/>
      <point x="222.667" y="375" type="curve" smooth="yes"/>
      <point x="315.095" y="375"/>
      <point x="382.333" y="416.447"/>
      <point x="382.333" y="500.667" type="curve" smooth="yes"/>
      <point x="382.333" y="575.333"/>
      <point x="328" y="628"/>
      <point x="252.333" y="628" type="curve" smooth="yes"/>
      <point x="223.333" y="628"/>
      <point x="195" y="618.333"/>
      <point x="175.333" y="605.333" type="curve"/>
      <point x="175.333" y="497.667" type="line"/>
      <point x="163.715" y="491.191"/>
      <point x="146.866" y="484.333"/>
      <point x="126.667" y="484.333" type="curve" smooth="yes"/>
      <point x="88" y="484.333"/>
      <point x="62" y="507"/>
      <point x="62" y="545.667" type="curve" smooth="yes"/>
      <point x="62" y="636.099"/>
      <point x="178.307" y="687"/>
      <point x="287.333" y="687" type="curve" smooth="yes"/>
      <point x="407.143" y="687"/>
      <point x="499.667" y="622.701"/>
      <point x="499.667" y="514.333" type="curve" smooth="yes"/>
      <point x="499.667" y="424.718"/>
      <point x="429.03" y="369.608"/>
      <point x="340.333" y="347.667" type="curve"/>
      <point x="340.333" y="351.667" type="line"/>
      <point x="447.819" y="351.667"/>
      <point x="525" y="284.137"/>
      <point x="525" y="190" type="curve" smooth="yes"/>
      <point x="525" y="60.1791"/>
      <point x="399.674" y="-17.3333"/>
      <point x="254.333" y="-17.3333" type="curve" smooth="yes"/>
      <point x="154.359" y="-17.3333"/>
      <point x="45.6667" y="25.149"/>
    </contour>
  </outline>
</glyph>
<glyph name="at" format="2">
  <advance width="936"/>
  <unicode hex="0040"/>
  <outline>
    <contour>
      <point x="68.6667" y="238.333" type="curve" smooth="yes"/>
      <point x="68.6667" y="517.667"/>
      <point x="263" y="690.333"/>
      <point x="522.667" y="690.333" type="curve" smooth="yes"/>
      <point x="731.667" y="690.333"/>
      <point x="868.667" y="576"/>
      <point x="868.667" y="372.667" type="curve" smooth="yes"/>
      <point x="868.667" y="200"/>
      <point x="764" y="54.6667"/>
      <point x="627.333" y="54.6667" type="curve" smooth="yes"/>
      <point x="568.333" y="54.6667"/>
      <point x="540.667" y="84.3333"/>
      <point x="538.667" y="133.333" type="curve"/>
      <point x="502" y="95.3333"/>
      <point x="454.667" y="55.6667"/>
      <point x="396.333" y="55.6667" type="curve" smooth="yes"/>
      <point x="308.667" y="55.6667"/>
      <point x="266.667" y="129.667"/>
      <point x="266.667" y="219.667" type="curve" smooth="yes"/>
      <point x="266.667" y="366.667"/>
      <point x="376" y="492"/>
      <point x="520.333" y="492" type="curve" smooth="yes"/>
      <point x="555.333" y="492"/>
      <point x="590.667" y="479"/>
      <point x="616" y="464" type="curve"/>
      <point x="632.333" y="487.667" type="line"/>
      <point x="697.667" y="487.667" type="line"/>
      <point x="686.333" y="454.333"/>
      <point x="678.985" y="422.932"/>
      <point x="669.333" y="378.333" type="curve" smooth="yes"/>
      <point x="629" y="190" type="line" smooth="yes"/>
      <point x="626.439" y="177.382"/>
      <point x="624.333" y="164.667"/>
      <point x="624.333" y="155.333" type="curve" smooth="yes"/>
      <point x="624.333" y="129.333"/>
      <point x="634.667" y="113.333"/>
      <point x="661.333" y="113.333" type="curve" smooth="yes"/>
      <point x="742" y="113.333"/>
      <point x="809" y="244"/>
      <point x="809" y="370.333" type="curve" smooth="yes"/>
      <point x="809" y="546.667"/>
      <point x="686" y="644"/>
      <point x="534.333" y="644" type="curve" smooth="yes"/>
      <point x="309" y="644"/>
      <point x="149.667" y="486.333"/>
      <point x="149.667" y="256.333" type="curve" smooth="yes"/>
      <point x="149.667" y="43.3333"/>
      <point x="282" y="-101"/>
      <point x="494.333" y="-101" type="curve" smooth="yes"/>
      <point x="602.667" y="-101"/>
      <point x="686.333" y="-66"/>
      <point x="761.333" y="-23.6667" type="curve"/>
      <point x="777.667" y="-65" type="line"/>
      <point x="691.667" y="-110.667"/>
      <point x="597.333" y="-153.667"/>
      <point x="471" y="-153.667" type="curve" smooth="yes"/>
      <point x="236" y="-153.667"/>
      <point x="68.6667" y="1.66667"/>
    </contour>
    <contour>
      <point x="368" y="229.333" type="curve" smooth="yes"/>
      <point x="368" y="162.333"/>
      <point x="392.333" y="122.667"/>
      <point x="441.333" y="122.667" type="curve" smooth="yes"/>
      <point x="487.667" y="122.667"/>
      <point x="518.667" y="159.333"/>
      <point x="538.667" y="186.333" type="curve"/>
      <point x="578.667" y="392.667" type="line" smooth="yes"/>
      <point x="579.521" y="396.695"/>
      <point x="579.667" y="400.667"/>
      <point x="579.667" y="404" type="curve" smooth="yes"/>
      <point x="579.667" y="431.667"/>
      <point x="558.333" y="447.667"/>
      <point x="525" y="447.667" type="curve" smooth="yes"/>
      <point x="425" y="447.667"/>
      <point x="368" y="344.667"/>
    </contour>
  </outline>
</glyph>
<glyph name="J" format="2">
  <advance width="493"/>
  <unicode hex="004A"/>
  <outline>
    <contour>
      <point x="24.6667" y="12" type="curve"/>
      <point x="24.6667" y="187" type="line"/>
      <point x="90.6667" y="187" type="line"/>
      <point x="113" y="61" type="line" smooth="yes"/>
      <point x="116.027" y="44.5778"/>
      <point x="134" y="37.3333"/>
      <point x="152.333" y="37.3333" type="curve" smooth="yes"/>
      <point x="249" y="37.3333"/>
      <point x="274.333" y="120.667"/>
      <point x="274.333" y="245" type="curve" smooth="yes"/>
      <point x="274.333" y="598.333" type="line" smooth="yes"/>
      <point x="274.333" y="610.667"/>
      <point x="264.677" y="619.491"/>
      <point x="253" y="620.333" type="curve" smooth="yes"/>
      <point x="190.333" y="624.667" type="line"/>
      <point x="190.333" y="670.333" type="line"/>
      <point x="469.333" y="670.333" type="line"/>
      <point x="469.333" y="624.667" type="line"/>
      <point x="410.333" y="620.333" type="line" smooth="yes"/>
      <point x="398.989" y="619.493"/>
      <point x="389" y="610"/>
      <point x="389" y="598.333" type="curve" smooth="yes"/>
      <point x="389" y="248.667" type="line" smooth="yes"/>
      <point x="389" y="88.6667"/>
      <point x="328.333" y="-16.6667"/>
      <point x="164.333" y="-16.6667" type="curve" smooth="yes"/>
      <point x="111.253" y="-16.6667"/>
      <point x="58.7109" y="-1.82847"/>
    </contour>
  </outline>
</glyph>
<glyph name="backslash" format="2">
  <advance width="490"/>
  <unicode hex="005C"/>
  <outline>
    <contour>
      <point x="0" y="671" type="line"/>
      <point x="68.6667" y="671" type="line"/>
      <point x="490.667" y="-93" type="line"/>
      <point x="422" y="-93" type="line"/>
    </contour>
  </outline>
</glyph>
<glyph name="grave" format="2">
  <advance width="358"/>
  <unicode hex="0060"/>
  <outline>
    <contour>
      <point x="-0.666667" y="686.333" type="curve" smooth="yes"/>
      <point x="-0.666667" y="713"/>
      <point x="16" y="734"/>
      <point x="49" y="734" type="curve" smooth="yes"/>
      <point x="78" y="734"/>
      <point x="89" y="724.333"/>
      <point x="106" y="705.333" type="curve" smooth="yes"/>
      <point x="240.333" y="551.667" type="line"/>
      <point x="179" y="551.667" type="line"/>
      <point x="23.6667" y="645.667" type="line" smooth="yes"/>
      <point x="9.66667" y="654.333"/>
      <point x="-0.666667" y="670"/>
    </contour>
  </outline>
</glyph>
<glyph name="w" format="2">
  <advance width="802"/>
  <unicode hex="0077"/>
  <outline>
    <contour>
      <point x="10" y="441.667" type="line"/>
      <point x="10" y="483.333" type="line"/>
      <point x="241.333" y="483.333" type="line"/>
      <point x="241.333" y="441.667" type="line"/>
      <point x="195.667" y="438.667" type="line"/>
      <point x="186.967" y="437.763"/>
      <point x="179.907" y="430.961"/>
      <point x="179.907" y="422.093" type="curve"/>
      <point x="179.907" y="420.431"/>
      <point x="180.377" y="419.063"/>
      <point x="180.667" y="417.333" type="curve"/>
      <point x="262" y="118.333" type="line"/>
      <point x="385.333" y="484" type="line"/>
      <point x="469.333" y="484" type="line"/>
      <point x="582.333" y="117.667" type="line"/>
      <point x="671.333" y="417.333" type="line"/>
      <point x="671.984" y="419.271"/>
      <point x="672.134" y="420.824"/>
      <point x="672.134" y="422.647" type="curve"/>
      <point x="672.134" y="431.438"/>
      <point x="665.941" y="438.439"/>
      <point x="657.333" y="439.333" type="curve"/>
      <point x="612" y="442.333" type="line"/>
      <point x="612" y="484" type="line"/>
      <point x="792.667" y="484" type="line"/>
      <point x="792.667" y="442.333" type="line"/>
      <point x="740" y="436" type="line"/>
      <point x="604" y="-0.666667" type="line"/>
      <point x="519.667" y="-0.666667" type="line"/>
      <point x="404.667" y="367" type="line"/>
      <point x="278.333" y="-0.666667" type="line"/>
      <point x="194.667" y="-0.666667" type="line"/>
      <point x="66.3333" y="435.667" type="line"/>
    </contour>
  </outline>
</glyph>
<glyph name="exclamdown" format="2">
  <advance width="338"/>
  <unicode hex="00A1"/>
  <outline>
    <contour>
      <point x="100.333" y="427.333" type="curve" smooth="yes"/>
      <point x="100.333" y="466"/>
      <point x="130.667" y="496"/>
      <point x="168.333" y="496" type="curve" smooth="yes"/>
      <point x="202.667" y="496"/>
      <point x="236" y="470.333"/>
      <point x="236" y="427.333" type="curve" smooth="yes"/>
      <point x="236" y="386"/>
      <point x="205" y="360.333"/>
      <point x="168.333" y="360.333" type="curve" smooth="yes"/>
      <point x="132" y="360.333"/>
      <point x="100.333" y="387"/>
    </contour>
    <contour>
      <point x="100.667" y="-135.333" type="curve"/>
      <point x="143.333" y="294" type="line"/>
      <point x="193.333" y="294" type="line"/>
      <point x="236.333" y="-136.667" type="line"/>
      <point x="236.333" y="-180.333"/>
      <point x="211.8" y="-203"/>
      <point x="168.333" y="-203" type="curve" smooth="yes"/>
      <point x="126.994" y="-203"/>
      <point x="100.667" y="-179.73"/>
    </contour>
  </outline>
</glyph>
<glyph name="sterling" format="2">
  <advance width="570"/>
  <unicode hex="00A3"/>
  <outline>
    <contour>
      <point x="42.6667" y="0.666667" type="line"/>
      <point x="42.6667" y="66.6667" type="line"/>
      <point x="110.416" y="81.1936"/>
      <point x="149.667" y="137.84"/>
      <point x="149.667" y="260.333" type="curve" smooth="yes"/>
      <point x="149.667" y="318.333" type="line"/>
      <point x="79.6667" y="318.333" type="line"/>
      <point x="79.6667" y="372.333" type="line"/>
      <point x="149.333" y="372.333" type="line"/>
      <point x="148.149" y="397.543"/>
      <point x="146" y="435.513"/>
      <point x="146" y="469" type="curve" smooth="yes"/>
      <point x="146" y="614.162"/>
      <point x="215.808" y="720.333"/>
      <point x="366.667" y="720.333" type="curve" smooth="yes"/>
      <point x="438.847" y="720.333"/>
      <point x="529.333" y="687.107"/>
      <point x="529.333" y="610.333" type="curve" smooth="yes"/>
      <point x="529.333" y="572.333"/>
      <point x="497.333" y="549"/>
      <point x="461" y="549" type="curve" smooth="yes"/>
      <point x="447.333" y="549"/>
      <point x="430.667" y="553.333"/>
      <point x="422.667" y="555.333" type="curve"/>
      <point x="422.667" y="662.667" type="line"/>
      <point x="414" y="665.333"/>
      <point x="400.333" y="669.333"/>
      <point x="382" y="669.333" type="curve" smooth="yes"/>
      <point x="270.925" y="669.333"/>
      <point x="251.333" y="563"/>
      <point x="251.333" y="471.667" type="curve" smooth="yes"/>
      <point x="251.333" y="432.355"/>
      <point x="254.077" y="396.254"/>
      <point x="255.667" y="373" type="curve"/>
      <point x="440" y="373" type="line"/>
      <point x="440" y="319" type="line"/>
      <point x="256.333" y="319" type="line"/>
      <point x="256.333" y="237.667"/>
      <point x="246.667" y="175.762"/>
      <point x="199.667" y="125.667" type="curve" smooth="yes"/>
      <point x="186.333" y="111"/>
      <point x="169.333" y="97.3333"/>
      <point x="149" y="84" type="curve"/>
      <point x="166.823" y="86.1519"/>
      <point x="206.033" y="90.6667"/>
      <point x="226.333" y="90.6667" type="curve" smooth="yes"/>
      <point x="526.667" y="90.6667" type="line"/>
      <point x="526.667" y="0.666667" type="line"/>
    </contour>
  </outline>
</glyph>
<glyph name="yen" format="2">
  <advance width="609"/>
  <unicode hex="00A5"/>
  <outline>
    <contour>
      <point x="8.33333" y="625.333" type="line"/>
      <point x="8.33333" y="670.333" type="line"/>
      <point x="249.333" y="670.333" type="line"/>
      <point x="249.333" y="625.333" type="line"/>
      <point x="205.333" y="619.333" type="line" smooth="yes"/>
      <point x="198.501" y="618.479"/>
      <point x="191.114" y="612.299"/>
      <point x="191.114" y="604.333" type="curve" smooth="yes"/>
      <point x="191.114" y="602.181"/>
      <point x="191.791" y="599.606"/>
      <point x="193" y="597.333" type="curve" smooth="yes"/>
      <point x="322.667" y="345.333" type="line"/>
      <point x="462" y="595" type="line"/>
      <point x="463.415" y="597.831"/>
      <point x="464.129" y="600.848"/>
      <point x="464.129" y="603.667" type="curve" smooth="yes"/>
      <point x="464.129" y="610.237"/>
      <point x="459.016" y="615.694"/>
      <point x="449.667" y="617.667" type="curve"/>
      <point x="401.333" y="626.333" type="line"/>
      <point x="401.333" y="671" type="line"/>
      <point x="600" y="671" type="line"/>
      <point x="600" y="626" type="line"/>
      <point x="543.667" y="613.667" type="line"/>
      <point x="438.667" y="427.667" type="line"/>
      <point x="576" y="427.667" type="line"/>
      <point x="576" y="381" type="line"/>
      <point x="411.667" y="381" type="line"/>
      <point x="355.667" y="281.667" type="line"/>
      <point x="576" y="281.667" type="line"/>
      <point x="576" y="235.333" type="line"/>
      <point x="357.333" y="235.333" type="line"/>
      <point x="357.333" y="71.6667" type="line" smooth="yes"/>
      <point x="357.333" y="62"/>
      <point x="369.333" y="51"/>
      <point x="383.333" y="49.6667" type="curve" smooth="yes"/>
      <point x="441.667" y="44.6667" type="line"/>
      <point x="441.667" y="-0.666667" type="line"/>
      <point x="164.333" y="-0.666667" type="line"/>
      <point x="164.333" y="44.6667" type="line"/>
      <point x="223.667" y="49.6667" type="line" smooth="yes"/>
      <point x="239" y="51"/>
      <point x="248.667" y="61.3333"/>
      <point x="248.667" y="71.6667" type="curve" smooth="yes"/>
      <point x="248.667" y="235.333" type="line"/>
      <point x="33.3333" y="235.333" type="line"/>
      <point x="33.3333" y="281.667" type="line"/>
      <point x="243.333" y="281.667" type="line"/>
      <point x="191.333" y="381" type="line"/>
      <point x="33.3333" y="381" type="line"/>
      <point x="33.3333" y="427.667" type="line"/>
      <point x="164.667" y="427.667" type="line"/>
      <point x="68" y="614" type="line"/>
    </contour>
  </outline>
</glyph>
<glyph name="guillemotleft" format="2">
  <advance width="444"/>
  <unicode hex="00AB"/>
  <outline>
    <contour>
      <point x="26" y="215" type="line"/>
      <point x="26" y="266" type="line"/>
      <point x="187.333" y="482" type="line"/>
      <point x="244.333" y="482" type="line"/>
      <point x="119.333" y="241" type="line"/>
      <point x="244.333" y="0" type="line"/>
      <point x="187.333" y="0" type="line"/>
    </contour>
    <contour>
      <point x="211.333" y="215" type="line"/>
      <point x="211.333" y="266" type="line"/>
      <point x="373" y="482" type="line"/>
      <point x="429.333" y="482" type="line"/>
      <point x="305.333" y="241" type="line"/>
      <point x="429.333" y="0" type="line"/>
      <point x="373" y="0" type="line"/>
    </contour>
  </outline>
</glyph>
<glyph name="uni00AD" format="2">
  <advance width="322"/>
  <unicode hex="00AD"/>
  <outline>
    <contour>
      <point x="40.3333" y="198" type="line"/>
      <point x="40.3333" y="283.333" type="line"/>
      <point x="282.333" y="283.333" type="line"/>
      <point x="282.333" y="198" type="line"/>
    </contour>
  </outline>
</glyph>
<glyph name="registered" format="2">
  <advance width="836"/>
  <unicode hex="00AE"/>
  <outline>
    <contour>
      <point x="32.6667" y="350.667" type="curve" smooth="yes"/>
      <point x="32.6667" y="570.483"/>
      <point x="198.604" y="738.333"/>
      <point x="418.333" y="738.333" type="curve" smooth="yes"/>
      <point x="636.381" y="738.333"/>
      <point x="803.333" y="570.195"/>
      <point x="803.333" y="350.667" type="curve" smooth="yes"/>
      <point x="803.333" y="130.911"/>
      <point x="636.05" y="-35.6667"/>
      <point x="416.333" y="-35.6667" type="curve" smooth="yes"/>
      <point x="198.981" y="-35.6667"/>
      <point x="32.6667" y="132.299"/>
    </contour>
    <contour>
      <point x="78" y="349.333" type="curve" smooth="yes"/>
      <point x="78" y="156.831"/>
      <point x="225.053" y="8"/>
      <point x="418" y="8" type="curve" smooth="yes"/>
      <point x="611.62" y="8"/>
      <point x="758.667" y="157.117"/>
      <point x="758.667" y="350.667" type="curve" smooth="yes"/>
      <point x="758.667" y="545.413"/>
      <point x="611.964" y="695.333"/>
      <point x="418.333" y="695.333" type="curve" smooth="yes"/>
      <point x="222.738" y="695.333"/>
      <point x="78" y="547.813"/>
    </contour>
    <contour>
      <point x="213" y="142" type="line"/>
      <point x="213" y="171.667" type="line"/>
      <point x="250" y="174.667" type="line" smooth="yes"/>
      <point x="257.686" y="175.423"/>
      <point x="265" y="180.667"/>
      <point x="265" y="189" type="curve" smooth="yes"/>
      <point x="265" y="533" type="line" smooth="yes"/>
      <point x="265" y="541"/>
      <point x="257.686" y="546.244"/>
      <point x="250" y="547" type="curve" smooth="yes"/>
      <point x="213" y="550.333" type="line"/>
      <point x="213" y="580" type="line"/>
      <point x="411" y="580" type="line" smooth="yes"/>
      <point x="490.634" y="580"/>
      <point x="575" y="560.787"/>
      <point x="575" y="467" type="curve" smooth="yes"/>
      <point x="575" y="390.333"/>
      <point x="509.333" y="366.667"/>
      <point x="458.333" y="356.333" type="curve"/>
      <point x="521.052" y="342.154"/>
      <point x="543.131" y="308.282"/>
      <point x="555.437" y="256.667" type="curve" smooth="yes"/>
      <point x="568.479" y="201.088"/>
      <point x="587.039" y="171.667"/>
      <point x="661.667" y="171.667" type="curve"/>
      <point x="661.667" y="142.667" type="line"/>
      <point x="640.333" y="139.333"/>
      <point x="620.333" y="138"/>
      <point x="602.333" y="138" type="curve" smooth="yes"/>
      <point x="520.287" y="138"/>
      <point x="499.834" y="181.114"/>
      <point x="481.47" y="236.667" type="curve" smooth="yes"/>
      <point x="463.231" y="292.666"/>
      <point x="445.651" y="336"/>
      <point x="370.667" y="336" type="curve" smooth="yes"/>
      <point x="344.333" y="336" type="line"/>
      <point x="344.333" y="189" type="line" smooth="yes"/>
      <point x="344.333" y="181.333"/>
      <point x="351.977" y="175.37"/>
      <point x="359.333" y="174.667" type="curve" smooth="yes"/>
      <point x="397" y="171.667" type="line"/>
      <point x="397" y="142" type="line"/>
    </contour>
    <contour>
      <point x="344.333" y="366" type="line"/>
      <point x="354.183" y="365.667"/>
      <point x="372.761" y="365.667"/>
      <point x="376.333" y="365.667" type="curve" smooth="yes"/>
      <point x="439" y="365.667"/>
      <point x="490.333" y="383.333"/>
      <point x="490.333" y="456.667" type="curve" smooth="yes"/>
      <point x="490.333" y="520.333"/>
      <point x="442.667" y="542.667"/>
      <point x="374" y="542.667" type="curve" smooth="yes"/>
      <point x="344.333" y="542.667" type="line"/>
    </contour>
  </outline>
</glyph>
<glyph name="acute" format="2">
  <advance width="358"/>
  <unicode hex="00B4"/>
  <outline>
    <contour>
      <point x="119" y="551" type="line"/>
      <point x="252.667" y="704.667" type="line" smooth="yes"/>
      <point x="269" y="723.667"/>
      <point x="280.667" y="733.333"/>
      <point x="309" y="733.333" type="curve" smooth="yes"/>
      <point x="343.105" y="733.333"/>
      <point x="359.667" y="712.725"/>
      <point x="359.667" y="685.667" type="curve" smooth="yes"/>
      <point x="359.667" y="668.667"/>
      <point x="347.667" y="652.333"/>
      <point x="335.667" y="645" type="curve" smooth="yes"/>
      <point x="179.667" y="551" type="line"/>
    </contour>
  </outline>
</glyph>
<glyph name="paragraph" format="2">
  <advance width="497"/>
  <unicode hex="00B6"/>
  <outline>
    <contour>
      <point x="27" y="473" type="curve" smooth="yes"/>
      <point x="27" y="621.667"/>
      <point x="116.333" y="671"/>
      <point x="265" y="671" type="curve" smooth="yes"/>
      <point x="470.333" y="671" type="line"/>
      <point x="470.333" y="628" type="line"/>
      <point x="408.333" y="618.333" type="line"/>
      <point x="408.333" y="-79" type="line"/>
      <point x="351.333" y="-79" type="line"/>
      <point x="351.333" y="622.667" type="line"/>
      <point x="280" y="622.667" type="line"/>
      <point x="280" y="277" type="line"/>
      <point x="128" y="277"/>
      <point x="27" y="319.667"/>
    </contour>
  </outline>
</glyph>
<glyph name="uni00B9" format="2">
  <advance width="378"/>
  <unicode hex="00B9"/>
  <outline>
    <contour>
      <point x="49" y="752.667" type="line"/>
      <point x="49" y="781.333" type="line"/>
      <point x="193" y="827" type="line"/>
      <point x="227.333" y="827" type="line"/>
      <point x="227.333" y="450" type="line" smooth="yes"/>
      <point x="227.333" y="442.667"/>
      <point x="235" y="436.667"/>
      <point x="242.333" y="436.333" type="curve" smooth="yes"/>
      <point x="300.333" y="432.667" type="line"/>
      <point x="300.333" y="401.667" type="line"/>
      <point x="71" y="401.667" type="line"/>
      <point x="71" y="432.667" type="line"/>
      <point x="135" y="436.333" type="line" smooth="yes"/>
      <point x="143" y="436.667"/>
      <point x="149.333" y="442"/>
      <point x="149.333" y="450" type="curve" smooth="yes"/>
      <point x="149.333" y="767.667" type="line"/>
    </contour>
  </outline>
</glyph>
<glyph name="ordmasculine" format="2">
  <advance width="364"/>
  <unicode hex="00BA"/>
  <outline>
    <contour>
      <point x="21.6667" y="526.667" type="curve" smooth="yes"/>
      <point x="21.6667" y="621.555"/>
      <point x="88.1407" y="680.333"/>
      <point x="184.333" y="680.333" type="curve" smooth="yes"/>
      <point x="282.108" y="680.333"/>
      <point x="341" y="619.139"/>
      <point x="341" y="527.667" type="curve" smooth="yes"/>
      <point x="341" y="437.443"/>
      <point x="277.804" y="376"/>
      <point x="180.667" y="376" type="curve" smooth="yes"/>
      <point x="85.0855" y="376"/>
      <point x="21.6667" y="432.95"/>
    </contour>
    <contour>
      <point x="31" y="301.667" type="line"/>
      <point x="31" y="333.333" type="line"/>
      <point x="334" y="333.333" type="line"/>
      <point x="334" y="301.667" type="line"/>
    </contour>
    <contour>
      <point x="100.667" y="527.333" type="curve" smooth="yes"/>
      <point x="100.667" y="468.114"/>
      <point x="120.993" y="405"/>
      <point x="183" y="405" type="curve" smooth="yes"/>
      <point x="244.189" y="405"/>
      <point x="265" y="467.339"/>
      <point x="265" y="526.667" type="curve" smooth="yes"/>
      <point x="265" y="586.097"/>
      <point x="243.981" y="650.333"/>
      <point x="182.667" y="650.333" type="curve" smooth="yes"/>
      <point x="121" y="650.333"/>
      <point x="100.667" y="587.333"/>
    </contour>
  </outline>
</glyph>
<glyph name="onequarter" format="2">
  <advance width="886"/>
  <unicode hex="00BC"/>
  <outline>
    <contour>
      <point x="46.3333" y="633.667" type="line"/>
      <point x="46.3333" y="662" type="line"/>
      <point x="187.333" y="703.667" type="line"/>
      <point x="219.333" y="703.667" type="line"/>
      <point x="219.333" y="339.667" type="line" smooth="yes"/>
      <point x="219.333" y="332.333"/>
      <point x="226.667" y="328"/>
      <point x="234" y="327.333" type="curve" smooth="yes"/>
      <point x="291.667" y="323.333" type="line"/>
      <point x="291.667" y="295" type="line"/>
      <point x="69.3333" y="295" type="line"/>
      <point x="69.3333" y="323.333" type="line"/>
      <point x="132" y="327.333" type="line"/>
      <point x="139.333" y="328"/>
      <point x="146" y="332.333"/>
      <point x="146" y="339.667" type="curve" smooth="yes"/>
      <point x="146" y="648.333" type="line"/>
    </contour>
    <contour>
      <point x="190" y="0" type="line"/>
      <point x="633.333" y="697" type="line"/>
      <point x="699.667" y="697" type="line"/>
      <point x="257" y="0" type="line"/>
    </contour>
    <contour>
      <point x="495" y="111.667" type="line"/>
      <point x="495" y="156.667" type="line"/>
      <point x="713" y="406" type="line"/>
      <point x="765.667" y="406" type="line"/>
      <point x="765.667" y="155.333" type="line"/>
      <point x="839.333" y="155.333" type="line"/>
      <point x="839.333" y="111.667" type="line"/>
      <point x="765.667" y="111.667" type="line"/>
      <point x="765.667" y="-20" type="line"/>
      <point x="700.667" y="-20" type="line"/>
      <point x="700.667" y="111.667" type="line"/>
    </contour>
    <contour>
      <point x="550.667" y="155.333" type="line"/>
      <point x="700.667" y="155.333" type="line"/>
      <point x="700.667" y="330.333" type="line"/>
    </contour>
  </outline>
</glyph>
<glyph name="onehalf" format="2">
  <advance width="886"/>
  <unicode hex="00BD"/>
  <outline>
    <contour>
      <point x="46" y="633.667" type="line"/>
      <point x="46" y="662" type="line"/>
      <point x="187" y="703.667" type="line"/>
      <point x="218.667" y="703.667" type="line"/>
      <point x="218.667" y="339.667" type="line" smooth="yes"/>
      <point x="218.667" y="332.333"/>
      <point x="226.31" y="327.641"/>
      <point x="233.667" y="327.333" type="curve"/>
      <point x="291.333" y="323.333" type="line"/>
      <point x="291.333" y="295" type="line"/>
      <point x="69" y="295" type="line"/>
      <point x="69" y="323.333" type="line"/>
      <point x="131.667" y="327.333" type="line" smooth="yes"/>
      <point x="139.023" y="327.617"/>
      <point x="145.667" y="332.333"/>
      <point x="145.667" y="339.667" type="curve" smooth="yes"/>
      <point x="145.667" y="648.333" type="line"/>
    </contour>
    <contour>
      <point x="178" y="0" type="line"/>
      <point x="621.333" y="697" type="line"/>
      <point x="687.667" y="697" type="line"/>
      <point x="244.333" y="0" type="line"/>
    </contour>
    <contour>
      <point x="533.333" y="2" type="line"/>
      <point x="533.333" y="45.3333" type="line"/>
      <point x="601.171" y="85.98"/>
      <point x="749.333" y="176.389"/>
      <point x="749.333" y="290.667" type="curve" smooth="yes"/>
      <point x="749.333" y="342.333"/>
      <point x="719.333" y="376"/>
      <point x="667" y="376" type="curve" smooth="yes"/>
      <point x="645.833" y="376"/>
      <point x="633.505" y="370.753"/>
      <point x="619" y="364.667" type="curve"/>
      <point x="619" y="293.667" type="line"/>
      <point x="615" y="289.667"/>
      <point x="598.667" y="283.333"/>
      <point x="583" y="283.333" type="curve" smooth="yes"/>
      <point x="558.333" y="283.333"/>
      <point x="540.667" y="297.333"/>
      <point x="540.667" y="321.333" type="curve" smooth="yes"/>
      <point x="540.667" y="388.461"/>
      <point x="625.512" y="410"/>
      <point x="686.667" y="410" type="curve" smooth="yes"/>
      <point x="767.139" y="410"/>
      <point x="828.333" y="370.881"/>
      <point x="828.333" y="297.333" type="curve" smooth="yes"/>
      <point x="828.333" y="191.496"/>
      <point x="699.724" y="111.524"/>
      <point x="607.667" y="57.3333" type="curve"/>
      <point x="795.333" y="57.3333" type="line"/>
      <point x="806.333" y="110" type="line"/>
      <point x="842.667" y="110" type="line"/>
      <point x="842.667" y="2" type="line"/>
    </contour>
  </outline>
</glyph>
<glyph name="Ntilde" format="2">
  <advance width="729"/>
  <unicode hex="00D1"/>
  <outline>
    <contour>
      <point x="26" y="625.333" type="line"/>
      <point x="26" y="671" type="line"/>
      <point x="240.333" y="671" type="line"/>
      <point x="240.333" y="645.333" type="line"/>
      <point x="558.333" y="159.667" type="line"/>
      <point x="558.333" y="599" type="line" smooth="yes"/>
      <point x="558.333" y="610.667"/>
      <point x="548" y="620"/>
      <point x="536.667" y="621" type="curve" smooth="yes"/>
      <point x="479.667" y="625.333" type="line"/>
      <point x="479.667" y="671" type="line"/>
      <point x="699.667" y="671" type="line"/>
      <point x="699.667" y="625.333" type="line"/>
      <point x="644.333" y="621" type="line" smooth="yes"/>
      <point x="632.667" y="620"/>
      <point x="623" y="611.333"/>
      <point x="623" y="599" type="curve" smooth="yes"/>
      <point x="623" y="0" type="line"/>
      <point x="530.333" y="0" type="line"/>
      <point x="170" y="549.667" type="line"/>
      <point x="170" y="72" type="line" smooth="yes"/>
      <point x="170" y="59.6667"/>
      <point x="179.667" y="51"/>
      <point x="191.333" y="50" type="curve" smooth="yes"/>
      <point x="248" y="45.6667" type="line"/>
      <point x="248" y="0" type="line"/>
      <point x="27" y="0" type="line"/>
      <point x="27" y="45.6667" type="line"/>
      <point x="83.3333" y="50" type="line" smooth="yes"/>
      <point x="95.3333" y="51"/>
      <point x="105.333" y="59.6667"/>
      <point x="105.333" y="72" type="curve" smooth="yes"/>
      <point x="105.333" y="599" type="line" smooth="yes"/>
      <point x="105.333" y="611.333"/>
      <point x="95.3333" y="620"/>
      <point x="83.3333" y="621" type="curve" smooth="yes"/>
    </contour>
    <contour>
      <point x="189" y="746.333" type="line"/>
      <point x="204.667" y="806"/>
      <point x="236.667" y="861"/>
      <point x="305.667" y="861" type="curve" smooth="yes"/>
      <point x="332.333" y="861"/>
      <point x="350.333" y="850"/>
      <point x="368.667" y="838.667" type="curve" smooth="yes"/>
      <point x="389" y="825.667"/>
      <point x="410" y="813.333"/>
      <point x="442" y="813.333" type="curve" smooth="yes"/>
      <point x="467.667" y="813.333"/>
      <point x="489" y="835"/>
      <point x="492" y="861" type="curve"/>
      <point x="536.667" y="861" type="line"/>
      <point x="521" y="801.333"/>
      <point x="489" y="746.333"/>
      <point x="419.667" y="746.333" type="curve" smooth="yes"/>
      <point x="393.333" y="746.333"/>
      <point x="374.333" y="757.333"/>
      <point x="355.667" y="769.333" type="curve" smooth="yes"/>
      <point x="335.667" y="781.667"/>
      <point x="313.667" y="794.333"/>
      <point x="283" y="794.333" type="curve" smooth="yes"/>
      <point x="257" y="794.333"/>
      <point x="236.667" y="772"/>
      <point x="233.667" y="746.333" type="curve"/>
    </contour>
  </outline>
</glyph>
<glyph name="Ograve" format="2">
  <advance width="738"/>
  <unicode hex="00D2"/>
  <outline>
    <contour>
      <point x="158.333" y="881" type="curve" smooth="yes"/>
      <point x="158.333" y="907.667"/>
      <point x="175" y="928.667"/>
      <point x="208" y="928.667" type="curve" smooth="yes"/>
      <point x="237" y="928.667"/>
      <point x="248" y="919"/>
      <point x="265" y="900" type="curve" smooth="yes"/>
      <point x="399.333" y="746.333" type="line"/>
      <point x="338" y="746.333" type="line"/>
      <point x="182.667" y="840.333" type="line"/>
      <point x="169.333" y="849"/>
      <point x="158.333" y="862.667"/>
    </contour>
    <contour>
      <point x="38.3333" y="338" type="curve" smooth="yes"/>
      <point x="38.3333" y="529.667"/>
      <point x="171.333" y="686.333"/>
      <point x="369" y="686.333" type="curve" smooth="yes"/>
      <point x="565" y="686.333"/>
      <point x="702" y="526"/>
      <point x="702" y="335.333" type="curve" smooth="yes"/>
      <point x="702" y="145"/>
      <point x="565.667" y="-15.3333"/>
      <point x="372" y="-15.3333" type="curve" smooth="yes"/>
      <point x="178.667" y="-15.3333"/>
      <point x="38.3333" y="135.667"/>
    </contour>
    <contour>
      <point x="169" y="337" type="curve" smooth="yes"/>
      <point x="169" y="203"/>
      <point x="226.333" y="41.6667"/>
      <point x="367.333" y="41.6667" type="curve" smooth="yes"/>
      <point x="512" y="41.6667"/>
      <point x="570.333" y="204.333"/>
      <point x="570.333" y="334" type="curve" smooth="yes"/>
      <point x="570.333" y="473"/>
      <point x="512" y="625.333"/>
      <point x="373.333" y="625.333" type="curve" smooth="yes"/>
      <point x="227" y="625.333"/>
      <point x="169" y="468.333"/>
    </contour>
  </outline>
</glyph>
<glyph name="Otilde" format="2">
  <advance width="738"/>
  <unicode hex="00D5"/>
  <outline>
    <contour>
      <point x="38.3333" y="338" type="curve" smooth="yes"/>
      <point x="38.3333" y="529.667"/>
      <point x="171.333" y="686.333"/>
      <point x="369" y="686.333" type="curve" smooth="yes"/>
      <point x="565" y="686.333"/>
      <point x="702" y="526"/>
      <point x="702" y="335.333" type="curve" smooth="yes"/>
      <point x="702" y="145"/>
      <point x="565.667" y="-15.3333"/>
      <point x="372" y="-15.3333" type="curve" smooth="yes"/>
      <point x="178.667" y="-15.3333"/>
      <point x="38.3333" y="135.667"/>
    </contour>
    <contour>
      <point x="169" y="337" type="curve" smooth="yes"/>
      <point x="169" y="203"/>
      <point x="226.333" y="41.6667"/>
      <point x="367.333" y="41.6667" type="curve" smooth="yes"/>
      <point x="512" y="41.6667"/>
      <point x="570.333" y="204.333"/>
      <point x="570.333" y="334" type="curve" smooth="yes"/>
      <point x="570.333" y="473"/>
      <point x="512" y="625.333"/>
      <point x="373.333" y="625.333" type="curve" smooth="yes"/>
      <point x="227" y="625.333"/>
      <point x="169" y="468.333"/>
    </contour>
    <contour>
      <point x="178.667" y="746.333" type="line"/>
      <point x="194.333" y="806"/>
      <point x="226.333" y="861"/>
      <point x="295.333" y="861" type="curve" smooth="yes"/>
      <point x="322" y="861"/>
      <point x="339.667" y="850.333"/>
      <point x="358" y="838.667" type="curve" smooth="yes"/>
      <point x="378.333" y="825.667"/>
      <point x="399.333" y="813.333"/>
      <point x="431.333" y="813.333" type="curve" smooth="yes"/>
      <point x="457" y="813.333"/>
      <point x="478.333" y="835"/>
      <point x="481.333" y="861" type="curve"/>
      <point x="526" y="861" type="line"/>
      <point x="510.333" y="801.333"/>
      <point x="478.667" y="746.333"/>
      <point x="409.333" y="746.333" type="curve" smooth="yes"/>
      <point x="383" y="746.333"/>
      <point x="364" y="757.333"/>
      <point x="345.333" y="769.333" type="curve" smooth="yes"/>
      <point x="325.333" y="781.667"/>
      <point x="303.333" y="794.333"/>
      <point x="272.667" y="794.333" type="curve" smooth="yes"/>
      <point x="246.667" y="794.333"/>
      <point x="226.333" y="772"/>
      <point x="223.333" y="746.333" type="curve"/>
    </contour>
  </outline>
</glyph>
<glyph name="Thorn" format="2">
  <advance width="590"/>
  <unicode hex="00DE"/>
  <outline>
    <contour>
      <point x="30" y="0" type="line"/>
      <point x="30" y="45.6667" type="line"/>
      <point x="82.6667" y="49.3333" type="line" smooth="yes"/>
      <point x="94" y="50.3333"/>
      <point x="104.667" y="58.6667"/>
      <point x="104.667" y="71.3333" type="curve" smooth="yes"/>
      <point x="104.667" y="598.333" type="line" smooth="yes"/>
      <point x="104.667" y="610.667"/>
      <point x="94" y="619"/>
      <point x="82.6667" y="619.667" type="curve" smooth="yes"/>
      <point x="30" y="623.333" type="line"/>
      <point x="30" y="669" type="line"/>
      <point x="301" y="669" type="line"/>
      <point x="301" y="623.333" type="line"/>
      <point x="242.333" y="619.667" type="line" smooth="yes"/>
      <point x="231" y="619"/>
      <point x="220.333" y="610.667"/>
      <point x="220.333" y="598.333" type="curve" smooth="yes"/>
      <point x="220.333" y="545.333" type="line"/>
      <point x="299.333" y="544.667" type="line" smooth="yes"/>
      <point x="444.333" y="542.667"/>
      <point x="551.667" y="500"/>
      <point x="551.667" y="345.667" type="curve" smooth="yes"/>
      <point x="551.667" y="202.333"/>
      <point x="444.667" y="128.667"/>
      <point x="289.333" y="128.667" type="curve" smooth="yes"/>
      <point x="267" y="128.667"/>
      <point x="234.333" y="131"/>
      <point x="220.333" y="133" type="curve"/>
      <point x="220.333" y="71.3333" type="line" smooth="yes"/>
      <point x="220.333" y="58.6667"/>
      <point x="231" y="50.3333"/>
      <point x="242.333" y="49.3333" type="curve" smooth="yes"/>
      <point x="301" y="45.6667" type="line"/>
      <point x="301" y="0" type="line"/>
    </contour>
    <contour>
      <point x="220.333" y="187.333" type="line"/>
      <point x="233" y="185.333"/>
      <point x="251" y="184.333"/>
      <point x="268.667" y="184.333" type="curve" smooth="yes"/>
      <point x="374.667" y="184.333"/>
      <point x="426" y="235.667"/>
      <point x="426" y="345.667" type="curve" smooth="yes"/>
      <point x="426" y="453"/>
      <point x="361.667" y="496.333"/>
      <point x="269" y="496.333" type="curve" smooth="yes"/>
      <point x="256.667" y="496.333"/>
      <point x="232.667" y="494.333"/>
      <point x="220.333" y="492.333" type="curve"/>
    </contour>
  </outline>
</glyph>
<glyph name="eacute" format="2">
  <advance width="503"/>
  <unicode hex="00E9"/>
  <outline>
    <contour>
      <point x="33.3333" y="236" type="curve" smooth="yes"/>
      <point x="33.3333" y="387"/>
      <point x="124" y="496.667"/>
      <point x="274" y="496.667" type="curve" smooth="yes"/>
      <point x="409" y="496.667"/>
      <point x="470" y="404.667"/>
      <point x="470" y="283.333" type="curve" smooth="yes"/>
      <point x="470" y="256.667" type="line"/>
      <point x="144" y="256.667" type="line"/>
      <point x="144" y="139"/>
      <point x="194" y="55.6667"/>
      <point x="306" y="55.6667" type="curve" smooth="yes"/>
      <point x="381" y="55.6667"/>
      <point x="436.667" y="94.3333"/>
      <point x="469.333" y="115.667" type="curve"/>
      <point x="469.333" y="48.3333" type="line"/>
      <point x="435.333" y="27.6667"/>
      <point x="367.333" y="-12.6667"/>
      <point x="272.333" y="-12.6667" type="curve" smooth="yes"/>
      <point x="118.333" y="-12.6667"/>
      <point x="33.3333" y="91.6667"/>
    </contour>
    <contour>
      <point x="148.333" y="304.667" type="curve"/>
      <point x="355" y="304.667" type="line"/>
      <point x="355" y="326.667" type="line" smooth="yes"/>
      <point x="355" y="393.333"/>
      <point x="327.333" y="443.667"/>
      <point x="263" y="443.667" type="curve" smooth="yes"/>
      <point x="185.667" y="443.667"/>
      <point x="151.667" y="376.333"/>
    </contour>
    <contour>
      <point x="190.333" y="556.667" type="line"/>
      <point x="324" y="710.333" type="line" smooth="yes"/>
      <point x="339.667" y="728.667"/>
      <point x="352.667" y="739"/>
      <point x="380.333" y="739" type="curve" smooth="yes"/>
      <point x="414.439" y="739"/>
      <point x="431" y="718.392"/>
      <point x="431" y="691.333" type="curve" smooth="yes"/>
      <point x="431" y="674.333"/>
      <point x="419.008" y="657.987"/>
      <point x="407" y="650.667" type="curve" smooth="yes"/>
      <point x="251" y="556.667" type="line"/>
    </contour>
  </outline>
</glyph>
<glyph name="igrave" format="2">
  <advance width="313"/>
  <unicode hex="00EC"/>
  <outline>
    <contour>
      <point x="1.66667" y="691.333" type="curve" smooth="yes"/>
      <point x="1.66667" y="718"/>
      <point x="18.3333" y="739"/>
      <point x="51.3333" y="739" type="curve" smooth="yes"/>
      <point x="80.3333" y="739"/>
      <point x="91.3333" y="729.333"/>
      <point x="108.333" y="710.333" type="curve" smooth="yes"/>
      <point x="242.667" y="556.667" type="line"/>
      <point x="181.333" y="556.667" type="line"/>
      <point x="26" y="650.667" type="line"/>
      <point x="12.6667" y="659.333"/>
      <point x="1.66667" y="673"/>
    </contour>
    <contour>
      <point x="33.3333" y="0" type="line"/>
      <point x="33.3333" y="41.6667" type="line"/>
      <point x="81.3333" y="44.6667" type="line" smooth="yes"/>
      <point x="92.6667" y="45.6667"/>
      <point x="102.667" y="54.3333"/>
      <point x="102.667" y="66.3333" type="curve" smooth="yes"/>
      <point x="102.667" y="410.333" type="line"/>
      <point x="35.3333" y="410.333" type="line"/>
      <point x="35.3333" y="446" type="line"/>
      <point x="165.333" y="488" type="line"/>
      <point x="209" y="488" type="line"/>
      <point x="209" y="66.3333" type="line" smooth="yes"/>
      <point x="209" y="54.3333"/>
      <point x="219.333" y="45.6667"/>
      <point x="230.667" y="44.6667" type="curve"/>
      <point x="280.667" y="41.6667" type="line"/>
      <point x="280.667" y="0" type="line"/>
    </contour>
  </outline>
</glyph>
<glyph name="ntilde" format="2">
  <advance width="586"/>
  <unicode hex="00F1"/>
  <outline>
    <contour>
      <point x="21" y="406" type="line"/>
      <point x="21" y="441.667" type="line"/>
      <point x="152.333" y="484" type="line"/>
      <point x="197" y="484" type="line"/>
      <point x="197" y="434.333" type="line"/>
      <point x="260.895" y="476.355"/>
      <point x="314.553" y="496"/>
      <point x="365.333" y="496" type="curve" smooth="yes"/>
      <point x="452.974" y="496"/>
      <point x="500" y="439.811"/>
      <point x="500" y="335.333" type="curve" smooth="yes"/>
      <point x="500" y="66.3333" type="line" smooth="yes"/>
      <point x="500" y="54.3333"/>
      <point x="510.333" y="45.6667"/>
      <point x="521.667" y="44.6667" type="curve" smooth="yes"/>
      <point x="561.333" y="41.6667" type="line"/>
      <point x="561.333" y="0" type="line"/>
      <point x="332" y="0" type="line"/>
      <point x="332" y="41.6667" type="line"/>
      <point x="372.333" y="44.6667" type="line" smooth="yes"/>
      <point x="383.667" y="45.6667"/>
      <point x="393.667" y="54.3333"/>
      <point x="393.667" y="66.3333" type="curve" smooth="yes"/>
      <point x="393.667" y="318.667" type="line" smooth="yes"/>
      <point x="393.667" y="383.566"/>
      <point x="363.11" y="416.667"/>
      <point x="302.333" y="416.667" type="curve" smooth="yes"/>
      <point x="259.437" y="416.667"/>
      <point x="221.011" y="405.806"/>
      <point x="197" y="393" type="curve"/>
      <point x="197" y="66.3333" type="line" smooth="yes"/>
      <point x="197" y="54.3333"/>
      <point x="207.333" y="45.6667"/>
      <point x="218.667" y="44.6667" type="curve" smooth="yes"/>
      <point x="256.667" y="41.6667" type="line"/>
      <point x="256.667" y="0" type="line"/>
      <point x="24.6667" y="0" type="line"/>
      <point x="24.6667" y="41.6667" type="line"/>
      <point x="69.3333" y="44.6667" type="line" smooth="yes"/>
      <point x="80.6667" y="45.6667"/>
      <point x="90.6667" y="54.3333"/>
      <point x="90.6667" y="66.3333" type="curve" smooth="yes"/>
      <point x="90.6667" y="406" type="line"/>
    </contour>
    <contour>
      <point x="117.333" y="556.667" type="line"/>
      <point x="133" y="616.333"/>
      <point x="165" y="671.333"/>
      <point x="234" y="671.333" type="curve" smooth="yes"/>
      <point x="260.667" y="671.333"/>
      <point x="278.667" y="660.333"/>
      <point x="297" y="649" type="curve" smooth="yes"/>
      <point x="317.333" y="636"/>
      <point x="338.333" y="623.667"/>
      <point x="370.333" y="623.667" type="curve" smooth="yes"/>
      <point x="396" y="623.667"/>
      <point x="417.333" y="645.333"/>
      <point x="420.333" y="671.333" type="curve"/>
      <point x="465" y="671.333" type="line"/>
      <point x="449.333" y="611.667"/>
      <point x="417.333" y="556.667"/>
      <point x="348" y="556.667" type="curve" smooth="yes"/>
      <point x="321.667" y="556.667"/>
      <point x="302.667" y="567.667"/>
      <point x="284" y="579.667" type="curve" smooth="yes"/>
      <point x="264" y="592"/>
      <point x="242" y="604.667"/>
      <point x="211.333" y="604.667" type="curve" smooth="yes"/>
      <point x="185.333" y="604.667"/>
      <point x="165" y="582.333"/>
      <point x="162" y="556.667" type="curve"/>
    </contour>
  </outline>
</glyph>
<glyph name="ugrave" format="2">
  <advance width="585"/>
  <unicode hex="00F9"/>
  <outline>
    <contour>
      <point x="21.6667" y="404.667" type="line"/>
      <point x="21.6667" y="441" type="line"/>
      <point x="152.667" y="484" type="line"/>
      <point x="196.667" y="484" type="line"/>
      <point x="196.667" y="176" type="line" smooth="yes"/>
      <point x="196.667" y="112.333"/>
      <point x="216.333" y="63.6667"/>
      <point x="292" y="63.6667" type="curve" smooth="yes"/>
      <point x="335.333" y="63.6667"/>
      <point x="370.667" y="78"/>
      <point x="391.333" y="88" type="curve"/>
      <point x="391.333" y="404.667" type="line"/>
      <point x="323.667" y="404.667" type="line"/>
      <point x="323.667" y="441" type="line"/>
      <point x="453.667" y="484" type="line"/>
      <point x="498" y="484" type="line"/>
      <point x="498" y="67" type="line" smooth="yes"/>
      <point x="498" y="55"/>
      <point x="509" y="46.3333"/>
      <point x="520.333" y="45.3333" type="curve" smooth="yes"/>
      <point x="564.333" y="41.6667" type="line"/>
      <point x="564.333" y="0" type="line"/>
      <point x="391.333" y="0" type="line"/>
      <point x="391.333" y="55.6667" type="line"/>
      <point x="366" y="36.3333"/>
      <point x="299.667" y="-12"/>
      <point x="231.333" y="-12" type="curve" smooth="yes"/>
      <point x="128" y="-12"/>
      <point x="90" y="49.6667"/>
      <point x="90" y="150.333" type="curve" smooth="yes"/>
      <point x="90" y="404.667" type="line"/>
    </contour>
    <contour>
      <point x="142" y="691.333" type="curve" smooth="yes"/>
      <point x="142" y="718"/>
      <point x="158.667" y="739"/>
      <point x="191.667" y="739" type="curve" smooth="yes"/>
      <point x="220.667" y="739"/>
      <point x="231.667" y="729.333"/>
      <point x="248.667" y="710.333" type="curve" smooth="yes"/>
      <point x="383" y="556.667" type="line"/>
      <point x="321.667" y="556.667" type="line"/>
      <point x="166.333" y="650.667" type="line"/>
      <point x="153" y="659.333"/>
      <point x="142" y="673"/>
    </contour>
  </outline>
</glyph>
<glyph name="thorn" format="2">
  <advance width="574"/>
  <unicode hex="00FE"/>
  <outline>
    <contour>
      <point x="23.3333" y="-175.333" type="line"/>
      <point x="70" y="-170.333" type="line" smooth="yes"/>
      <point x="81.3025" y="-169.421"/>
      <point x="91.3333" y="-161.667"/>
      <point x="91.3333" y="-149.333" type="curve" smooth="yes"/>
      <point x="91.3333" y="661" type="line"/>
      <point x="23.3333" y="661" type="line"/>
      <point x="23.3333" y="696.667" type="line"/>
      <point x="154.667" y="738.667" type="line"/>
      <point x="198" y="738.667" type="line"/>
      <point x="198" y="434.333" type="line"/>
      <point x="221.833" y="453.753"/>
      <point x="281.836" y="496"/>
      <point x="351.667" y="496" type="curve" smooth="yes"/>
      <point x="475.716" y="496"/>
      <point x="540.667" y="376.174"/>
      <point x="540.667" y="251.333" type="curve" smooth="yes"/>
      <point x="540.667" y="91.1654"/>
      <point x="444.377" y="-11.3333"/>
      <point x="283.333" y="-11.3333" type="curve" smooth="yes"/>
      <point x="246.667" y="-11.3333"/>
      <point x="214.43" y="-5.50694"/>
      <point x="198" y="-2" type="curve"/>
      <point x="198" y="-149.333" type="line" smooth="yes"/>
      <point x="198" y="-161.667"/>
      <point x="208.341" y="-169.589"/>
      <point x="220" y="-170.333" type="curve" smooth="yes"/>
      <point x="277" y="-175.333" type="line"/>
      <point x="277" y="-217" type="line"/>
      <point x="23.3333" y="-217" type="line"/>
    </contour>
    <contour>
      <point x="196.667" y="51.3333" type="line"/>
      <point x="212.189" y="46.3333"/>
      <point x="241.07" y="37.3333"/>
      <point x="269.667" y="37.3333" type="curve" smooth="yes"/>
      <point x="374.514" y="37.3333"/>
      <point x="425.333" y="127.463"/>
      <point x="425.333" y="237.667" type="curve" smooth="yes"/>
      <point x="425.333" y="333.319"/>
      <point x="384.129" y="419"/>
      <point x="289.333" y="419" type="curve" smooth="yes"/>
      <point x="251.043" y="419"/>
      <point x="213.775" y="404.265"/>
      <point x="196.667" y="394" type="curve"/>
    </contour>
  </outline>
</glyph>
<glyph name="ccaron" format="2">
  <advance width="477"/>
  <unicode hex="010D"/>
  <outline>
    <contour>
      <point x="33.3333" y="236" type="curve" smooth="yes"/>
      <point x="33.3333" y="390.667"/>
      <point x="133" y="496.667"/>
      <point x="280" y="496.667" type="curve" smooth="yes"/>
      <point x="367" y="496.667"/>
      <point x="441" y="464"/>
      <point x="441" y="392.667" type="curve" smooth="yes"/>
      <point x="441" y="353.667"/>
      <point x="413.333" y="328.333"/>
      <point x="378" y="328.333" type="curve" smooth="yes"/>
      <point x="349.333" y="328.333"/>
      <point x="334.333" y="338.333"/>
      <point x="322.333" y="346.667" type="curve"/>
      <point x="322.333" y="441" type="line"/>
      <point x="314" y="447"/>
      <point x="301" y="451.667"/>
      <point x="288" y="451.667" type="curve" smooth="yes"/>
      <point x="199.667" y="451.667"/>
      <point x="150.333" y="365"/>
      <point x="150.333" y="254.333" type="curve" smooth="yes"/>
      <point x="150.333" y="141.333"/>
      <point x="205.667" y="57.3333"/>
      <point x="311" y="57.3333" type="curve" smooth="yes"/>
      <point x="368" y="57.3333"/>
      <point x="415.333" y="83"/>
      <point x="444.333" y="102.333" type="curve"/>
      <point x="444.333" y="38.6667" type="line"/>
      <point x="402.333" y="15.3333"/>
      <point x="347" y="-12.6667"/>
      <point x="266.667" y="-12.6667" type="curve" smooth="yes"/>
      <point x="117.333" y="-12.6667"/>
      <point x="33.3333" y="95"/>
    </contour>
    <contour>
      <point x="94" y="726.333" type="line"/>
      <point x="162.333" y="726.333" type="line"/>
      <point x="260.667" y="629" type="line"/>
      <point x="358.333" y="726.333" type="line"/>
      <point x="426" y="726.333" type="line"/>
      <point x="305" y="556.667" type="line"/>
      <point x="215" y="556.667" type="line"/>
    </contour>
  </outline>
</glyph>
<glyph name="Dcaron" format="2">
  <advance width="705"/>
  <unicode hex="010E"/>
  <outline>
    <contour>
      <point x="30.6667" y="0" type="line"/>
      <point x="30.6667" y="45.6667" type="line"/>
      <point x="84.3333" y="50" type="line" smooth="yes"/>
      <point x="96.3333" y="51"/>
      <point x="106.667" y="59.6667"/>
      <point x="106.667" y="72" type="curve" smooth="yes"/>
      <point x="106.667" y="599" type="line" smooth="yes"/>
      <point x="106.667" y="611.333"/>
      <point x="96.3333" y="620"/>
      <point x="84.3333" y="621" type="curve" smooth="yes"/>
      <point x="30.6667" y="625.333" type="line"/>
      <point x="30.6667" y="671" type="line"/>
      <point x="304.667" y="671" type="line" smooth="yes"/>
      <point x="529.333" y="671"/>
      <point x="667" y="553.333"/>
      <point x="667" y="339" type="curve" smooth="yes"/>
      <point x="667" y="117.333"/>
      <point x="536" y="0"/>
      <point x="320" y="0" type="curve" smooth="yes"/>
    </contour>
    <contour>
      <point x="162.667" y="916" type="line"/>
      <point x="231.333" y="916" type="line"/>
      <point x="329.333" y="818.667" type="line"/>
      <point x="427.333" y="916" type="line"/>
      <point x="494.667" y="916" type="line"/>
      <point x="374" y="746.333" type="line"/>
      <point x="284" y="746.333" type="line"/>
    </contour>
    <contour>
      <point x="221" y="51.6667" type="line"/>
      <point x="302.667" y="52.3333" type="line" smooth="yes"/>
      <point x="449.333" y="53"/>
      <point x="538" y="142"/>
      <point x="538" y="334" type="curve" smooth="yes"/>
      <point x="538" y="533.333"/>
      <point x="447.667" y="619.667"/>
      <point x="292.667" y="619.667" type="curve" smooth="yes"/>
      <point x="221" y="619.667" type="line"/>
    </contour>
  </outline>
</glyph>
<glyph name="dcaron" format="2">
  <advance width="747"/>
  <unicode hex="010F"/>
  <outline>
    <contour>
      <point x="33.3333" y="230.333" type="curve" smooth="yes"/>
      <point x="33.3333" y="392.333"/>
      <point x="134.667" y="496.667"/>
      <point x="290.333" y="496.667" type="curve" smooth="yes"/>
      <point x="322.333" y="496.667"/>
      <point x="358.333" y="491"/>
      <point x="383.333" y="484.667" type="curve"/>
      <point x="383.333" y="660.333" type="line"/>
      <point x="308" y="660.333" type="line"/>
      <point x="308" y="696" type="line"/>
      <point x="446" y="738.667" type="line"/>
      <point x="489.667" y="738.667" type="line"/>
      <point x="489.667" y="66.3333" type="line" smooth="yes"/>
      <point x="489.667" y="55"/>
      <point x="499" y="46.3333"/>
      <point x="511" y="45.3333" type="curve" smooth="yes"/>
      <point x="553.667" y="41.6667" type="line"/>
      <point x="553.667" y="0" type="line"/>
      <point x="383.333" y="0" type="line"/>
      <point x="383.333" y="56" type="line"/>
      <point x="343.333" y="23.3333"/>
      <point x="286.333" y="-11.3333"/>
      <point x="226.667" y="-11.3333" type="curve" smooth="yes"/>
      <point x="100.667" y="-11.3333"/>
      <point x="33.3333" y="98"/>
    </contour>
    <contour>
      <point x="148" y="248.667" type="curve" smooth="yes"/>
      <point x="148" y="144.333"/>
      <point x="191" y="64"/>
      <point x="288" y="64" type="curve" smooth="yes"/>
      <point x="326.667" y="64"/>
      <point x="358" y="79"/>
      <point x="383.333" y="94.3333" type="curve"/>
      <point x="383.333" y="428.667" type="line"/>
      <point x="362.667" y="437.333"/>
      <point x="331.667" y="444.667"/>
      <point x="302.333" y="444.667" type="curve" smooth="yes"/>
      <point x="197.333" y="444.667"/>
      <point x="148" y="357"/>
    </contour>
    <contour>
      <point x="557" y="466.667" type="line"/>
      <point x="611.551" y="507.819"/>
      <point x="641.795" y="550.867"/>
      <point x="643.333" y="620" type="curve"/>
      <point x="643.333" y="628.667" type="line"/>
      <point x="581.667" y="628.667" type="line"/>
      <point x="574.667" y="637.333"/>
      <point x="565" y="652"/>
      <point x="565" y="673.667" type="curve" smooth="yes"/>
      <point x="565" y="711.667"/>
      <point x="587.745" y="738.667"/>
      <point x="628.667" y="738.667" type="curve" smooth="yes"/>
      <point x="681.731" y="738.667"/>
      <point x="714" y="698.094"/>
      <point x="714" y="642" type="curve" smooth="yes"/>
      <point x="714" y="533.009"/>
      <point x="630.814" y="475.033"/>
      <point x="586.667" y="448.667" type="curve"/>
    </contour>
  </outline>
</glyph>
<glyph name="Ecaron" format="2">
  <advance width="588"/>
  <unicode hex="011A"/>
  <outline>
    <contour>
      <point x="30" y="0" type="line"/>
      <point x="30" y="45.6667" type="line"/>
      <point x="83" y="50" type="line" smooth="yes"/>
      <point x="95" y="51"/>
      <point x="105.333" y="59.6667"/>
      <point x="105.333" y="72" type="curve" smooth="yes"/>
      <point x="105.333" y="599" type="line" smooth="yes"/>
      <point x="105.333" y="611.333"/>
      <point x="95" y="620"/>
      <point x="83" y="621" type="curve" smooth="yes"/>
      <point x="30" y="625.333" type="line"/>
      <point x="30" y="671" type="line"/>
      <point x="524" y="671" type="line"/>
      <point x="524" y="518.333" type="line"/>
      <point x="460" y="518.333" type="line"/>
      <point x="444.667" y="600.667" type="line"/>
      <point x="442.667" y="610"/>
      <point x="436.333" y="619.667"/>
      <point x="426.667" y="619.667" type="curve" smooth="yes"/>
      <point x="220" y="619.667" type="line"/>
      <point x="220" y="375.333" type="line"/>
      <point x="359.667" y="375.333" type="line" smooth="yes"/>
      <point x="369.333" y="375.333"/>
      <point x="375.667" y="383"/>
      <point x="377.333" y="392.667" type="curve"/>
      <point x="387" y="461.333" type="line"/>
      <point x="441.667" y="461.333" type="line"/>
      <point x="441.667" y="234.333" type="line"/>
      <point x="387" y="234.333" type="line"/>
      <point x="378" y="303" type="line" smooth="yes"/>
      <point x="377" y="312"/>
      <point x="370.667" y="321"/>
      <point x="360.333" y="321" type="curve" smooth="yes"/>
      <point x="220.667" y="321" type="line"/>
      <point x="220.667" y="52.6667" type="line"/>
      <point x="462" y="52.6667" type="line" smooth="yes"/>
      <point x="470" y="52.6667"/>
      <point x="478.333" y="64.6667"/>
      <point x="479.333" y="71.6667" type="curve" smooth="yes"/>
      <point x="496.333" y="172.333" type="line"/>
      <point x="556.667" y="172.333" type="line"/>
      <point x="556.667" y="0" type="line"/>
    </contour>
    <contour>
      <point x="111" y="916" type="line"/>
      <point x="179.333" y="916" type="line"/>
      <point x="277.667" y="818.667" type="line"/>
      <point x="375.333" y="916" type="line"/>
      <point x="443" y="916" type="line"/>
      <point x="322" y="746.333" type="line"/>
      <point x="232" y="746.333" type="line"/>
    </contour>
  </outline>
</glyph>
<glyph name="hcircumflex" format="2">
  <advance width="591"/>
  <unicode hex="0125"/>
  <outline>
    <contour>
      <point x="6" y="798.667" type="line"/>
      <point x="126.667" y="968.333" type="line"/>
      <point x="216.667" y="968.333" type="line"/>
      <point x="338" y="798.667" type="line"/>
      <point x="270" y="798.667" type="line"/>
      <point x="172.667" y="896.333" type="line"/>
      <point x="74" y="798.667" type="line"/>
    </contour>
    <contour>
      <point x="15.6667" y="660.333" type="line"/>
      <point x="15.6667" y="696" type="line"/>
      <point x="151.667" y="738.667" type="line"/>
      <point x="195.667" y="738.667" type="line"/>
      <point x="195.667" y="434.667" type="line"/>
      <point x="261.792" y="476.471"/>
      <point x="316.69" y="496.667"/>
      <point x="364" y="496.667" type="curve" smooth="yes"/>
      <point x="449.32" y="496.667"/>
      <point x="500" y="439.605"/>
      <point x="500" y="343.667" type="curve" smooth="yes"/>
      <point x="500" y="66.3333" type="line" smooth="yes"/>
      <point x="500" y="54.3333"/>
      <point x="510.655" y="45.4896"/>
      <point x="522" y="44.6667" type="curve" smooth="yes"/>
      <point x="566" y="41.6667" type="line"/>
      <point x="566" y="0" type="line"/>
      <point x="333.667" y="0" type="line"/>
      <point x="333.667" y="41.6667" type="line"/>
      <point x="371.667" y="44.6667" type="line" smooth="yes"/>
      <point x="383.009" y="45.5371"/>
      <point x="393.667" y="54.3333"/>
      <point x="393.667" y="66.3333" type="curve" smooth="yes"/>
      <point x="393.667" y="318.333" type="line" smooth="yes"/>
      <point x="393.667" y="383"/>
      <point x="361.333" y="417.333"/>
      <point x="299.667" y="417.333" type="curve" smooth="yes"/>
      <point x="261.621" y="417.333"/>
      <point x="218.683" y="406.365"/>
      <point x="195.667" y="393.667" type="curve"/>
      <point x="195.667" y="66.3333" type="line" smooth="yes"/>
      <point x="195.667" y="54.3333"/>
      <point x="204.989" y="45.5124"/>
      <point x="216.333" y="44.6667" type="curve" smooth="yes"/>
      <point x="256.667" y="41.6667" type="line"/>
      <point x="256.667" y="0" type="line"/>
      <point x="22.3333" y="0" type="line"/>
      <point x="22.3333" y="41.6667" type="line"/>
      <point x="68" y="44.6667" type="line" smooth="yes"/>
      <point x="79.3463" y="45.459"/>
      <point x="89.3333" y="54.3333"/>
      <point x="89.3333" y="66.3333" type="curve" smooth="yes"/>
      <point x="89.3333" y="660.333" type="line"/>
    </contour>
  </outline>
</glyph>
<glyph name="iogonek" format="2">
  <advance width="313"/>
  <unicode hex="012F"/>
  <outline>
    <contour>
      <point x="33.3333" y="0" type="line"/>
      <point x="33.3333" y="41.6667" type="line"/>
      <point x="81.3333" y="44.6667" type="line" smooth="yes"/>
      <point x="92.6667" y="45.6667"/>
      <point x="102.667" y="54.3333"/>
      <point x="102.667" y="66.3333" type="curve" smooth="yes"/>
      <point x="102.667" y="416.333" type="line"/>
      <point x="35.3333" y="416.333" type="line"/>
      <point x="35.3333" y="453.333" type="line"/>
      <point x="165.333" y="495.333" type="line"/>
      <point x="209" y="495.333" type="line"/>
      <point x="209" y="66.3333" type="line" smooth="yes"/>
      <point x="209" y="54.3333"/>
      <point x="219.333" y="45.6667"/>
      <point x="230.667" y="44.6667" type="curve"/>
      <point x="280.667" y="41.6667" type="line"/>
      <point x="280.667" y="0" type="line"/>
    </contour>
    <contour>
      <point x="57.3333" y="-109.044" type="curve" smooth="yes"/>
      <point x="57.3333" y="-60.3776"/>
      <point x="91.3333" y="-18.3776"/>
      <point x="130.667" y="6.6224" type="curve"/>
      <point x="183.333" y="6.6224" type="line"/>
      <point x="152" y="-15.3776"/>
      <point x="126" y="-46.7109"/>
      <point x="126" y="-86.3776" type="curve" smooth="yes"/>
      <point x="126" y="-121.711"/>
      <point x="144.667" y="-139.044"/>
      <point x="176" y="-139.044" type="curve" smooth="yes"/>
      <point x="195.333" y="-139.044"/>
      <point x="213.333" y="-130.044"/>
      <point x="225.333" y="-121.377" type="curve"/>
      <point x="250" y="-162.711" type="line"/>
      <point x="223.333" y="-182.377"/>
      <point x="193" y="-191.711"/>
      <point x="157.333" y="-191.711" type="curve" smooth="yes"/>
      <point x="99.6667" y="-191.711"/>
      <point x="57.3333" y="-163.711"/>
    </contour>
    <contour>
      <point x="94" y="652.333" type="curve" smooth="yes"/>
      <point x="94" y="690"/>
      <point x="123.333" y="718.667"/>
      <point x="161" y="718.667" type="curve" smooth="yes"/>
      <point x="198.667" y="718.667"/>
      <point x="227.667" y="690"/>
      <point x="227.667" y="652.333" type="curve" smooth="yes"/>
      <point x="227.667" y="614.667"/>
      <point x="198.667" y="585"/>
      <point x="161" y="585" type="curve" smooth="yes"/>
      <point x="123.333" y="585"/>
      <point x="94" y="614.667"/>
    </contour>
  </outline>
</glyph>
<glyph name="Idotaccent" format="2">
  <advance width="339"/>
  <unicode hex="0130"/>
  <outline>
    <contour>
      <point x="29.6667" y="0" type="line"/>
      <point x="29.6667" y="45.6667" type="line"/>
      <point x="90.3333" y="50" type="line" smooth="yes"/>
      <point x="102.333" y="51"/>
      <point x="111.667" y="59.6667"/>
      <point x="111.667" y="72" type="curve" smooth="yes"/>
      <point x="111.667" y="599" type="line" smooth="yes"/>
      <point x="111.667" y="611.333"/>
      <point x="102.333" y="619.333"/>
      <point x="90.3333" y="620.333" type="curve" smooth="yes"/>
      <point x="29.6667" y="624.667" type="line"/>
      <point x="29.6667" y="671" type="line"/>
      <point x="309.667" y="671" type="line"/>
      <point x="309.667" y="624.667" type="line"/>
      <point x="248.333" y="620.333" type="line" smooth="yes"/>
      <point x="237.333" y="619.333"/>
      <point x="226.667" y="610.667"/>
      <point x="226.667" y="599" type="curve" smooth="yes"/>
      <point x="226.667" y="72" type="line" smooth="yes"/>
      <point x="226.667" y="60.3333"/>
      <point x="237.333" y="51"/>
      <point x="248.333" y="50" type="curve" smooth="yes"/>
      <point x="309.667" y="45.6667" type="line"/>
      <point x="309.667" y="0" type="line"/>
    </contour>
    <contour>
      <point x="109.667" y="808" type="curve" smooth="yes"/>
      <point x="109.667" y="842.333"/>
      <point x="135" y="868.667"/>
      <point x="169.667" y="868.667" type="curve" smooth="yes"/>
      <point x="203.667" y="868.667"/>
      <point x="229.667" y="842.667"/>
      <point x="229.667" y="808" type="curve" smooth="yes"/>
      <point x="229.667" y="774.333"/>
      <point x="204" y="748"/>
      <point x="169.667" y="748" type="curve" smooth="yes"/>
      <point x="135.333" y="748"/>
      <point x="109.667" y="773.667"/>
    </contour>
  </outline>
</glyph>
<glyph name="lacute" format="2">
  <advance width="308"/>
  <unicode hex="013A"/>
  <outline>
    <contour>
      <point x="27" y="659.667" type="line"/>
      <point x="27" y="695.333" type="line"/>
      <point x="163.333" y="738" type="line"/>
      <point x="207.667" y="738" type="line"/>
      <point x="207.667" y="66.3333" type="line" smooth="yes"/>
      <point x="207.667" y="56"/>
      <point x="218.667" y="45"/>
      <point x="229" y="44.6667" type="curve" smooth="yes"/>
      <point x="281.667" y="41.6667" type="line"/>
      <point x="281.667" y="0" type="line"/>
      <point x="27.6667" y="0" type="line"/>
      <point x="27.6667" y="41.6667" type="line"/>
      <point x="79.3333" y="44.6667" type="line" smooth="yes"/>
      <point x="89.6667" y="45"/>
      <point x="101.333" y="56"/>
      <point x="101.333" y="66.3333" type="curve" smooth="yes"/>
      <point x="101.333" y="659.667" type="line"/>
    </contour>
    <contour>
      <point x="72" y="798" type="line"/>
      <point x="205.667" y="951.667" type="line" smooth="yes"/>
      <point x="221.333" y="970"/>
      <point x="234.333" y="980.333"/>
      <point x="262" y="980.333" type="curve" smooth="yes"/>
      <point x="296.105" y="980.333"/>
      <point x="312.667" y="959.725"/>
      <point x="312.667" y="932.667" type="curve" smooth="yes"/>
      <point x="312.667" y="915.667"/>
      <point x="300.675" y="899.321"/>
      <point x="288.667" y="892" type="curve" smooth="yes"/>
      <point x="132.667" y="798" type="line"/>
    </contour>
  </outline>
</glyph>
<glyph name="Lcommaaccent" format="2">
  <advance width="538"/>
  <unicode hex="013B"/>
  <outline>
    <contour>
      <point x="27" y="0" type="line"/>
      <point x="27" y="45.6667" type="line"/>
      <point x="84" y="50" type="line" smooth="yes"/>
      <point x="96" y="51"/>
      <point x="105.333" y="59.6667"/>
      <point x="105.333" y="72" type="curve" smooth="yes"/>
      <point x="105.333" y="599" type="line" smooth="yes"/>
      <point x="105.333" y="611.333"/>
      <point x="96" y="620"/>
      <point x="84" y="621" type="curve" smooth="yes"/>
      <point x="27" y="625.333" type="line"/>
      <point x="27" y="671" type="line"/>
      <point x="296.333" y="671" type="line"/>
      <point x="296.333" y="625.333" type="line"/>
      <point x="242.333" y="621" type="line" smooth="yes"/>
      <point x="230.333" y="620"/>
      <point x="220.333" y="611.333"/>
      <point x="220.333" y="599" type="curve" smooth="yes"/>
      <point x="220.333" y="53" type="line"/>
      <point x="418.333" y="53" type="line" smooth="yes"/>
      <point x="429.667" y="53"/>
      <point x="440" y="63.3333"/>
      <point x="441" y="72" type="curve" smooth="yes"/>
      <point x="456" y="190.333" type="line"/>
      <point x="521.333" y="190.333" type="line"/>
      <point x="521.333" y="0" type="line"/>
    </contour>
    <contour>
      <point x="206.667" y="-110.667" type="curve" smooth="yes"/>
      <point x="206.667" y="-78.3333"/>
      <point x="234.333" y="-60"/>
      <point x="266" y="-60" type="curve" smooth="yes"/>
      <point x="313.667" y="-60"/>
      <point x="342" y="-94.6667"/>
      <point x="342" y="-143" type="curve" smooth="yes"/>
      <point x="342" y="-216.11"/>
      <point x="281.054" y="-257.769"/>
      <point x="212" y="-270" type="curve"/>
      <point x="212" y="-236.667" type="line"/>
      <point x="255.667" y="-223.667"/>
      <point x="283.333" y="-200.667"/>
      <point x="283.333" y="-150" type="curve"/>
      <point x="223.333" y="-150" type="line"/>
      <point x="213.667" y="-140.667"/>
      <point x="206.667" y="-126.667"/>
    </contour>
  </outline>
</glyph>
<glyph name="ldot" format="2">
  <advance width="401"/>
  <unicode hex="0140"/>
  <outline>
    <contour>
      <point x="27" y="659.667" type="line"/>
      <point x="27" y="695.333" type="line"/>
      <point x="163.333" y="738" type="line"/>
      <point x="207.667" y="738" type="line"/>
      <point x="207.667" y="66.3333" type="line" smooth="yes"/>
      <point x="207.667" y="56"/>
      <point x="218.667" y="45"/>
      <point x="229" y="44.6667" type="curve" smooth="yes"/>
      <point x="281.667" y="41.6667" type="line"/>
      <point x="281.667" y="0" type="line"/>
      <point x="27.6667" y="0" type="line"/>
      <point x="27.6667" y="41.6667" type="line"/>
      <point x="79.3333" y="44.6667" type="line" smooth="yes"/>
      <point x="89.6667" y="45"/>
      <point x="101.333" y="56"/>
      <point x="101.333" y="66.3333" type="curve" smooth="yes"/>
      <point x="101.333" y="659.667" type="line"/>
    </contour>
    <contour>
      <point x="263.333" y="340" type="curve" smooth="yes"/>
      <point x="263.333" y="373.667"/>
      <point x="288.667" y="399"/>
      <point x="322.333" y="399" type="curve" smooth="yes"/>
      <point x="356" y="399"/>
      <point x="381.333" y="373.667"/>
      <point x="381.333" y="340" type="curve" smooth="yes"/>
      <point x="381.333" y="306.333"/>
      <point x="356" y="281"/>
      <point x="322.333" y="281" type="curve" smooth="yes"/>
      <point x="288.667" y="281"/>
      <point x="263.333" y="306.333"/>
    </contour>
  </outline>
</glyph>
<glyph name="Lslash" format="2">
  <advance width="538"/>
  <unicode hex="0141"/>
  <outline>
    <contour>
      <point x="26.3333" y="0" type="line"/>
      <point x="26.3333" y="45.6667" type="line"/>
      <point x="84" y="50" type="line" smooth="yes"/>
      <point x="96.6667" y="51"/>
      <point x="105.333" y="59"/>
      <point x="105.333" y="72" type="curve" smooth="yes"/>
      <point x="105.333" y="281" type="line"/>
      <point x="32.3333" y="232" type="line"/>
      <point x="6.66667" y="275.667" type="line"/>
      <point x="105.333" y="342.667" type="line"/>
      <point x="105.333" y="599" type="line" smooth="yes"/>
      <point x="105.333" y="611.333"/>
      <point x="96" y="619.333"/>
      <point x="84" y="620.333" type="curve" smooth="yes"/>
      <point x="26.3333" y="625.333" type="line"/>
      <point x="26.3333" y="671" type="line"/>
      <point x="300.333" y="671" type="line"/>
      <point x="300.333" y="625.333" type="line"/>
      <point x="242.333" y="620.333" type="line" smooth="yes"/>
      <point x="230.333" y="619.333"/>
      <point x="220.333" y="611.333"/>
      <point x="220.333" y="599" type="curve" smooth="yes"/>
      <point x="220.333" y="419" type="line"/>
      <point x="317" y="483" type="line"/>
      <point x="345.333" y="441.667" type="line"/>
      <point x="220.333" y="358" type="line"/>
      <point x="220.333" y="53" type="line"/>
      <point x="415.667" y="53" type="line" smooth="yes"/>
      <point x="429.667" y="53"/>
      <point x="440" y="64"/>
      <point x="441" y="74.6667" type="curve"/>
      <point x="456.667" y="190.333" type="line"/>
      <point x="521.333" y="190.333" type="line"/>
      <point x="521.333" y="0" type="line"/>
    </contour>
  </outline>
</glyph>
<glyph name="Ohungarumlaut" format="2">
  <advance width="738"/>
  <unicode hex="0150"/>
  <outline>
    <contour>
      <point x="194" y="747" type="line"/>
      <point x="328.667" y="900.667" type="line" smooth="yes"/>
      <point x="344" y="918.333"/>
      <point x="356.333" y="929.333"/>
      <point x="384.667" y="929.333" type="curve" smooth="yes"/>
      <point x="418.333" y="929.333"/>
      <point x="434.667" y="908.333"/>
      <point x="434.667" y="881" type="curve" smooth="yes"/>
      <point x="434.667" y="863.333"/>
      <point x="423.667" y="849"/>
      <point x="410" y="841" type="curve" smooth="yes"/>
      <point x="255.333" y="747" type="line"/>
    </contour>
    <contour>
      <point x="396" y="746.333" type="line"/>
      <point x="530.667" y="900" type="line" smooth="yes"/>
      <point x="547.333" y="919"/>
      <point x="559.667" y="929.333"/>
      <point x="586.667" y="929.333" type="curve" smooth="yes"/>
      <point x="620.333" y="929.333"/>
      <point x="636" y="908.333"/>
      <point x="636" y="881.667" type="curve" smooth="yes"/>
      <point x="636" y="864"/>
      <point x="625.667" y="848.333"/>
      <point x="612" y="840.333" type="curve" smooth="yes"/>
      <point x="457.333" y="746.333" type="line"/>
    </contour>
    <contour>
      <point x="38.3333" y="338" type="curve" smooth="yes"/>
      <point x="38.3333" y="529.667"/>
      <point x="171.333" y="686.333"/>
      <point x="369" y="686.333" type="curve" smooth="yes"/>
      <point x="565" y="686.333"/>
      <point x="702" y="526"/>
      <point x="702" y="335.333" type="curve" smooth="yes"/>
      <point x="702" y="145"/>
      <point x="565.667" y="-15.3333"/>
      <point x="372" y="-15.3333" type="curve" smooth="yes"/>
      <point x="178.667" y="-15.3333"/>
      <point x="38.3333" y="135.667"/>
    </contour>
    <contour>
      <point x="169" y="337" type="curve" smooth="yes"/>
      <point x="169" y="203"/>
      <point x="226.333" y="41.6667"/>
      <point x="367.333" y="41.6667" type="curve" smooth="yes"/>
      <point x="512" y="41.6667"/>
      <point x="570.333" y="204.333"/>
      <point x="570.333" y="334" type="curve" smooth="yes"/>
      <point x="570.333" y="473"/>
      <point x="512" y="625.333"/>
      <point x="373.333" y="625.333" type="curve" smooth="yes"/>
      <point x="227" y="625.333"/>
      <point x="169" y="468.333"/>
    </contour>
  </outline>
</glyph>
<glyph name="oe" format="2">
  <advance width="835"/>
  <unicode hex="0153"/>
  <outline>
    <contour>
      <point x="33.3333" y="240.333" type="curve" smooth="yes"/>
      <point x="33.3333" y="384.755"/>
      <point x="116.968" y="495"/>
      <point x="268" y="495" type="curve" smooth="yes"/>
      <point x="368.4" y="495"/>
      <point x="430.024" y="437.679"/>
      <point x="449.667" y="401.667" type="curve"/>
      <point x="470.333" y="436.333"/>
      <point x="521.667" y="495.667"/>
      <point x="619.333" y="495.667" type="curve" smooth="yes"/>
      <point x="744.667" y="495.667"/>
      <point x="801.333" y="404"/>
      <point x="801.333" y="283.667" type="curve" smooth="yes"/>
      <point x="801.333" y="275.81"/>
      <point x="801.015" y="264.95"/>
      <point x="800.667" y="257.667" type="curve"/>
      <point x="496" y="257.667" type="line"/>
      <point x="496" y="153.613"/>
      <point x="541.985" y="61.3333"/>
      <point x="657" y="61.3333" type="curve" smooth="yes"/>
      <point x="727.763" y="61.3333"/>
      <point x="778.512" y="99.25"/>
      <point x="801.333" y="117" type="curve"/>
      <point x="801.333" y="50" type="line"/>
      <point x="771.333" y="29.3333"/>
      <point x="713.333" y="-10.3333"/>
      <point x="623.333" y="-10.3333" type="curve" smooth="yes"/>
      <point x="515.333" y="-10.3333"/>
      <point x="468" y="50.6667"/>
      <point x="444.333" y="87.3333" type="curve"/>
      <point x="418.667" y="51.6565"/>
      <point x="374.333" y="-11"/>
      <point x="264" y="-11" type="curve" smooth="yes"/>
      <point x="115.521" y="-11"/>
      <point x="33.3333" y="100.615"/>
    </contour>
    <contour>
      <point x="151" y="247.667" type="curve" smooth="yes"/>
      <point x="151" y="150.128"/>
      <point x="176.581" y="38.6667"/>
      <point x="270" y="38.6667" type="curve" smooth="yes"/>
      <point x="362.101" y="38.6667"/>
      <point x="388.333" y="146.133"/>
      <point x="388.333" y="236.667" type="curve" smooth="yes"/>
      <point x="388.333" y="340.018"/>
      <point x="361.498" y="446"/>
      <point x="271" y="446" type="curve" smooth="yes"/>
      <point x="175.44" y="446"/>
      <point x="151" y="336.632"/>
    </contour>
    <contour>
      <point x="501" y="306.333" type="curve"/>
      <point x="687" y="306.333" type="line"/>
      <point x="687" y="328" type="line" smooth="yes"/>
      <point x="687" y="389.321"/>
      <point x="665.277" y="445.333"/>
      <point x="604" y="445.333" type="curve" smooth="yes"/>
      <point x="532.667" y="445.333"/>
      <point x="505.667" y="369.667"/>
    </contour>
  </outline>
</glyph>
<glyph name="rcommaaccent" format="2">
  <advance width="405"/>
  <unicode hex="0157"/>
  <outline>
    <contour>
      <point x="21" y="410" type="line"/>
      <point x="21" y="445.667" type="line"/>
      <point x="155.333" y="488" type="line"/>
      <point x="200" y="488" type="line"/>
      <point x="200" y="394.667" type="line"/>
      <point x="224.014" y="425.99"/>
      <point x="280.003" y="496"/>
      <point x="333" y="496" type="curve" smooth="yes"/>
      <point x="356.667" y="496"/>
      <point x="379.333" y="487.667"/>
      <point x="394.667" y="480" type="curve"/>
      <point x="394.667" y="363.333" type="line"/>
      <point x="346" y="363.333" type="line"/>
      <point x="334.667" y="377"/>
      <point x="318.667" y="394.667"/>
      <point x="288.333" y="394.667" type="curve" smooth="yes"/>
      <point x="246.884" y="394.667"/>
      <point x="216.255" y="366.457"/>
      <point x="200" y="347.333" type="curve"/>
      <point x="200" y="66" type="line" smooth="yes"/>
      <point x="200" y="54"/>
      <point x="209.651" y="44.6673"/>
      <point x="221.333" y="44.3333" type="curve" smooth="yes"/>
      <point x="286.667" y="41.3333" type="line"/>
      <point x="286.667" y="-0.333333" type="line"/>
      <point x="24.6667" y="-0.333333" type="line"/>
      <point x="24.6667" y="40.6667" type="line"/>
      <point x="72" y="44.3333" type="line" smooth="yes"/>
      <point x="83.3385" y="45.2656"/>
      <point x="93.3333" y="54"/>
      <point x="93.3333" y="66" type="curve" smooth="yes"/>
      <point x="93.3333" y="410" type="line"/>
    </contour>
    <contour>
      <point x="88" y="-110.333" type="curve" smooth="yes"/>
      <point x="88" y="-78"/>
      <point x="115.667" y="-59.6667"/>
      <point x="147.333" y="-59.6667" type="curve" smooth="yes"/>
      <point x="195" y="-59.6667"/>
      <point x="223.333" y="-94.3333"/>
      <point x="223.333" y="-142.667" type="curve" smooth="yes"/>
      <point x="223.333" y="-215.777"/>
      <point x="162.721" y="-257.435"/>
      <point x="93.6667" y="-269.667" type="curve"/>
      <point x="93.6667" y="-236.333" type="line"/>
      <point x="137.333" y="-223.333"/>
      <point x="165" y="-200.333"/>
      <point x="165" y="-149.667" type="curve"/>
      <point x="104.667" y="-149.667" type="line"/>
      <point x="95" y="-140.333"/>
      <point x="88" y="-126.333"/>
    </contour>
  </outline>
</glyph>
<glyph name="Scircumflex" format="2">
  <advance width="525"/>
  <unicode hex="015C"/>
  <outline>
    <contour>
      <point x="39" y="21.3333" type="curve"/>
      <point x="39" y="200.333" type="line"/>
      <point x="107.333" y="200.333" type="line"/>
      <point x="121.667" y="84.6667" type="line" smooth="yes"/>
      <point x="124.544" y="59.5436"/>
      <point x="168.436" y="42.6667"/>
      <point x="229.667" y="42.6667" type="curve" smooth="yes"/>
      <point x="315.483" y="42.6667"/>
      <point x="370.667" y="86.0202"/>
      <point x="370.667" y="154" type="curve" smooth="yes"/>
      <point x="370.667" y="209.245"/>
      <point x="334.143" y="252.696"/>
      <point x="261" y="283.333" type="curve"/>
      <point x="188.333" y="311.333" type="line"/>
      <point x="96.2676" y="348.805"/>
      <point x="50.3333" y="407.621"/>
      <point x="50.3333" y="488.667" type="curve" smooth="yes"/>
      <point x="50.3333" y="608.879"/>
      <point x="142.425" y="686.333"/>
      <point x="286" y="686.333" type="curve" smooth="yes"/>
      <point x="355" y="686.333"/>
      <point x="413.333" y="667.667"/>
      <point x="466.333" y="651.667" type="curve"/>
      <point x="466.333" y="493" type="line"/>
      <point x="402.667" y="493" type="line"/>
      <point x="387" y="592.667" type="line" smooth="yes"/>
      <point x="383.439" y="613.478"/>
      <point x="343.715" y="628.667"/>
      <point x="293" y="628.667" type="curve" smooth="yes"/>
      <point x="216.336" y="628.667"/>
      <point x="166" y="585.868"/>
      <point x="166" y="520" type="curve" smooth="yes"/>
      <point x="166" y="468.267"/>
      <point x="198.333" y="432.5"/>
      <point x="277.667" y="397" type="curve" smooth="yes"/>
      <point x="344" y="368.333" type="line" smooth="yes"/>
      <point x="447.794" y="321.85"/>
      <point x="488.333" y="271.631"/>
      <point x="488.333" y="190.667" type="curve" smooth="yes"/>
      <point x="488.333" y="64.9746"/>
      <point x="384.919" y="-15.3333"/>
      <point x="222.667" y="-15.3333" type="curve" smooth="yes"/>
      <point x="148.088" y="-15.3333"/>
      <point x="85.726" y="3.8112"/>
    </contour>
    <contour>
      <point x="106.667" y="746.333" type="line"/>
      <point x="227.667" y="916" type="line"/>
      <point x="317.667" y="916" type="line"/>
      <point x="438.667" y="746.333" type="line"/>
      <point x="371" y="746.333" type="line"/>
      <point x="273.333" y="844" type="line"/>
      <point x="175" y="746.333" type="line"/>
    </contour>
  </outline>
</glyph>
<glyph name="Scedilla" format="2">
  <advance width="525"/>
  <unicode hex="015E"/>
  <outline>
    <contour>
      <point x="39" y="21.3333" type="curve"/>
      <point x="39" y="200.333" type="line"/>
      <point x="107.333" y="200.333" type="line"/>
      <point x="121.667" y="84.6667" type="line" smooth="yes"/>
      <point x="124.544" y="59.5436"/>
      <point x="168.436" y="42.6667"/>
      <point x="229.667" y="42.6667" type="curve" smooth="yes"/>
      <point x="315.483" y="42.6667"/>
      <point x="370.667" y="86.0202"/>
      <point x="370.667" y="154" type="curve" smooth="yes"/>
      <point x="370.667" y="209.245"/>
      <point x="334.143" y="252.696"/>
      <point x="261" y="283.333" type="curve"/>
      <point x="188.333" y="311.333" type="line"/>
      <point x="96.2676" y="348.805"/>
      <point x="50.3333" y="407.621"/>
      <point x="50.3333" y="488.667" type="curve" smooth="yes"/>
      <point x="50.3333" y="608.879"/>
      <point x="142.425" y="686.333"/>
      <point x="286" y="686.333" type="curve" smooth="yes"/>
      <point x="355" y="686.333"/>
      <point x="413.333" y="667.667"/>
      <point x="466.333" y="651.667" type="curve"/>
      <point x="466.333" y="493" type="line"/>
      <point x="402.667" y="493" type="line"/>
      <point x="387" y="592.667" type="line" smooth="yes"/>
      <point x="383.439" y="613.478"/>
      <point x="343.715" y="628.667"/>
      <point x="293" y="628.667" type="curve" smooth="yes"/>
      <point x="216.336" y="628.667"/>
      <point x="166" y="585.868"/>
      <point x="166" y="520" type="curve" smooth="yes"/>
      <point x="166" y="468.267"/>
      <point x="198.333" y="432.5"/>
      <point x="277.667" y="397" type="curve" smooth="yes"/>
      <point x="344" y="368.333" type="line" smooth="yes"/>
      <point x="447.794" y="321.85"/>
      <point x="488.333" y="271.631"/>
      <point x="488.333" y="190.667" type="curve" smooth="yes"/>
      <point x="488.333" y="64.9746"/>
      <point x="384.919" y="-15.3333"/>
      <point x="222.667" y="-15.3333" type="curve" smooth="yes"/>
      <point x="148.088" y="-15.3333"/>
      <point x="85.726" y="3.8112"/>
    </contour>
    <contour>
      <point x="145.667" y="-228.445" type="curve"/>
      <point x="145.667" y="-185.778" type="line"/>
      <point x="157.667" y="-188.445"/>
      <point x="185.333" y="-193.778"/>
      <point x="207.333" y="-193.778" type="curve" smooth="yes"/>
      <point x="237.333" y="-193.778"/>
      <point x="269.667" y="-185.778"/>
      <point x="269.667" y="-155.111" type="curve" smooth="yes"/>
      <point x="269.667" y="-129.778"/>
      <point x="252" y="-119.111"/>
      <point x="230.333" y="-119.111" type="curve" smooth="yes"/>
      <point x="221.333" y="-119.111"/>
      <point x="207.667" y="-121.111"/>
      <point x="201" y="-123.778" type="curve"/>
      <point x="201" y="-6.778" type="line"/>
      <point x="244.333" y="-6.778" type="line"/>
      <point x="244.333" y="-72.778" type="line"/>
      <point x="250.667" y="-70.4447"/>
      <point x="255.667" y="-69.4447"/>
      <point x="264.333" y="-69.4447" type="curve" smooth="yes"/>
      <point x="310.333" y="-69.4447"/>
      <point x="340.333" y="-93.778"/>
      <point x="340.333" y="-142.111" type="curve" smooth="yes"/>
      <point x="340.333" y="-207.111"/>
      <point x="289.667" y="-238.778"/>
      <point x="222" y="-238.778" type="curve" smooth="yes"/>
      <point x="190.333" y="-238.778"/>
      <point x="159.667" y="-232.445"/>
    </contour>
  </outline>
</glyph>
<glyph name="tbar" format="2">
  <advance width="351"/>
  <unicode hex="0167"/>
  <outline>
    <contour>
      <point x="26" y="222" type="line"/>
      <point x="26" y="275" type="line"/>
      <point x="90.6667" y="275" type="line"/>
      <point x="90.6667" y="429.333" type="line"/>
      <point x="26" y="429.333" type="line"/>
      <point x="26" y="464.667" type="line"/>
      <point x="97" y="501.333" type="line"/>
      <point x="145" y="607.333" type="line"/>
      <point x="197.333" y="607.333" type="line"/>
      <point x="197.333" y="484" type="line"/>
      <point x="337.667" y="484" type="line"/>
      <point x="337.667" y="429.333" type="line"/>
      <point x="197.333" y="429.333" type="line"/>
      <point x="197.333" y="275" type="line"/>
      <point x="337.667" y="275" type="line"/>
      <point x="337.667" y="222" type="line"/>
      <point x="197.333" y="222" type="line"/>
      <point x="197.333" y="132.667" type="line" smooth="yes"/>
      <point x="197.333" y="79.9266"/>
      <point x="208.55" y="51"/>
      <point x="263.333" y="51" type="curve" smooth="yes"/>
      <point x="298.477" y="51"/>
      <point x="329.306" y="57.8854"/>
      <point x="345" y="64.6667" type="curve"/>
      <point x="345" y="21.3333" type="line"/>
      <point x="321" y="10"/>
      <point x="265.333" y="-12"/>
      <point x="202.333" y="-12" type="curve" smooth="yes"/>
      <point x="121.333" y="-12"/>
      <point x="90.6667" y="23.6667"/>
      <point x="90.6667" y="103.667" type="curve" smooth="yes"/>
      <point x="90.6667" y="222" type="line"/>
    </contour>
  </outline>
</glyph>
<glyph name="Uhungarumlaut" format="2">
  <advance width="717"/>
  <unicode hex="0170"/>
  <outline>
    <contour>
      <point x="28" y="625.333" type="line"/>
      <point x="28" y="671" type="line"/>
      <point x="296" y="671" type="line"/>
      <point x="296" y="625.333" type="line"/>
      <point x="240" y="621" type="line" smooth="yes"/>
      <point x="228.333" y="620"/>
      <point x="218.667" y="611.333"/>
      <point x="218.667" y="599" type="curve" smooth="yes"/>
      <point x="218.667" y="248" type="line" smooth="yes"/>
      <point x="218.667" y="121.667"/>
      <point x="263.333" y="57"/>
      <point x="385.333" y="57" type="curve" smooth="yes"/>
      <point x="504.333" y="57"/>
      <point x="548.667" y="128.667"/>
      <point x="548.667" y="248" type="curve" smooth="yes"/>
      <point x="548.667" y="599" type="line" smooth="yes"/>
      <point x="548.667" y="611.333"/>
      <point x="538.667" y="620"/>
      <point x="526.667" y="621" type="curve" smooth="yes"/>
      <point x="469.667" y="625.333" type="line"/>
      <point x="469.667" y="671" type="line"/>
      <point x="691" y="671" type="line"/>
      <point x="691" y="625.333" type="line"/>
      <point x="634.667" y="621" type="line" smooth="yes"/>
      <point x="623" y="620"/>
      <point x="613.333" y="611.333"/>
      <point x="613.333" y="599" type="curve" smooth="yes"/>
      <point x="613.333" y="233.333" type="line" smooth="yes"/>
      <point x="613.333" y="57"/>
      <point x="523.667" y="-15.3333"/>
      <point x="350.667" y="-15.3333" type="curve" smooth="yes"/>
      <point x="185.333" y="-15.3333"/>
      <point x="103" y="68"/>
      <point x="103" y="233.333" type="curve" smooth="yes"/>
      <point x="103" y="599" type="line" smooth="yes"/>
      <point x="103" y="611.333"/>
      <point x="93.3333" y="620"/>
      <point x="81.3333" y="621" type="curve" smooth="yes"/>
    </contour>
    <contour>
      <point x="208" y="747" type="line"/>
      <point x="342.333" y="900.667" type="line" smooth="yes"/>
      <point x="357.667" y="918.333"/>
      <point x="370.333" y="929.333"/>
      <point x="398.667" y="929.333" type="curve" smooth="yes"/>
      <point x="432.333" y="929.333"/>
      <point x="448.333" y="908.333"/>
      <point x="448.333" y="881" type="curve" smooth="yes"/>
      <point x="448.333" y="863.333"/>
      <point x="437.333" y="849"/>
      <point x="423.667" y="841" type="curve" smooth="yes"/>
      <point x="269.333" y="747" type="line"/>
    </contour>
    <contour>
      <point x="409.667" y="746.333" type="line"/>
      <point x="544.667" y="900" type="line" smooth="yes"/>
      <point x="561.333" y="919"/>
      <point x="573.333" y="929.333"/>
      <point x="600.333" y="929.333" type="curve" smooth="yes"/>
      <point x="634" y="929.333"/>
      <point x="650" y="908.333"/>
      <point x="650" y="881.667" type="curve" smooth="yes"/>
      <point x="650" y="864"/>
      <point x="639.667" y="848.333"/>
      <point x="626" y="840.333" type="curve" smooth="yes"/>
      <point x="471" y="746.333" type="line"/>
    </contour>
  </outline>
</glyph>
<glyph name="Wcircumflex" format="2">
  <advance width="942"/>
  <unicode hex="0174"/>
  <outline>
    <contour>
      <point x="10" y="624.667" type="line"/>
      <point x="10" y="670.333" type="line"/>
      <point x="253.333" y="670.333" type="line"/>
      <point x="253.333" y="624.667" type="line"/>
      <point x="193.667" y="618.667" type="line" smooth="yes"/>
      <point x="183.667" y="617.667"/>
      <point x="181.333" y="608.333"/>
      <point x="184" y="599" type="curve" smooth="yes"/>
      <point x="298.667" y="166.333" type="line"/>
      <point x="450" y="671" type="line"/>
      <point x="537.333" y="671" type="line"/>
      <point x="693" y="152" type="line"/>
      <point x="800.333" y="599" type="line"/>
      <point x="802.333" y="609"/>
      <point x="797.667" y="618"/>
      <point x="786.333" y="619.333" type="curve" smooth="yes"/>
      <point x="723" y="625.333" type="line"/>
      <point x="723" y="671" type="line"/>
      <point x="932.667" y="671" type="line"/>
      <point x="932.667" y="625.333" type="line"/>
      <point x="871.667" y="614.667" type="line"/>
      <point x="717.333" y="-16.6667" type="line"/>
      <point x="637" y="-16.6667" type="line"/>
      <point x="473.667" y="526" type="line"/>
      <point x="313.333" y="-16.6667" type="line"/>
      <point x="233.333" y="-16.6667" type="line"/>
      <point x="69" y="614" type="line"/>
    </contour>
    <contour>
      <point x="317" y="746.333" type="line"/>
      <point x="438" y="916" type="line"/>
      <point x="528" y="916" type="line"/>
      <point x="649" y="746.333" type="line"/>
      <point x="581.333" y="746.333" type="line"/>
      <point x="483.667" y="844" type="line"/>
      <point x="385.333" y="746.333" type="line"/>
    </contour>
  </outline>
</glyph>
<glyph name="uni018C" format="2">
  <advance width="578"/>
  <unicode hex="018C"/>
  <outline>
    <contour>
      <point x="32.6667" y="230.333" type="curve" smooth="yes"/>
      <point x="32.6667" y="392.12"/>
      <point x="133.995" y="496.667"/>
      <point x="289.667" y="496.667" type="curve" smooth="yes"/>
      <point x="321.333" y="496.667"/>
      <point x="354.333" y="491.333"/>
      <point x="382.667" y="484.667" type="curve"/>
      <point x="382.667" y="669.333" type="line" smooth="yes"/>
      <point x="382.667" y="677.333"/>
      <point x="374" y="688.333"/>
      <point x="363.333" y="688.333" type="curve" smooth="yes"/>
      <point x="186.333" y="688.333" type="line" smooth="yes"/>
      <point x="177.667" y="688.333"/>
      <point x="170.347" y="680.899"/>
      <point x="169" y="671" type="curve" smooth="yes"/>
      <point x="155.333" y="580" type="line"/>
      <point x="94.6667" y="580" type="line"/>
      <point x="94.6667" y="738.667" type="line"/>
      <point x="489" y="738.667" type="line"/>
      <point x="489" y="67.6667" type="line" smooth="yes"/>
      <point x="489" y="55.6667"/>
      <point x="498.989" y="46.8457"/>
      <point x="510.333" y="46" type="curve" smooth="yes"/>
      <point x="553" y="43" type="line"/>
      <point x="553" y="1.33333" type="line"/>
      <point x="382.667" y="1.33333" type="line"/>
      <point x="382.667" y="56" type="line"/>
      <point x="342.637" y="23.1093"/>
      <point x="285.969" y="-11.3333"/>
      <point x="226" y="-11.3333" type="curve" smooth="yes"/>
      <point x="99.7385" y="-11.3333"/>
      <point x="32.6667" y="97.982"/>
    </contour>
    <contour>
      <point x="148" y="248.667" type="curve" smooth="yes"/>
      <point x="148" y="143.476"/>
      <point x="189.963" y="64.6667"/>
      <point x="288" y="64.6667" type="curve" smooth="yes"/>
      <point x="328" y="64.6667"/>
      <point x="359" y="79"/>
      <point x="382.667" y="94.3333" type="curve"/>
      <point x="382.667" y="428.667" type="line"/>
      <point x="360" y="437.667"/>
      <point x="330.333" y="444.667"/>
      <point x="302.333" y="444.667" type="curve" smooth="yes"/>
      <point x="196.975" y="444.667"/>
      <point x="148" y="357.315"/>
    </contour>
  </outline>
</glyph>
<glyph name="uni0190" format="2">
  <advance width="579"/>
  <unicode hex="0190"/>
  <outline>
    <contour>
      <point x="38.3333" y="189" type="curve" smooth="yes"/>
      <point x="38.3333" y="298.214"/>
      <point x="121.111" y="348.938"/>
      <point x="224.667" y="353" type="curve"/>
      <point x="147.395" y="375.649"/>
      <point x="78" y="418.936"/>
      <point x="78" y="514" type="curve" smooth="yes"/>
      <point x="78" y="636.92"/>
      <point x="178.074" y="685.667"/>
      <point x="308.667" y="685.667" type="curve" smooth="yes"/>
      <point x="433.186" y="685.667"/>
      <point x="527.333" y="650.902"/>
      <point x="527.333" y="556.667" type="curve" smooth="yes"/>
      <point x="527.333" y="516.333"/>
      <point x="497.333" y="494.333"/>
      <point x="462.333" y="494.333" type="curve" smooth="yes"/>
      <point x="447" y="494.333"/>
      <point x="425.238" y="500.762"/>
      <point x="415.333" y="508" type="curve"/>
      <point x="415.333" y="604.333" type="line"/>
      <point x="391.099" y="620.95"/>
      <point x="365.275" y="633.333"/>
      <point x="329" y="633.333" type="curve" smooth="yes"/>
      <point x="245.121" y="633.333"/>
      <point x="200.333" y="581.998"/>
      <point x="200.333" y="504" type="curve" smooth="yes"/>
      <point x="200.333" y="424"/>
      <point x="246" y="372.667"/>
      <point x="345" y="372.667" type="curve" smooth="yes"/>
      <point x="358.054" y="372.667"/>
      <point x="366.224" y="372.809"/>
      <point x="375.333" y="374" type="curve"/>
      <point x="375.333" y="314.667" type="line"/>
      <point x="364.883" y="316.255"/>
      <point x="336.555" y="317.333"/>
      <point x="317" y="317.333" type="curve" smooth="yes"/>
      <point x="221" y="317.333"/>
      <point x="162" y="274.667"/>
      <point x="162" y="183.333" type="curve" smooth="yes"/>
      <point x="162" y="98.1149"/>
      <point x="214.488" y="38"/>
      <point x="326.333" y="38" type="curve" smooth="yes"/>
      <point x="366" y="38"/>
      <point x="389" y="49"/>
      <point x="410" y="64.3333" type="curve"/>
      <point x="448.333" y="168.333" type="line"/>
      <point x="457.333" y="172"/>
      <point x="468.667" y="174"/>
      <point x="484" y="174" type="curve" smooth="yes"/>
      <point x="518" y="174"/>
      <point x="544.667" y="151.867"/>
      <point x="544.667" y="111.333" type="curve" smooth="yes"/>
      <point x="544.667" y="24.0973"/>
      <point x="420.026" y="-18"/>
      <point x="307.667" y="-18" type="curve" smooth="yes"/>
      <point x="140" y="-18"/>
      <point x="38.3333" y="48.3333"/>
    </contour>
  </outline>
</glyph>
<glyph name="uni0193" format="2">
  <advance width="701"/>
  <unicode hex="0193"/>
  <outline>
    <contour>
      <point x="38.3333" y="337" type="curve" smooth="yes"/>
      <point x="38.3333" y="554.407"/>
      <point x="182.557" y="687"/>
      <point x="397" y="687" type="curve" smooth="yes"/>
      <point x="442.52" y="687"/>
      <point x="480.226" y="683.333"/>
      <point x="519" y="673.667" type="curve"/>
      <point x="524.333" y="778.667"/>
      <point x="587" y="846.333"/>
      <point x="695" y="846.333" type="curve" smooth="yes"/>
      <point x="745.711" y="846.333"/>
      <point x="792" y="824.037"/>
      <point x="792" y="778" type="curve" smooth="yes"/>
      <point x="792" y="745"/>
      <point x="771.333" y="723"/>
      <point x="747" y="714.333" type="curve"/>
      <point x="651.333" y="792.667" type="line"/>
      <point x="619.333" y="781.667"/>
      <point x="606" y="751"/>
      <point x="606" y="701.333" type="curve" smooth="yes"/>
      <point x="606" y="485.333" type="line"/>
      <point x="540" y="485.333" type="line"/>
      <point x="522.333" y="582.333" type="line" smooth="yes"/>
      <point x="520.009" y="595.533"/>
      <point x="507.441" y="604.445"/>
      <point x="495" y="609.667" type="curve" smooth="yes"/>
      <point x="473.393" y="619.046"/>
      <point x="439.667" y="627"/>
      <point x="412" y="627" type="curve" smooth="yes"/>
      <point x="241.301" y="627"/>
      <point x="166" y="502.02"/>
      <point x="166" y="341" type="curve" smooth="yes"/>
      <point x="166" y="166.285"/>
      <point x="250.947" y="45.6667"/>
      <point x="418.667" y="45.6667" type="curve" smooth="yes"/>
      <point x="443.749" y="45.6667"/>
      <point x="471.333" y="50.6667"/>
      <point x="491.667" y="57" type="curve"/>
      <point x="491.667" y="254.667" type="line" smooth="yes"/>
      <point x="491.667" y="267.667"/>
      <point x="482.668" y="275.02"/>
      <point x="470" y="276" type="curve" smooth="yes"/>
      <point x="403" y="281" type="line"/>
      <point x="403" y="326.667" type="line"/>
      <point x="677.667" y="326.667" type="line"/>
      <point x="677.667" y="281" type="line"/>
      <point x="626.667" y="276" type="line" smooth="yes"/>
      <point x="614.018" y="274.819"/>
      <point x="605" y="267.667"/>
      <point x="605" y="254.667" type="curve" smooth="yes"/>
      <point x="605" y="26.3333" type="line"/>
      <point x="565.667" y="11.6667"/>
      <point x="487" y="-16"/>
      <point x="387.667" y="-16" type="curve" smooth="yes"/>
      <point x="179.585" y="-16"/>
      <point x="38.3333" y="125.589"/>
    </contour>
  </outline>
</glyph>
<glyph name="uni0194" format="2">
  <advance width="676"/>
  <unicode hex="0194"/>
  <outline>
    <contour>
      <point x="10.6667" y="628.667" type="line"/>
      <point x="10.6667" y="671.667" type="line"/>
      <point x="281.667" y="671.667" type="line"/>
      <point x="281.667" y="628.667" type="line"/>
      <point x="225.667" y="624.333" type="line" smooth="yes"/>
      <point x="215.322" y="623.607"/>
      <point x="209.661" y="618.535"/>
      <point x="209.661" y="612" type="curve" smooth="yes"/>
      <point x="209.661" y="609.767"/>
      <point x="210.561" y="607.469"/>
      <point x="211.667" y="605" type="curve"/>
      <point x="357.667" y="332" type="line"/>
      <point x="521.333" y="605.333" type="line"/>
      <point x="522.773" y="607.947"/>
      <point x="523.82" y="610.693"/>
      <point x="523.82" y="613.333" type="curve" smooth="yes"/>
      <point x="523.82" y="618.962"/>
      <point x="519.309" y="623.357"/>
      <point x="509.333" y="624.333" type="curve" smooth="yes"/>
      <point x="452.667" y="628.667" type="line"/>
      <point x="452.667" y="671.667" type="line"/>
      <point x="667.333" y="671.667" type="line"/>
      <point x="667.333" y="628.667" type="line"/>
      <point x="601" y="622" type="line"/>
      <point x="393.333" y="265" type="line"/>
      <point x="462.667" y="134.667" type="line" smooth="yes"/>
      <point x="471.221" y="119.275"/>
      <point x="476.333" y="106.333"/>
      <point x="476.333" y="87.3333" type="curve" smooth="yes"/>
      <point x="476.333" y="22.9751"/>
      <point x="418.439" y="-15.3333"/>
      <point x="345" y="-15.3333" type="curve" smooth="yes"/>
      <point x="272" y="-15.3333"/>
      <point x="219" y="12"/>
      <point x="219" y="73" type="curve" smooth="yes"/>
      <point x="219" y="91.6667"/>
      <point x="224.226" y="109.727"/>
      <point x="232.333" y="123" type="curve" smooth="yes"/>
      <point x="291.333" y="222" type="line"/>
      <point x="79.3333" y="622.333" type="line"/>
    </contour>
    <contour>
      <point x="288.667" y="78.3333" type="curve" smooth="yes"/>
      <point x="288.667" y="56.6667"/>
      <point x="305.667" y="42.6667"/>
      <point x="327.667" y="42.6667" type="curve" smooth="yes"/>
      <point x="348.403" y="42.6667"/>
      <point x="362.333" y="56.9333"/>
      <point x="362.333" y="78.3333" type="curve" smooth="yes"/>
      <point x="362.333" y="86.2444"/>
      <point x="359.535" y="93.0668"/>
      <point x="355" y="101.667" type="curve" smooth="yes"/>
      <point x="327.333" y="154.333" type="line"/>
      <point x="295.333" y="101.667" type="line" smooth="yes"/>
      <point x="290.421" y="93.6787"/>
      <point x="288.667" y="85.6667"/>
    </contour>
  </outline>
</glyph>
<glyph name="uni0195" format="2">
  <advance width="887"/>
  <unicode hex="0195"/>
  <outline>
    <contour>
      <point x="15.6667" y="660.333" type="line"/>
      <point x="15.6667" y="696" type="line"/>
      <point x="152" y="738.667" type="line"/>
      <point x="196" y="738.667" type="line"/>
      <point x="196" y="434.667" type="line"/>
      <point x="257.278" y="475.186"/>
      <point x="315.241" y="496"/>
      <point x="365" y="496" type="curve" smooth="yes"/>
      <point x="450.32" y="496"/>
      <point x="501.333" y="438.605"/>
      <point x="501.333" y="343" type="curve" smooth="yes"/>
      <point x="501.333" y="158.333" type="line" smooth="yes"/>
      <point x="501.333" y="88.729"/>
      <point x="536.788" y="52.6667"/>
      <point x="603.333" y="52.6667" type="curve" smooth="yes"/>
      <point x="661.58" y="52.6667"/>
      <point x="694" y="89.1943"/>
      <point x="694" y="156.333" type="curve" smooth="yes"/>
      <point x="694" y="418.333" type="line"/>
      <point x="626.333" y="418.333" type="line"/>
      <point x="626.333" y="454.667" type="line"/>
      <point x="756.333" y="497.333" type="line"/>
      <point x="800.667" y="497.333" type="line"/>
      <point x="800.667" y="163.333" type="line" smooth="yes"/>
      <point x="800.667" y="58.1748"/>
      <point x="716.646" y="-12.6667"/>
      <point x="593.333" y="-12.6667" type="curve" smooth="yes"/>
      <point x="468.941" y="-12.6667"/>
      <point x="394" y="51.5742"/>
      <point x="394" y="158.667" type="curve" smooth="yes"/>
      <point x="394" y="318.333" type="line" smooth="yes"/>
      <point x="394" y="383"/>
      <point x="361.667" y="417.333"/>
      <point x="300" y="417.333" type="curve" smooth="yes"/>
      <point x="265.287" y="417.333"/>
      <point x="229.016" y="409.032"/>
      <point x="196" y="393.667" type="curve"/>
      <point x="196" y="67.6667" type="line" smooth="yes"/>
      <point x="196" y="55.6667"/>
      <point x="205.323" y="46.8457"/>
      <point x="216.667" y="46" type="curve" smooth="yes"/>
      <point x="257" y="43" type="line"/>
      <point x="257" y="1.33333" type="line"/>
      <point x="22.3333" y="1.33333" type="line"/>
      <point x="22.3333" y="43" type="line"/>
      <point x="68" y="46" type="line" smooth="yes"/>
      <point x="79.3463" y="46.7925"/>
      <point x="89.3333" y="55.6667"/>
      <point x="89.3333" y="67.6667" type="curve" smooth="yes"/>
      <point x="89.3333" y="660.333" type="line"/>
    </contour>
  </outline>
</glyph>
<glyph name="uni019F" format="2">
  <advance width="733"/>
  <unicode hex="019F"/>
  <outline>
    <contour>
      <point x="37" y="334.667" type="curve" smooth="yes"/>
      <point x="37" y="533.76"/>
      <point x="167.1" y="679.667"/>
      <point x="370.333" y="679.667" type="curve" smooth="yes"/>
      <point x="566.66" y="679.667"/>
      <point x="696" y="525.625"/>
      <point x="696" y="333.333" type="curve" smooth="yes"/>
      <point x="696" y="134.954"/>
      <point x="568.996" y="-16.6667"/>
      <point x="368" y="-16.6667" type="curve" smooth="yes"/>
      <point x="169.872" y="-16.6667"/>
      <point x="37" y="126.141"/>
    </contour>
    <contour>
      <point x="108.333" y="282.333" type="line"/>
      <point x="108.333" y="380.333" type="line"/>
      <point x="627.667" y="380.333" type="line"/>
      <point x="627.667" y="282.333" type="line"/>
    </contour>
    <contour>
      <point x="164.333" y="336.333" type="curve" smooth="yes"/>
      <point x="164.333" y="181.383"/>
      <point x="217.487" y="28.3333"/>
      <point x="363.333" y="28.3333" type="curve" smooth="yes"/>
      <point x="512.459" y="28.3333"/>
      <point x="569" y="172.219"/>
      <point x="569" y="323.333" type="curve" smooth="yes"/>
      <point x="569" y="490.089"/>
      <point x="517.257" y="634.667"/>
      <point x="366" y="634.667" type="curve" smooth="yes"/>
      <point x="215.591" y="634.667"/>
      <point x="164.333" y="487.503"/>
    </contour>
  </outline>
</glyph>
<glyph name="uni01A6" format="2">
  <advance width="627"/>
  <unicode hex="01A6"/>
  <outline>
    <contour>
      <point x="27.6667" y="-0.666667" type="line"/>
      <point x="27.6667" y="45" type="line"/>
      <point x="88.3333" y="49.3333" type="line" smooth="yes"/>
      <point x="100.333" y="50.3333"/>
      <point x="109.667" y="58.6667"/>
      <point x="109.667" y="71.3333" type="curve" smooth="yes"/>
      <point x="109.667" y="597.333" type="line" smooth="yes"/>
      <point x="109.667" y="611.667"/>
      <point x="100.333" y="619"/>
      <point x="87.3333" y="620" type="curve" smooth="yes"/>
      <point x="27.6667" y="624" type="line"/>
      <point x="27.6667" y="670.333" type="line"/>
      <point x="307.667" y="670.333" type="line"/>
      <point x="307.667" y="624" type="line"/>
      <point x="246.333" y="619.667" type="line" smooth="yes"/>
      <point x="234.667" y="618.667"/>
      <point x="225.333" y="611.333"/>
      <point x="224.667" y="598.333" type="curve"/>
      <point x="224.667" y="574.333" type="line"/>
      <point x="282" y="574.333" type="line" smooth="yes"/>
      <point x="418.667" y="574.333"/>
      <point x="530.333" y="557"/>
      <point x="530.333" y="437.667" type="curve" smooth="yes"/>
      <point x="530.333" y="346.751"/>
      <point x="465.869" y="294.333"/>
      <point x="373.333" y="288.333" type="curve"/>
      <point x="431" y="273"/>
      <point x="464" y="223.333"/>
      <point x="492" y="165" type="curve" smooth="yes"/>
      <point x="499.328" y="149.639"/>
      <point x="506.008" y="133.405"/>
      <point x="512.712" y="116.776" type="curve" smooth="yes"/>
      <point x="531.888" y="69.4263"/>
      <point x="548.591" y="30.9151"/>
      <point x="574" y="5.66667" type="curve" smooth="yes"/>
      <point x="586.333" y="-7"/>
      <point x="600.333" y="-13"/>
      <point x="616.667" y="-13" type="curve" smooth="yes"/>
      <point x="629.353" y="-13"/>
      <point x="641.501" y="-12.4999"/>
      <point x="649.667" y="-11" type="curve"/>
      <point x="649.667" y="-58" type="line"/>
      <point x="626.594" y="-67.3515"/>
      <point x="603.497" y="-73.3333"/>
      <point x="572" y="-73.3333" type="curve" smooth="yes"/>
      <point x="523" y="-73.3333"/>
      <point x="488.333" y="-52.3333"/>
      <point x="464.333" y="-22" type="curve" smooth="yes"/>
      <point x="438.861" y="9.95093"/>
      <point x="419.209" y="49.5547"/>
      <point x="403.225" y="89.5541" type="curve" smooth="yes"/>
      <point x="386.448" y="131.16"/>
      <point x="370.631" y="165.524"/>
      <point x="352.667" y="195.333" type="curve" smooth="yes"/>
      <point x="326.722" y="237.961"/>
      <point x="289.908" y="281.333"/>
      <point x="238" y="281.333" type="curve" smooth="yes"/>
      <point x="224.667" y="281.333" type="line"/>
      <point x="224.667" y="71" type="line" smooth="yes"/>
      <point x="224.667" y="60.3333"/>
      <point x="234" y="50.3333"/>
      <point x="246.333" y="49.3333" type="curve" smooth="yes"/>
      <point x="307.667" y="45" type="line"/>
      <point x="307.667" y="-0.666667" type="line"/>
    </contour>
    <contour>
      <point x="224.667" y="336.667" type="line"/>
      <point x="238.729" y="335"/>
      <point x="255.088" y="334.667"/>
      <point x="276.333" y="334.667" type="curve" smooth="yes"/>
      <point x="347.667" y="334.667"/>
      <point x="404.667" y="365.667"/>
      <point x="404.667" y="435.333" type="curve" smooth="yes"/>
      <point x="404.667" y="504.667"/>
      <point x="342.667" y="522.333"/>
      <point x="264.667" y="522.333" type="curve" smooth="yes"/>
      <point x="224.667" y="522.333" type="line"/>
    </contour>
  </outline>
</glyph>
<glyph name="uni01A7" format="2">
  <advance width="529"/>
  <unicode hex="01A7"/>
  <outline>
    <contour>
      <point x="40" y="164.333" type="curve" smooth="yes"/>
      <point x="40" y="247.446"/>
      <point x="84.304" y="307.009"/>
      <point x="188.667" y="362" type="curve" smooth="yes"/>
      <point x="291" y="415.667" type="line" smooth="yes"/>
      <point x="347.904" y="445.579"/>
      <point x="377" y="484.117"/>
      <point x="377" y="529.667" type="curve" smooth="yes"/>
      <point x="377" y="589.776"/>
      <point x="330.913" y="626.667"/>
      <point x="255.667" y="626.667" type="curve" smooth="yes"/>
      <point x="225" y="626.667"/>
      <point x="201" y="622.667"/>
      <point x="185.667" y="614.667" type="curve" smooth="yes"/>
      <point x="171.667" y="607.667"/>
      <point x="163.653" y="599.336"/>
      <point x="162" y="590.667" type="curve" smooth="yes"/>
      <point x="142.333" y="491" type="line"/>
      <point x="78.6667" y="491" type="line"/>
      <point x="84.6667" y="649.667" type="line"/>
      <point x="136.333" y="672"/>
      <point x="194.667" y="685.667"/>
      <point x="266" y="685.667" type="curve" smooth="yes"/>
      <point x="410.005" y="685.667"/>
      <point x="492.333" y="624.643"/>
      <point x="492.333" y="518" type="curve" smooth="yes"/>
      <point x="492.333" y="434.623"/>
      <point x="449.629" y="373.208"/>
      <point x="355.333" y="323.333" type="curve"/>
      <point x="225" y="252.333" type="line" smooth="yes"/>
      <point x="178.333" y="227.513"/>
      <point x="157" y="195.965"/>
      <point x="157" y="152.333" type="curve" smooth="yes"/>
      <point x="157" y="81"/>
      <point x="217.667" y="42.6667"/>
      <point x="294" y="42.6667" type="curve" smooth="yes"/>
      <point x="326.667" y="42.6667"/>
      <point x="359.491" y="50.2838"/>
      <point x="381.667" y="60.3333" type="curve" smooth="yes"/>
      <point x="392.333" y="65"/>
      <point x="402.264" y="72.0104"/>
      <point x="404" y="84" type="curve" smooth="yes"/>
      <point x="422" y="199.667" type="line"/>
      <point x="490.333" y="199.667" type="line"/>
      <point x="484.333" y="20.6667" type="line"/>
      <point x="437.333" y="-2"/>
      <point x="372" y="-16.6667"/>
      <point x="299.667" y="-16.6667" type="curve" smooth="yes"/>
      <point x="149.025" y="-16.6667"/>
      <point x="40" y="35.4144"/>
    </contour>
  </outline>
</glyph>
<glyph name="uni01A9" format="2">
  <advance width="583"/>
  <unicode hex="01A9"/>
  <outline>
    <contour>
      <point x="38.3333" y="0" type="line"/>
      <point x="38.3333" y="49" type="line"/>
      <point x="245.333" y="348.333" type="line"/>
      <point x="58.3333" y="620.667" type="line"/>
      <point x="58.3333" y="671" type="line"/>
      <point x="529" y="671" type="line"/>
      <point x="529" y="503.667" type="line"/>
      <point x="465" y="503.667" type="line"/>
      <point x="449.333" y="602" type="line"/>
      <point x="447.667" y="610"/>
      <point x="442.667" y="617.333"/>
      <point x="433.333" y="617.333" type="curve" smooth="yes"/>
      <point x="194" y="617.333" type="line"/>
      <point x="375.667" y="348.333" type="line"/>
      <point x="169.333" y="54.6667" type="line"/>
      <point x="447" y="54.6667" type="line" smooth="yes"/>
      <point x="456.667" y="54.6667"/>
      <point x="461.667" y="62.6667"/>
      <point x="463.667" y="70.3333" type="curve"/>
      <point x="481.667" y="189" type="line"/>
      <point x="545.333" y="189" type="line"/>
      <point x="545.333" y="0" type="line"/>
    </contour>
  </outline>
</glyph>
<glyph name="uni01B3" format="2">
  <advance width="697"/>
  <unicode hex="01B3"/>
  <outline>
    <contour>
      <point x="-24.3333" y="567.667" type="curve" smooth="yes"/>
      <point x="-24.3333" y="640.333"/>
      <point x="32" y="686.333"/>
      <point x="126.333" y="686.333" type="curve" smooth="yes"/>
      <point x="200.632" y="686.333"/>
      <point x="237.649" y="661.074"/>
      <point x="264.333" y="604.333" type="curve" smooth="yes"/>
      <point x="384.667" y="351.333" type="line"/>
      <point x="512.667" y="597.333" type="line"/>
      <point x="514.525" y="600.641"/>
      <point x="515.167" y="603.877"/>
      <point x="515.167" y="606.667" type="curve" smooth="yes"/>
      <point x="515.167" y="613.773"/>
      <point x="509.15" y="618.815"/>
      <point x="503.333" y="619.333" type="curve" smooth="yes"/>
      <point x="445.667" y="625.333" type="line"/>
      <point x="445.667" y="671" type="line"/>
      <point x="654.667" y="671" type="line"/>
      <point x="654.667" y="625.333" type="line"/>
      <point x="599.333" y="615.667" type="line"/>
      <point x="422.667" y="286.667" type="line"/>
      <point x="422.667" y="72" type="line" smooth="yes"/>
      <point x="422.667" y="60.3333"/>
      <point x="432.987" y="50.7925"/>
      <point x="444" y="50" type="curve" smooth="yes"/>
      <point x="507" y="45.6667" type="line"/>
      <point x="507" y="0" type="line"/>
      <point x="223.667" y="0" type="line"/>
      <point x="223.667" y="45.6667" type="line"/>
      <point x="285.333" y="50" type="line" smooth="yes"/>
      <point x="297.343" y="50.8501"/>
      <point x="307.667" y="59.6667"/>
      <point x="307.667" y="72" type="curve" smooth="yes"/>
      <point x="307.667" y="267.333" type="line"/>
      <point x="144.333" y="596" type="line" smooth="yes"/>
      <point x="135.077" y="614.847"/>
      <point x="123.903" y="625.333"/>
      <point x="108" y="625.333" type="curve" smooth="yes"/>
      <point x="83" y="625.333"/>
      <point x="72" y="618.667"/>
      <point x="60.6667" y="601.667" type="curve"/>
      <point x="102.333" y="530.667" type="line"/>
      <point x="83.3333" y="510.333"/>
      <point x="68" y="500.333"/>
      <point x="35.6667" y="500.333" type="curve" smooth="yes"/>
      <point x="-1.77937" y="500.333"/>
      <point x="-24.3333" y="532"/>
    </contour>
  </outline>
</glyph>
<glyph name="uni01B9" format="2">
  <advance width="539"/>
  <unicode hex="01B9"/>
  <outline>
    <contour>
      <point x="31.3333" y="-10.3333" type="curve" smooth="yes"/>
      <point x="31.3333" y="101.877"/>
      <point x="132.187" y="198.333"/>
      <point x="249.333" y="198.333" type="curve"/>
      <point x="59.3333" y="423.333" type="line"/>
      <point x="59.3333" y="483.333" type="line"/>
      <point x="476" y="483.333" type="line"/>
      <point x="476" y="286.667" type="line"/>
      <point x="417.667" y="286.667" type="line"/>
      <point x="408.667" y="367" type="line"/>
      <point x="407.82" y="377.953"/>
      <point x="398.381" y="388"/>
      <point x="389.333" y="388" type="curve" smooth="yes"/>
      <point x="165" y="388" type="line"/>
      <point x="349" y="173.333" type="line"/>
      <point x="322" y="146" type="line"/>
      <point x="312.11" y="153.1"/>
      <point x="300.727" y="156"/>
      <point x="283.667" y="156" type="curve" smooth="yes"/>
      <point x="207.577" y="156"/>
      <point x="149.667" y="88.9644"/>
      <point x="149.667" y="-0.333333" type="curve" smooth="yes"/>
      <point x="149.667" y="-96.3787"/>
      <point x="215.419" y="-177.667"/>
      <point x="294" y="-177.667" type="curve" smooth="yes"/>
      <point x="322.24" y="-177.667"/>
      <point x="353.487" y="-168.987"/>
      <point x="381.667" y="-153.333" type="curve"/>
      <point x="413.333" y="-54" type="line"/>
      <point x="422.238" y="-48.7301"/>
      <point x="438.167" y="-44.6667"/>
      <point x="449.667" y="-44.6667" type="curve" smooth="yes"/>
      <point x="487.865" y="-44.6667"/>
      <point x="514" y="-70.1945"/>
      <point x="514" y="-107.667" type="curve" smooth="yes"/>
      <point x="514" y="-174.786"/>
      <point x="417.655" y="-229.667"/>
      <point x="299" y="-229.667" type="curve" smooth="yes"/>
      <point x="146.707" y="-229.667"/>
      <point x="31.3333" y="-135.006"/>
    </contour>
  </outline>
</glyph>
<glyph name="uni01BC" format="2">
  <advance width="565"/>
  <unicode hex="01BC"/>
  <outline>
    <contour>
      <point x="21.3333" y="625.333" type="line"/>
      <point x="21.3333" y="671" type="line"/>
      <point x="494.333" y="671" type="line"/>
      <point x="494.333" y="512.333" type="line"/>
      <point x="433.667" y="512.333" type="line"/>
      <point x="421.667" y="600.667" type="line" smooth="yes"/>
      <point x="420.389" y="611.086"/>
      <point x="411.101" y="620.667"/>
      <point x="402.333" y="620.667" type="curve" smooth="yes"/>
      <point x="227.667" y="620.667" type="line" smooth="yes"/>
      <point x="216.602" y="620.667"/>
      <point x="205.667" y="610.077"/>
      <point x="205.667" y="599.667" type="curve" smooth="yes"/>
      <point x="205.667" y="462.333" type="line"/>
      <point x="390.622" y="462.333"/>
      <point x="525" y="360.916"/>
      <point x="525" y="221.333" type="curve" smooth="yes"/>
      <point x="525" y="76.1871"/>
      <point x="416.033" y="-13.3333"/>
      <point x="239.667" y="-13.3333" type="curve" smooth="yes"/>
      <point x="125.915" y="-13.3333"/>
      <point x="41.6667" y="36.6109"/>
      <point x="41.6667" y="104" type="curve" smooth="yes"/>
      <point x="41.6667" y="139.471"/>
      <point x="67.807" y="164.667"/>
      <point x="104.333" y="164.667" type="curve" smooth="yes"/>
      <point x="113.733" y="164.667"/>
      <point x="132.797" y="161.094"/>
      <point x="141" y="158" type="curve"/>
      <point x="176" y="60.6667" type="line"/>
      <point x="191.127" y="48.5403"/>
      <point x="226.188" y="38.3333"/>
      <point x="256.333" y="38.3333" type="curve" smooth="yes"/>
      <point x="343.519" y="38.3333"/>
      <point x="409.333" y="106.042"/>
      <point x="409.333" y="196" type="curve" smooth="yes"/>
      <point x="409.333" y="309.061"/>
      <point x="287.293" y="382"/>
      <point x="98" y="382" type="curve"/>
      <point x="98" y="600.667" type="line" smooth="yes"/>
      <point x="98" y="610.553"/>
      <point x="88.4721" y="619.769"/>
      <point x="77" y="621" type="curve"/>
    </contour>
  </outline>
</glyph>
<glyph name="uni01D4" format="2">
  <advance width="585"/>
  <unicode hex="01D4"/>
  <outline>
    <contour>
      <point x="21.6667" y="404.667" type="line"/>
      <point x="21.6667" y="441" type="line"/>
      <point x="152.667" y="484" type="line"/>
      <point x="196.667" y="484" type="line"/>
      <point x="196.667" y="176" type="line" smooth="yes"/>
      <point x="196.667" y="112.333"/>
      <point x="216.333" y="63.6667"/>
      <point x="292" y="63.6667" type="curve" smooth="yes"/>
      <point x="335.333" y="63.6667"/>
      <point x="370.667" y="78"/>
      <point x="391.333" y="88" type="curve"/>
      <point x="391.333" y="404.667" type="line"/>
      <point x="323.667" y="404.667" type="line"/>
      <point x="323.667" y="441" type="line"/>
      <point x="453.667" y="484" type="line"/>
      <point x="498" y="484" type="line"/>
      <point x="498" y="67" type="line" smooth="yes"/>
      <point x="498" y="55"/>
      <point x="509" y="46.3333"/>
      <point x="520.333" y="45.3333" type="curve" smooth="yes"/>
      <point x="564.333" y="41.6667" type="line"/>
      <point x="564.333" y="0" type="line"/>
      <point x="391.333" y="0" type="line"/>
      <point x="391.333" y="55.6667" type="line"/>
      <point x="366" y="36.3333"/>
      <point x="299.667" y="-12"/>
      <point x="231.333" y="-12" type="curve" smooth="yes"/>
      <point x="128" y="-12"/>
      <point x="90" y="49.6667"/>
      <point x="90" y="150.333" type="curve" smooth="yes"/>
      <point x="90" y="404.667" type="line"/>
    </contour>
    <contour>
      <point x="117" y="726.333" type="line"/>
      <point x="185.333" y="726.333" type="line"/>
      <point x="283.667" y="629" type="line"/>
      <point x="381.333" y="726.333" type="line"/>
      <point x="449" y="726.333" type="line"/>
      <point x="328" y="556.667" type="line"/>
      <point x="238" y="556.667" type="line"/>
    </contour>
  </outline>
</glyph>
<glyph name="uni01DA" format="2">
  <advance width="585"/>
  <unicode hex="01DA"/>
  <outline>
    <contour>
      <point x="126.333" y="616.333" type="curve" smooth="yes"/>
      <point x="126.333" y="649.667"/>
      <point x="152.667" y="676.667"/>
      <point x="186" y="676.667" type="curve" smooth="yes"/>
      <point x="219.333" y="676.667"/>
      <point x="245" y="649.667"/>
      <point x="245" y="617" type="curve" smooth="yes"/>
      <point x="245" y="583.667"/>
      <point x="219.333" y="556.667"/>
      <point x="186" y="556.667" type="curve" smooth="yes"/>
      <point x="152.667" y="556.667"/>
      <point x="126.333" y="583"/>
    </contour>
    <contour>
      <point x="334.333" y="617" type="curve" smooth="yes"/>
      <point x="334.333" y="649.667"/>
      <point x="362" y="676.667"/>
      <point x="394.667" y="676.667" type="curve" smooth="yes"/>
      <point x="427.333" y="676.667"/>
      <point x="453" y="650.333"/>
      <point x="453" y="617" type="curve" smooth="yes"/>
      <point x="453" y="583.667"/>
      <point x="428" y="556.667"/>
      <point x="394.667" y="556.667" type="curve" smooth="yes"/>
      <point x="360.667" y="556.667"/>
      <point x="334.333" y="583"/>
    </contour>
    <contour>
      <point x="21.6667" y="404.667" type="line"/>
      <point x="21.6667" y="441" type="line"/>
      <point x="152.667" y="484" type="line"/>
      <point x="196.667" y="484" type="line"/>
      <point x="196.667" y="176" type="line" smooth="yes"/>
      <point x="196.667" y="112.333"/>
      <point x="216.333" y="63.6667"/>
      <point x="292" y="63.6667" type="curve" smooth="yes"/>
      <point x="335.333" y="63.6667"/>
      <point x="370.667" y="78"/>
      <point x="391.333" y="88" type="curve"/>
      <point x="391.333" y="404.667" type="line"/>
      <point x="323.667" y="404.667" type="line"/>
      <point x="323.667" y="441" type="line"/>
      <point x="453.667" y="484" type="line"/>
      <point x="498" y="484" type="line"/>
      <point x="498" y="67" type="line" smooth="yes"/>
      <point x="498" y="55"/>
      <point x="509" y="46.3333"/>
      <point x="520.333" y="45.3333" type="curve" smooth="yes"/>
      <point x="564.333" y="41.6667" type="line"/>
      <point x="564.333" y="0" type="line"/>
      <point x="391.333" y="0" type="line"/>
      <point x="391.333" y="55.6667" type="line"/>
      <point x="366" y="36.3333"/>
      <point x="299.667" y="-12"/>
      <point x="231.333" y="-12" type="curve" smooth="yes"/>
      <point x="128" y="-12"/>
      <point x="90" y="49.6667"/>
      <point x="90" y="150.333" type="curve" smooth="yes"/>
      <point x="90" y="404.667" type="line"/>
    </contour>
    <contour>
      <point x="124.333" y="906.333" type="line"/>
      <point x="192.667" y="906.333" type="line"/>
      <point x="291" y="809" type="line"/>
      <point x="388.667" y="906.333" type="line"/>
      <point x="456.333" y="906.333" type="line"/>
      <point x="335.333" y="736.667" type="line"/>
      <point x="245.333" y="736.667" type="line"/>
    </contour>
  </outline>
</glyph>
<glyph name="uni01DE" format="2">
  <advance width="677"/>
  <unicode hex="01DE"/>
  <outline>
    <contour>
      <point x="173.333" y="807.333" type="curve" smooth="yes"/>
      <point x="173.333" y="840.667"/>
      <point x="199.667" y="867.667"/>
      <point x="233" y="867.667" type="curve" smooth="yes"/>
      <point x="266.333" y="867.667"/>
      <point x="292" y="840.667"/>
      <point x="292" y="808" type="curve" smooth="yes"/>
      <point x="292" y="774.667"/>
      <point x="266.333" y="747.667"/>
      <point x="233" y="747.667" type="curve" smooth="yes"/>
      <point x="199.667" y="747.667"/>
      <point x="173.333" y="774"/>
    </contour>
    <contour>
      <point x="381.333" y="808" type="curve" smooth="yes"/>
      <point x="381.333" y="840.667"/>
      <point x="409" y="867.667"/>
      <point x="441.667" y="867.667" type="curve" smooth="yes"/>
      <point x="474.333" y="867.667"/>
      <point x="500" y="841.333"/>
      <point x="500" y="808" type="curve" smooth="yes"/>
      <point x="500" y="774.667"/>
      <point x="475" y="747.667"/>
      <point x="441.667" y="747.667" type="curve" smooth="yes"/>
      <point x="407.667" y="747.667"/>
      <point x="381.333" y="774"/>
    </contour>
    <contour>
      <point x="5" y="0" type="line"/>
      <point x="5" y="45.6667" type="line"/>
      <point x="62.3333" y="57" type="line"/>
      <point x="292.333" y="687.667" type="line"/>
      <point x="380.333" y="687.667" type="line"/>
      <point x="609" y="73" type="line" smooth="yes"/>
      <point x="614.154" y="59.7246"/>
      <point x="617.036" y="55.8679"/>
      <point x="630.333" y="53.3333" type="curve" smooth="yes"/>
      <point x="673" y="45.6667" type="line"/>
      <point x="673" y="0" type="line"/>
      <point x="422.333" y="0" type="line"/>
      <point x="422.333" y="45.6667" type="line"/>
      <point x="480.667" y="52" type="line" smooth="yes"/>
      <point x="487.475" y="52.8653"/>
      <point x="491.333" y="57.7617"/>
      <point x="491.333" y="64.3333" type="curve"/>
      <point x="491.333" y="65.778"/>
      <point x="490.733" y="67.8991"/>
      <point x="490.333" y="69" type="curve"/>
      <point x="426.333" y="244" type="line"/>
      <point x="201" y="244" type="line"/>
      <point x="138.667" y="72.3333" type="line"/>
      <point x="138.316" y="71.3654"/>
      <point x="137.667" y="68.6667"/>
      <point x="137.667" y="67" type="curve"/>
      <point x="137.667" y="58.2943"/>
      <point x="144.673" y="52.9427"/>
      <point x="152.667" y="52" type="curve" smooth="yes"/>
      <point x="210.667" y="45.6667" type="line"/>
      <point x="210.667" y="0" type="line"/>
    </contour>
    <contour>
      <point x="169" y="927.667" type="line"/>
      <point x="169" y="996.667" type="line"/>
      <point x="505.667" y="996.667" type="line"/>
      <point x="505.667" y="927.667" type="line"/>
    </contour>
    <contour>
      <point x="219.333" y="295" type="line"/>
      <point x="406" y="295" type="line"/>
      <point x="312" y="549.667" type="line"/>
    </contour>
  </outline>
</glyph>
<glyph name="uni01DF" format="2">
  <advance width="523"/>
  <unicode hex="01DF"/>
  <outline>
    <contour>
      <point x="105" y="616.333" type="curve" smooth="yes"/>
      <point x="105" y="649.667"/>
      <point x="131.333" y="676.667"/>
      <point x="164.667" y="676.667" type="curve" smooth="yes"/>
      <point x="198" y="676.667"/>
      <point x="223.667" y="649.667"/>
      <point x="223.667" y="617" type="curve" smooth="yes"/>
      <point x="223.667" y="583.667"/>
      <point x="198" y="556.667"/>
      <point x="164.667" y="556.667" type="curve" smooth="yes"/>
      <point x="131.333" y="556.667"/>
      <point x="105" y="583"/>
    </contour>
    <contour>
      <point x="313" y="617" type="curve" smooth="yes"/>
      <point x="313" y="649.667"/>
      <point x="340.667" y="676.667"/>
      <point x="373.333" y="676.667" type="curve" smooth="yes"/>
      <point x="406" y="676.667"/>
      <point x="431.667" y="650.333"/>
      <point x="431.667" y="617" type="curve" smooth="yes"/>
      <point x="431.667" y="583.667"/>
      <point x="406.667" y="556.667"/>
      <point x="373.333" y="556.667" type="curve" smooth="yes"/>
      <point x="339.333" y="556.667"/>
      <point x="313" y="583"/>
    </contour>
    <contour>
      <point x="32.6667" y="119.667" type="curve" smooth="yes"/>
      <point x="32.6667" y="226.333"/>
      <point x="164" y="269"/>
      <point x="332.333" y="306" type="curve"/>
      <point x="332.333" y="347.667" type="line" smooth="yes"/>
      <point x="332.333" y="405"/>
      <point x="309.667" y="446"/>
      <point x="239.667" y="446" type="curve" smooth="yes"/>
      <point x="212.667" y="446"/>
      <point x="190" y="440.333"/>
      <point x="178" y="434.667" type="curve"/>
      <point x="178" y="345" type="line"/>
      <point x="93.3333" y="345" type="line" smooth="yes"/>
      <point x="75" y="345"/>
      <point x="55.3333" y="350"/>
      <point x="55.3333" y="376.333" type="curve" smooth="yes"/>
      <point x="55.3333" y="457"/>
      <point x="173" y="496.667"/>
      <point x="268.333" y="496.667" type="curve" smooth="yes"/>
      <point x="377.333" y="496.667"/>
      <point x="438" y="456.667"/>
      <point x="438" y="338.667" type="curve" smooth="yes"/>
      <point x="438" y="66.3333" type="line" smooth="yes"/>
      <point x="438" y="54.3333"/>
      <point x="448" y="45.6667"/>
      <point x="459.333" y="44.6667" type="curve" smooth="yes"/>
      <point x="506" y="41.6667" type="line"/>
      <point x="506" y="0" type="line"/>
      <point x="345.333" y="0" type="line"/>
      <point x="332.333" y="56" type="line"/>
      <point x="301.667" y="32.6667"/>
      <point x="234.333" y="-12.6667"/>
      <point x="162.333" y="-12.6667" type="curve" smooth="yes"/>
      <point x="89" y="-12.6667"/>
      <point x="32.6667" y="42"/>
    </contour>
    <contour>
      <point x="100.667" y="736.667" type="line"/>
      <point x="100.667" y="805.667" type="line"/>
      <point x="437.333" y="805.667" type="line"/>
      <point x="437.333" y="736.667" type="line"/>
    </contour>
    <contour>
      <point x="146.667" y="134.333" type="curve" smooth="yes"/>
      <point x="146.667" y="88.6667"/>
      <point x="174.333" y="53.6667"/>
      <point x="219.667" y="53.6667" type="curve" smooth="yes"/>
      <point x="262" y="53.6667"/>
      <point x="306.667" y="75"/>
      <point x="332.333" y="92.3333" type="curve"/>
      <point x="332.333" y="262.667" type="line"/>
      <point x="232" y="240"/>
      <point x="146.667" y="211"/>
    </contour>
  </outline>
</glyph>
<glyph name="uni01E2" format="2">
  <advance width="945"/>
  <unicode hex="01E2"/>
  <outline>
    <contour>
      <point x="5" y="0.666667" type="line"/>
      <point x="5" y="46.3333" type="line"/>
      <point x="60.6667" y="54" type="line"/>
      <point x="393.333" y="600.667" type="line"/>
      <point x="394.363" y="602.465"/>
      <point x="395.053" y="604.251"/>
      <point x="395.053" y="606" type="curve"/>
      <point x="395.053" y="613.916"/>
      <point x="385.552" y="620.27"/>
      <point x="379.333" y="621" type="curve" smooth="yes"/>
      <point x="330.333" y="626" type="line"/>
      <point x="330.333" y="671" type="line"/>
      <point x="879" y="671" type="line"/>
      <point x="879" y="518.333" type="line"/>
      <point x="816.333" y="518.333" type="line"/>
      <point x="802.333" y="600.667" type="line" smooth="yes"/>
      <point x="800.653" y="609.941"/>
      <point x="795.333" y="619.667"/>
      <point x="785.333" y="619.667" type="curve" smooth="yes"/>
      <point x="595.333" y="619.667" type="line"/>
      <point x="595.333" y="375.333" type="line"/>
      <point x="716.333" y="375.333" type="line" smooth="yes"/>
      <point x="725.333" y="375.333"/>
      <point x="733.423" y="385.915"/>
      <point x="734.333" y="392.667" type="curve" smooth="yes"/>
      <point x="743.333" y="461.333" type="line"/>
      <point x="796.667" y="461.333" type="line"/>
      <point x="796.667" y="234.333" type="line"/>
      <point x="743.333" y="234.333" type="line"/>
      <point x="734.333" y="304" type="line" smooth="yes"/>
      <point x="733.483" y="310.353"/>
      <point x="724.333" y="321"/>
      <point x="716.333" y="321" type="curve" smooth="yes"/>
      <point x="595.333" y="321" type="line"/>
      <point x="595.333" y="52.6667" type="line"/>
      <point x="818.333" y="52.6667" type="line" smooth="yes"/>
      <point x="826.333" y="52.6667"/>
      <point x="834.835" y="64.5117"/>
      <point x="836" y="72.3333" type="curve" smooth="yes"/>
      <point x="851.333" y="173" type="line"/>
      <point x="913.667" y="173" type="line"/>
      <point x="913.667" y="0.666667" type="line"/>
      <point x="404.333" y="0.666667" type="line"/>
      <point x="404.333" y="46.3333" type="line"/>
      <point x="454.333" y="50.3333" type="line" smooth="yes"/>
      <point x="467.001" y="51.3197"/>
      <point x="480.333" y="61.3333"/>
      <point x="480.333" y="72.3333" type="curve" smooth="yes"/>
      <point x="480.333" y="248.667" type="line"/>
      <point x="252.667" y="248.667" type="line"/>
      <point x="145" y="72.3333" type="line"/>
      <point x="142.918" y="68.7123"/>
      <point x="141.906" y="65.4017"/>
      <point x="141.906" y="62.3333" type="curve" smooth="yes"/>
      <point x="141.906" y="56.4251"/>
      <point x="145.636" y="52.0495"/>
      <point x="152" y="51.3333" type="curve" smooth="yes"/>
      <point x="209" y="46.3333" type="line"/>
      <point x="209" y="0.666667" type="line"/>
    </contour>
    <contour>
      <point x="283.667" y="301.333" type="line"/>
      <point x="480.333" y="301.333" type="line"/>
      <point x="480.333" y="621.333" type="line"/>
    </contour>
    <contour>
      <point x="436.333" y="746.333" type="line"/>
      <point x="436.333" y="815.333" type="line"/>
      <point x="773" y="815.333" type="line"/>
      <point x="773" y="746.333" type="line"/>
    </contour>
  </outline>
</glyph>
<glyph name="Gcaron" format="2">
  <advance width="701"/>
  <unicode hex="01E6"/>
  <outline>
    <contour>
      <point x="38.3333" y="336.333" type="curve" smooth="yes"/>
      <point x="38.3333" y="553.333"/>
      <point x="180.333" y="686.333"/>
      <point x="399" y="686.333" type="curve" smooth="yes"/>
      <point x="482.079" y="686.333"/>
      <point x="547.798" y="667.369"/>
      <point x="604.667" y="650.667" type="curve"/>
      <point x="604.667" y="485" type="line"/>
      <point x="538.667" y="485" type="line"/>
      <point x="521.333" y="581" type="line"/>
      <point x="519.667" y="592.667"/>
      <point x="511.333" y="602.667"/>
      <point x="500.333" y="607.333" type="curve"/>
      <point x="491" y="611.667" type="line" smooth="yes"/>
      <point x="472.667" y="620"/>
      <point x="436" y="627"/>
      <point x="409.333" y="627" type="curve" smooth="yes"/>
      <point x="250" y="627"/>
      <point x="166" y="509.667"/>
      <point x="166" y="341" type="curve" smooth="yes"/>
      <point x="166" y="165.333"/>
      <point x="252.333" y="47"/>
      <point x="418.667" y="47" type="curve" smooth="yes"/>
      <point x="440.333" y="47"/>
      <point x="480.333" y="53.6667"/>
      <point x="491.667" y="59" type="curve"/>
      <point x="491.667" y="254.667" type="line" smooth="yes"/>
      <point x="491.667" y="267.333"/>
      <point x="483" y="275"/>
      <point x="470" y="276" type="curve" smooth="yes"/>
      <point x="403" y="281" type="line"/>
      <point x="403" y="326.667" type="line"/>
      <point x="677.667" y="326.667" type="line"/>
      <point x="677.667" y="281" type="line"/>
      <point x="626.667" y="276" type="line" smooth="yes"/>
      <point x="613.333" y="275"/>
      <point x="605" y="267.333"/>
      <point x="605" y="254.667" type="curve" smooth="yes"/>
      <point x="605" y="27" type="line"/>
      <point x="565.667" y="12.3333"/>
      <point x="487" y="-15.3333"/>
      <point x="387.667" y="-15.3333" type="curve" smooth="yes"/>
      <point x="177.667" y="-15.3333"/>
      <point x="38.3333" y="128"/>
    </contour>
    <contour>
      <point x="201" y="916" type="line"/>
      <point x="269.333" y="916" type="line"/>
      <point x="367.667" y="818.667" type="line"/>
      <point x="465.333" y="916" type="line"/>
      <point x="533" y="916" type="line"/>
      <point x="412" y="746.333" type="line"/>
      <point x="322" y="746.333" type="line"/>
    </contour>
  </outline>
</glyph>
<glyph name="uni01F9" format="2">
  <advance width="586"/>
  <unicode hex="01F9"/>
  <outline>
    <contour>
      <point x="21" y="406" type="line"/>
      <point x="21" y="441.667" type="line"/>
      <point x="152.333" y="484" type="line"/>
      <point x="197" y="484" type="line"/>
      <point x="197" y="434.333" type="line"/>
      <point x="260.895" y="476.355"/>
      <point x="314.553" y="496"/>
      <point x="365.333" y="496" type="curve" smooth="yes"/>
      <point x="452.974" y="496"/>
      <point x="500" y="439.811"/>
      <point x="500" y="335.333" type="curve" smooth="yes"/>
      <point x="500" y="66.3333" type="line" smooth="yes"/>
      <point x="500" y="54.3333"/>
      <point x="510.333" y="45.6667"/>
      <point x="521.667" y="44.6667" type="curve" smooth="yes"/>
      <point x="561.333" y="41.6667" type="line"/>
      <point x="561.333" y="0" type="line"/>
      <point x="332" y="0" type="line"/>
      <point x="332" y="41.6667" type="line"/>
      <point x="372.333" y="44.6667" type="line" smooth="yes"/>
      <point x="383.667" y="45.6667"/>
      <point x="393.667" y="54.3333"/>
      <point x="393.667" y="66.3333" type="curve" smooth="yes"/>
      <point x="393.667" y="318.667" type="line" smooth="yes"/>
      <point x="393.667" y="383.566"/>
      <point x="363.11" y="416.667"/>
      <point x="302.333" y="416.667" type="curve" smooth="yes"/>
      <point x="259.437" y="416.667"/>
      <point x="221.011" y="405.806"/>
      <point x="197" y="393" type="curve"/>
      <point x="197" y="66.3333" type="line" smooth="yes"/>
      <point x="197" y="54.3333"/>
      <point x="207.333" y="45.6667"/>
      <point x="218.667" y="44.6667" type="curve" smooth="yes"/>
      <point x="256.667" y="41.6667" type="line"/>
      <point x="256.667" y="0" type="line"/>
      <point x="24.6667" y="0" type="line"/>
      <point x="24.6667" y="41.6667" type="line"/>
      <point x="69.3333" y="44.6667" type="line" smooth="yes"/>
      <point x="80.6667" y="45.6667"/>
      <point x="90.6667" y="54.3333"/>
      <point x="90.6667" y="66.3333" type="curve" smooth="yes"/>
      <point x="90.6667" y="406" type="line"/>
    </contour>
    <contour>
      <point x="80.6667" y="691.333" type="curve" smooth="yes"/>
      <point x="80.6667" y="718"/>
      <point x="97.6667" y="739"/>
      <point x="130.667" y="739" type="curve" smooth="yes"/>
      <point x="159.667" y="739"/>
      <point x="170.333" y="729.333"/>
      <point x="187.333" y="710.333" type="curve" smooth="yes"/>
      <point x="322" y="556.667" type="line"/>
      <point x="260.667" y="556.667" type="line"/>
      <point x="105.333" y="650.667" type="line"/>
      <point x="92" y="659.333"/>
      <point x="80.6667" y="673"/>
    </contour>
  </outline>
</glyph>
<glyph name="Aringacute" format="2">
  <advance width="677"/>
  <unicode hex="01FA"/>
  <outline>
    <contour>
      <point x="5" y="0" type="line"/>
      <point x="5" y="45.6667" type="line"/>
      <point x="62.3333" y="57" type="line"/>
      <point x="292.333" y="687.667" type="line"/>
      <point x="380.333" y="687.667" type="line"/>
      <point x="609" y="73" type="line" smooth="yes"/>
      <point x="614.154" y="59.7246"/>
      <point x="617.036" y="55.8679"/>
      <point x="630.333" y="53.3333" type="curve" smooth="yes"/>
      <point x="673" y="45.6667" type="line"/>
      <point x="673" y="0" type="line"/>
      <point x="422.333" y="0" type="line"/>
      <point x="422.333" y="45.6667" type="line"/>
      <point x="480.667" y="52" type="line" smooth="yes"/>
      <point x="487.475" y="52.8653"/>
      <point x="491.333" y="57.7617"/>
      <point x="491.333" y="64.3333" type="curve"/>
      <point x="491.333" y="65.778"/>
      <point x="490.699" y="68.0006"/>
      <point x="490.333" y="69" type="curve"/>
      <point x="426.333" y="244" type="line"/>
      <point x="201" y="244" type="line"/>
      <point x="138.667" y="72.3333" type="line"/>
      <point x="138.316" y="71.3656"/>
      <point x="137.667" y="68.6667"/>
      <point x="137.667" y="67" type="curve"/>
      <point x="137.667" y="58.2943"/>
      <point x="144.673" y="52.9427"/>
      <point x="152.667" y="52" type="curve" smooth="yes"/>
      <point x="210.667" y="45.6667" type="line"/>
      <point x="210.667" y="0" type="line"/>
    </contour>
    <contour>
      <point x="214.667" y="798.333" type="curve" smooth="yes"/>
      <point x="214.667" y="775"/>
      <point x="267.667" y="761.667"/>
      <point x="337.333" y="761.667" type="curve" smooth="yes"/>
      <point x="407.333" y="761.667"/>
      <point x="460" y="775"/>
      <point x="460" y="798.333" type="curve" smooth="yes"/>
      <point x="460" y="821.667"/>
      <point x="408" y="835.667"/>
      <point x="338" y="835.667" type="curve" smooth="yes"/>
      <point x="268.333" y="835.667"/>
      <point x="214.667" y="821.667"/>
    </contour>
    <contour>
      <point x="219.333" y="295" type="line"/>
      <point x="406" y="295" type="line"/>
      <point x="312" y="549.667" type="line"/>
    </contour>
    <contour>
      <point x="270.667" y="798.333" type="curve" smooth="yes"/>
      <point x="270.667" y="813.333"/>
      <point x="299.333" y="824.667"/>
      <point x="337.333" y="824.667" type="curve" smooth="yes"/>
      <point x="375.667" y="824.667"/>
      <point x="403.333" y="813.333"/>
      <point x="403.333" y="798.333" type="curve" smooth="yes"/>
      <point x="403.333" y="783.333"/>
      <point x="375.667" y="773.333"/>
      <point x="337.333" y="773.333" type="curve" smooth="yes"/>
      <point x="299.333" y="773.333"/>
      <point x="270.667" y="783.333"/>
    </contour>
    <contour>
      <point x="296" y="975" type="line"/>
      <point x="429.667" y="1128.67" type="line" smooth="yes"/>
      <point x="445.333" y="1147"/>
      <point x="458.333" y="1157.33"/>
      <point x="486" y="1157.33" type="curve" smooth="yes"/>
      <point x="520.105" y="1157.33"/>
      <point x="536.667" y="1136.73"/>
      <point x="536.667" y="1109.67" type="curve" smooth="yes"/>
      <point x="536.667" y="1092.67"/>
      <point x="524.675" y="1076.32"/>
      <point x="512.667" y="1069" type="curve" smooth="yes"/>
      <point x="356.667" y="975" type="line"/>
    </contour>
  </outline>
</glyph>
<glyph name="uni0201" format="2">
  <advance width="523"/>
  <unicode hex="0201"/>
  <outline>
    <contour>
      <point x="32.6667" y="119.667" type="curve" smooth="yes"/>
      <point x="32.6667" y="226.333"/>
      <point x="164" y="269"/>
      <point x="332.333" y="306" type="curve"/>
      <point x="332.333" y="347.667" type="line" smooth="yes"/>
      <point x="332.333" y="405"/>
      <point x="309.667" y="446"/>
      <point x="239.667" y="446" type="curve" smooth="yes"/>
      <point x="212.667" y="446"/>
      <point x="190" y="440.333"/>
      <point x="178" y="434.667" type="curve"/>
      <point x="178" y="345" type="line"/>
      <point x="93.3333" y="345" type="line" smooth="yes"/>
      <point x="75" y="345"/>
      <point x="55.3333" y="350"/>
      <point x="55.3333" y="376.333" type="curve" smooth="yes"/>
      <point x="55.3333" y="457"/>
      <point x="173" y="496.667"/>
      <point x="268.333" y="496.667" type="curve" smooth="yes"/>
      <point x="377.333" y="496.667"/>
      <point x="438" y="456.667"/>
      <point x="438" y="338.667" type="curve" smooth="yes"/>
      <point x="438" y="66.3333" type="line" smooth="yes"/>
      <point x="438" y="54.3333"/>
      <point x="448" y="45.6667"/>
      <point x="459.333" y="44.6667" type="curve" smooth="yes"/>
      <point x="506" y="41.6667" type="line"/>
      <point x="506" y="0" type="line"/>
      <point x="345.333" y="0" type="line"/>
      <point x="332.333" y="56" type="line"/>
      <point x="301.667" y="32.6667"/>
      <point x="234.333" y="-12.6667"/>
      <point x="162.333" y="-12.6667" type="curve" smooth="yes"/>
      <point x="89" y="-12.6667"/>
      <point x="32.6667" y="42"/>
    </contour>
    <contour>
      <point x="146.667" y="134.333" type="curve" smooth="yes"/>
      <point x="146.667" y="88.6667"/>
      <point x="174.333" y="53.6667"/>
      <point x="219.667" y="53.6667" type="curve" smooth="yes"/>
      <point x="262" y="53.6667"/>
      <point x="306.667" y="75"/>
      <point x="332.333" y="92.3333" type="curve"/>
      <point x="332.333" y="262.667" type="line"/>
      <point x="232" y="240"/>
      <point x="146.667" y="211"/>
    </contour>
    <contour>
      <point x="-42" y="691.333" type="curve" smooth="yes"/>
      <point x="-42" y="721"/>
      <point x="-23.3333" y="739"/>
      <point x="7" y="739" type="curve" smooth="yes"/>
      <point x="32.5436" y="739"/>
      <point x="46.1068" y="732.299"/>
      <point x="65" y="710.333" type="curve" smooth="yes"/>
      <point x="199" y="556.667" type="line"/>
      <point x="137.333" y="556.667" type="line"/>
      <point x="-17.3333" y="650.667" type="line" smooth="yes"/>
      <point x="-32.3411" y="659.903"/>
      <point x="-42" y="675.445"/>
    </contour>
    <contour>
      <point x="159" y="691.333" type="curve" smooth="yes"/>
      <point x="159" y="720.931"/>
      <point x="178.913" y="739.667"/>
      <point x="210" y="739.667" type="curve" smooth="yes"/>
      <point x="234.271" y="739.667"/>
      <point x="247.189" y="733.049"/>
      <point x="265.667" y="711" type="curve" smooth="yes"/>
      <point x="399.333" y="557.333" type="line"/>
      <point x="339.333" y="557.333" type="line"/>
      <point x="184.333" y="651.333" type="line" smooth="yes"/>
      <point x="168.276" y="660.677"/>
      <point x="159" y="675.573"/>
    </contour>
  </outline>
</glyph>
<glyph name="uni0208" format="2">
  <advance width="339"/>
  <unicode hex="0208"/>
  <outline>
    <contour>
      <point x="-140.667" y="881" type="curve" smooth="yes"/>
      <point x="-140.667" y="910.667"/>
      <point x="-122" y="928.667"/>
      <point x="-91.6667" y="928.667" type="curve" smooth="yes"/>
      <point x="-66.1231" y="928.667"/>
      <point x="-52.5599" y="921.966"/>
      <point x="-33.6667" y="900" type="curve" smooth="yes"/>
      <point x="100.333" y="746.333" type="line"/>
      <point x="38.6667" y="746.333" type="line"/>
      <point x="-116" y="840.333" type="line" smooth="yes"/>
      <point x="-131.008" y="849.569"/>
      <point x="-140.667" y="865.111"/>
    </contour>
    <contour>
      <point x="29.6667" y="0" type="line"/>
      <point x="29.6667" y="45.6667" type="line"/>
      <point x="90.3333" y="50" type="line" smooth="yes"/>
      <point x="102.333" y="51"/>
      <point x="111.667" y="59.6667"/>
      <point x="111.667" y="72" type="curve" smooth="yes"/>
      <point x="111.667" y="599" type="line" smooth="yes"/>
      <point x="111.667" y="611.333"/>
      <point x="102.333" y="619.333"/>
      <point x="90.3333" y="620.333" type="curve" smooth="yes"/>
      <point x="29.6667" y="624.667" type="line"/>
      <point x="29.6667" y="671" type="line"/>
      <point x="309.667" y="671" type="line"/>
      <point x="309.667" y="624.667" type="line"/>
      <point x="248.333" y="620.333" type="line" smooth="yes"/>
      <point x="237.333" y="619.333"/>
      <point x="226.667" y="610.667"/>
      <point x="226.667" y="599" type="curve" smooth="yes"/>
      <point x="226.667" y="72" type="line" smooth="yes"/>
      <point x="226.667" y="60.3333"/>
      <point x="237.333" y="51"/>
      <point x="248.333" y="50" type="curve" smooth="yes"/>
      <point x="309.667" y="45.6667" type="line"/>
      <point x="309.667" y="0" type="line"/>
    </contour>
    <contour>
      <point x="60.3333" y="881" type="curve" smooth="yes"/>
      <point x="60.3333" y="910.597"/>
      <point x="80.2467" y="929.333"/>
      <point x="111.333" y="929.333" type="curve" smooth="yes"/>
      <point x="135.605" y="929.333"/>
      <point x="148.523" y="922.716"/>
      <point x="167" y="900.667" type="curve" smooth="yes"/>
      <point x="300.667" y="747" type="line"/>
      <point x="240.667" y="747" type="line"/>
      <point x="85.6667" y="841" type="line" smooth="yes"/>
      <point x="69.6094" y="850.343"/>
      <point x="60.3333" y="865.24"/>
    </contour>
  </outline>
</glyph>
<glyph name="uni020B" format="2">
  <advance width="313"/>
  <unicode hex="020B"/>
  <outline>
    <contour>
      <point x="4.33333" y="556.667" type="line"/>
      <point x="4.33333" y="643.751"/>
      <point x="62.7357" y="710.333"/>
      <point x="155.667" y="710.333" type="curve" smooth="yes"/>
      <point x="249.817" y="710.333"/>
      <point x="306.333" y="644.699"/>
      <point x="306.333" y="556.667" type="curve"/>
      <point x="263" y="556.667" type="line"/>
      <point x="250.667" y="610.411"/>
      <point x="210.667" y="638.333"/>
      <point x="155" y="638.333" type="curve" smooth="yes"/>
      <point x="100.406" y="638.333"/>
      <point x="60.5215" y="610.411"/>
      <point x="48.3333" y="556.667" type="curve"/>
    </contour>
    <contour>
      <point x="33.3333" y="0" type="line"/>
      <point x="33.3333" y="41.6667" type="line"/>
      <point x="81.3333" y="44.6667" type="line" smooth="yes"/>
      <point x="92.6667" y="45.6667"/>
      <point x="102.667" y="54.3333"/>
      <point x="102.667" y="66.3333" type="curve" smooth="yes"/>
      <point x="102.667" y="410.333" type="line"/>
      <point x="35.3333" y="410.333" type="line"/>
      <point x="35.3333" y="446" type="line"/>
      <point x="165.333" y="488" type="line"/>
      <point x="209" y="488" type="line"/>
      <point x="209" y="66.3333" type="line" smooth="yes"/>
      <point x="209" y="54.3333"/>
      <point x="219.333" y="45.6667"/>
      <point x="230.667" y="44.6667" type="curve"/>
      <point x="280.667" y="41.6667" type="line"/>
      <point x="280.667" y="0" type="line"/>
    </contour>
  </outline>
</glyph>
<glyph name="uni020D" format="2">
  <advance width="556"/>
  <unicode hex="020D"/>
  <outline>
    <contour>
      <point x="16.3333" y="691.333" type="curve" smooth="yes"/>
      <point x="16.3333" y="721"/>
      <point x="35" y="739"/>
      <point x="65.3333" y="739" type="curve" smooth="yes"/>
      <point x="90.8769" y="739"/>
      <point x="104.44" y="732.299"/>
      <point x="123.333" y="710.333" type="curve" smooth="yes"/>
      <point x="257.333" y="556.667" type="line"/>
      <point x="195.667" y="556.667" type="line"/>
      <point x="41" y="650.667" type="line" smooth="yes"/>
      <point x="25.9922" y="659.903"/>
      <point x="16.3333" y="675.445"/>
    </contour>
    <contour>
      <point x="32.6667" y="240.667" type="curve" smooth="yes"/>
      <point x="32.6667" y="389.333"/>
      <point x="135" y="496.667"/>
      <point x="280" y="496.667" type="curve" smooth="yes"/>
      <point x="428.333" y="496.667"/>
      <point x="523.333" y="385"/>
      <point x="523.333" y="240.333" type="curve" smooth="yes"/>
      <point x="523.333" y="97.3333"/>
      <point x="424.333" y="-12.6667"/>
      <point x="275.667" y="-12.6667" type="curve" smooth="yes"/>
      <point x="131.667" y="-12.6667"/>
      <point x="32.6667" y="94.6667"/>
    </contour>
    <contour>
      <point x="152" y="242" type="curve" smooth="yes"/>
      <point x="152" y="153.333"/>
      <point x="180.667" y="37.6667"/>
      <point x="278.333" y="37.6667" type="curve" smooth="yes"/>
      <point x="375.333" y="37.6667"/>
      <point x="404.667" y="151"/>
      <point x="404.667" y="240.667" type="curve" smooth="yes"/>
      <point x="404.667" y="329"/>
      <point x="376" y="447.667"/>
      <point x="278.667" y="447.667" type="curve" smooth="yes"/>
      <point x="182" y="447.667"/>
      <point x="152" y="330.667"/>
    </contour>
    <contour>
      <point x="217.333" y="691.333" type="curve" smooth="yes"/>
      <point x="217.333" y="720.931"/>
      <point x="237.247" y="739.667"/>
      <point x="268.333" y="739.667" type="curve" smooth="yes"/>
      <point x="292.605" y="739.667"/>
      <point x="305.523" y="733.049"/>
      <point x="324" y="711" type="curve" smooth="yes"/>
      <point x="457.667" y="557.333" type="line"/>
      <point x="397.667" y="557.333" type="line"/>
      <point x="242.667" y="651.333" type="line" smooth="yes"/>
      <point x="226.609" y="660.677"/>
      <point x="217.333" y="675.573"/>
    </contour>
  </outline>
</glyph>
<glyph name="uni0210" format="2">
  <advance width="667"/>
  <unicode hex="0210"/>
  <outline>
    <contour>
      <point x="30" y="0" type="line"/>
      <point x="30" y="45.6667" type="line"/>
      <point x="82.3333" y="50" type="line" smooth="yes"/>
      <point x="95.3639" y="51.0306"/>
      <point x="104.667" y="60.3333"/>
      <point x="104.667" y="72" type="curve" smooth="yes"/>
      <point x="104.667" y="599" type="line" smooth="yes"/>
      <point x="104.667" y="610.667"/>
      <point x="95.3639" y="619.97"/>
      <point x="82.3333" y="621" type="curve" smooth="yes"/>
      <point x="30" y="625.333" type="line"/>
      <point x="30" y="671" type="line"/>
      <point x="314.667" y="671" type="line" smooth="yes"/>
      <point x="469.385" y="671"/>
      <point x="550.667" y="610.076"/>
      <point x="550.667" y="494.333" type="curve" smooth="yes"/>
      <point x="550.667" y="405.98"/>
      <point x="491.758" y="346.629"/>
      <point x="383.333" y="325.333" type="curve"/>
      <point x="460.811" y="307.935"/>
      <point x="498.555" y="266.561"/>
      <point x="520" y="176.667" type="curve" smooth="yes"/>
      <point x="543.817" y="75.6191"/>
      <point x="579.092" y="43.6667"/>
      <point x="666.667" y="43.6667" type="curve"/>
      <point x="666.667" y="-3.33333" type="line"/>
      <point x="654.5" y="-4.33333"/>
      <point x="644.074" y="-6.222"/>
      <point x="632" y="-10.3333" type="curve"/>
      <point x="618.917" y="-14.25"/>
      <point x="604" y="-16.6667"/>
      <point x="589" y="-16.6667" type="curve" smooth="yes"/>
      <point x="495.903" y="-16.6667"/>
      <point x="451.921" y="24.1497"/>
      <point x="416.333" y="142.333" type="curve"/>
      <point x="383.697" y="257.068"/>
      <point x="342.379" y="297.333"/>
      <point x="257" y="297.333" type="curve" smooth="yes"/>
      <point x="243.887" y="297.333"/>
      <point x="229.773" y="296.487"/>
      <point x="219.667" y="294.667" type="curve"/>
      <point x="219.667" y="72" type="line" smooth="yes"/>
      <point x="219.667" y="60.1426"/>
      <point x="228.519" y="51.0124"/>
      <point x="241" y="50" type="curve" smooth="yes"/>
      <point x="294.667" y="45.6667" type="line"/>
      <point x="294.667" y="0" type="line"/>
    </contour>
    <contour>
      <point x="219.667" y="349" type="line"/>
      <point x="264" y="349" type="line" smooth="yes"/>
      <point x="375.272" y="349"/>
      <point x="428" y="393.946"/>
      <point x="428" y="488" type="curve" smooth="yes"/>
      <point x="428" y="575.863"/>
      <point x="373.659" y="618.333"/>
      <point x="261" y="618.333" type="curve" smooth="yes"/>
      <point x="219.667" y="618.333" type="line"/>
    </contour>
    <contour>
      <point x="26" y="881" type="curve" smooth="yes"/>
      <point x="26" y="910.667"/>
      <point x="44.6667" y="928.667"/>
      <point x="75" y="928.667" type="curve" smooth="yes"/>
      <point x="100.544" y="928.667"/>
      <point x="114.107" y="921.966"/>
      <point x="133" y="900" type="curve" smooth="yes"/>
      <point x="267" y="746.333" type="line"/>
      <point x="205.333" y="746.333" type="line"/>
      <point x="50.6667" y="840.333" type="line" smooth="yes"/>
      <point x="35.6589" y="849.569"/>
      <point x="26" y="865.111"/>
    </contour>
    <contour>
      <point x="227" y="881" type="curve" smooth="yes"/>
      <point x="227" y="910.597"/>
      <point x="246.913" y="929.333"/>
      <point x="278" y="929.333" type="curve" smooth="yes"/>
      <point x="302.271" y="929.333"/>
      <point x="315.189" y="922.716"/>
      <point x="333.667" y="900.667" type="curve" smooth="yes"/>
      <point x="467.333" y="747" type="line"/>
      <point x="407.333" y="747" type="line"/>
      <point x="252.333" y="841" type="line" smooth="yes"/>
      <point x="236.276" y="850.343"/>
      <point x="227" y="865.24"/>
    </contour>
  </outline>
</glyph>
<glyph name="uni0212" format="2">
  <advance width="667"/>
  <unicode hex="0212"/>
  <outline>
    <contour>
      <point x="30" y="0" type="line"/>
      <point x="30" y="45.6667" type="line"/>
      <point x="82.3333" y="50" type="line" smooth="yes"/>
      <point x="95.3639" y="51.0306"/>
      <point x="104.667" y="60.3333"/>
      <point x="104.667" y="72" type="curve" smooth="yes"/>
      <point x="104.667" y="599" type="line" smooth="yes"/>
      <point x="104.667" y="610.667"/>
      <point x="95.3639" y="619.97"/>
      <point x="82.3333" y="621" type="curve" smooth="yes"/>
      <point x="30" y="625.333" type="line"/>
      <point x="30" y="671" type="line"/>
      <point x="314.667" y="671" type="line" smooth="yes"/>
      <point x="469.385" y="671"/>
      <point x="550.667" y="610.076"/>
      <point x="550.667" y="494.333" type="curve" smooth="yes"/>
      <point x="550.667" y="405.98"/>
      <point x="491.758" y="346.629"/>
      <point x="383.333" y="325.333" type="curve"/>
      <point x="460.811" y="307.935"/>
      <point x="498.555" y="266.561"/>
      <point x="520" y="176.667" type="curve" smooth="yes"/>
      <point x="543.817" y="75.6191"/>
      <point x="579.092" y="43.6667"/>
      <point x="666.667" y="43.6667" type="curve"/>
      <point x="666.667" y="-3.33333" type="line"/>
      <point x="654.5" y="-4.33333"/>
      <point x="644.074" y="-6.222"/>
      <point x="632" y="-10.3333" type="curve"/>
      <point x="618.917" y="-14.25"/>
      <point x="604" y="-16.6667"/>
      <point x="589" y="-16.6667" type="curve" smooth="yes"/>
      <point x="495.903" y="-16.6667"/>
      <point x="451.921" y="24.1497"/>
      <point x="416.333" y="142.333" type="curve"/>
      <point x="383.697" y="257.068"/>
      <point x="342.379" y="297.333"/>
      <point x="257" y="297.333" type="curve" smooth="yes"/>
      <point x="243.887" y="297.333"/>
      <point x="229.773" y="296.487"/>
      <point x="219.667" y="294.667" type="curve"/>
      <point x="219.667" y="72" type="line" smooth="yes"/>
      <point x="219.667" y="60.1426"/>
      <point x="228.519" y="51.0124"/>
      <point x="241" y="50" type="curve" smooth="yes"/>
      <point x="294.667" y="45.6667" type="line"/>
      <point x="294.667" y="0" type="line"/>
    </contour>
    <contour>
      <point x="121.333" y="746.333" type="line"/>
      <point x="121.333" y="833.417"/>
      <point x="179.736" y="900"/>
      <point x="272.667" y="900" type="curve" smooth="yes"/>
      <point x="366.817" y="900"/>
      <point x="423.333" y="834.366"/>
      <point x="423.333" y="746.333" type="curve"/>
      <point x="380" y="746.333" type="line"/>
      <point x="367.667" y="800.078"/>
      <point x="327.667" y="828"/>
      <point x="272" y="828" type="curve" smooth="yes"/>
      <point x="217.406" y="828"/>
      <point x="177.521" y="800.078"/>
      <point x="165.333" y="746.333" type="curve"/>
    </contour>
    <contour>
      <point x="219.667" y="349" type="line"/>
      <point x="264" y="349" type="line" smooth="yes"/>
      <point x="375.272" y="349"/>
      <point x="428" y="393.946"/>
      <point x="428" y="488" type="curve" smooth="yes"/>
      <point x="428" y="575.863"/>
      <point x="373.659" y="618.333"/>
      <point x="261" y="618.333" type="curve" smooth="yes"/>
      <point x="219.667" y="618.333" type="line"/>
    </contour>
  </outline>
</glyph>
<glyph name="uni0217" format="2">
  <advance width="585"/>
  <unicode hex="0217"/>
  <outline>
    <contour>
      <point x="21.6667" y="404.667" type="line"/>
      <point x="21.6667" y="441" type="line"/>
      <point x="152.667" y="484" type="line"/>
      <point x="196.667" y="484" type="line"/>
      <point x="196.667" y="176" type="line" smooth="yes"/>
      <point x="196.667" y="112.333"/>
      <point x="216.333" y="63.6667"/>
      <point x="292" y="63.6667" type="curve" smooth="yes"/>
      <point x="335.333" y="63.6667"/>
      <point x="370.667" y="78"/>
      <point x="391.333" y="88" type="curve"/>
      <point x="391.333" y="404.667" type="line"/>
      <point x="323.667" y="404.667" type="line"/>
      <point x="323.667" y="441" type="line"/>
      <point x="453.667" y="484" type="line"/>
      <point x="498" y="484" type="line"/>
      <point x="498" y="67" type="line" smooth="yes"/>
      <point x="498" y="55"/>
      <point x="509" y="46.3333"/>
      <point x="520.333" y="45.3333" type="curve" smooth="yes"/>
      <point x="564.333" y="41.6667" type="line"/>
      <point x="564.333" y="0" type="line"/>
      <point x="391.333" y="0" type="line"/>
      <point x="391.333" y="55.6667" type="line"/>
      <point x="366" y="36.3333"/>
      <point x="299.667" y="-12"/>
      <point x="231.333" y="-12" type="curve" smooth="yes"/>
      <point x="128" y="-12"/>
      <point x="90" y="49.6667"/>
      <point x="90" y="150.333" type="curve" smooth="yes"/>
      <point x="90" y="404.667" type="line"/>
    </contour>
    <contour>
      <point x="121" y="556.667" type="line"/>
      <point x="121" y="643.751"/>
      <point x="179.403" y="710.333"/>
      <point x="272.333" y="710.333" type="curve" smooth="yes"/>
      <point x="366.484" y="710.333"/>
      <point x="423.667" y="644.699"/>
      <point x="423.667" y="556.667" type="curve"/>
      <point x="379.667" y="556.667" type="line"/>
      <point x="367.333" y="610.411"/>
      <point x="327.333" y="638.333"/>
      <point x="271.667" y="638.333" type="curve" smooth="yes"/>
      <point x="217.073" y="638.333"/>
      <point x="177.188" y="610.411"/>
      <point x="165" y="556.667" type="curve"/>
    </contour>
  </outline>
</glyph>
<glyph name="uni0220" format="2">
  <advance width="742"/>
  <unicode hex="0220"/>
  <outline>
    <contour>
      <point x="25.6667" y="625.333" type="line"/>
      <point x="25.6667" y="671" type="line"/>
      <point x="221.333" y="671" type="line"/>
      <point x="221.333" y="596.333" type="line"/>
      <point x="297.121" y="659.098"/>
      <point x="364.033" y="687"/>
      <point x="434" y="687" type="curve" smooth="yes"/>
      <point x="566.411" y="687"/>
      <point x="648" y="606.963"/>
      <point x="648" y="476.333" type="curve" smooth="yes"/>
      <point x="648" y="-147" type="line" smooth="yes"/>
      <point x="648" y="-157.733"/>
      <point x="658.369" y="-168.101"/>
      <point x="670.333" y="-169" type="curve" smooth="yes"/>
      <point x="724.667" y="-173.333" type="line"/>
      <point x="724.667" y="-219" type="line"/>
      <point x="456.333" y="-219" type="line"/>
      <point x="456.333" y="-173.333" type="line"/>
      <point x="511" y="-167.667" type="line" smooth="yes"/>
      <point x="523.359" y="-166.407"/>
      <point x="533" y="-157.069"/>
      <point x="533" y="-146.333" type="curve" smooth="yes"/>
      <point x="533" y="458.667" type="line" smooth="yes"/>
      <point x="533" y="540.494"/>
      <point x="474.311" y="601.667"/>
      <point x="394" y="601.667" type="curve" smooth="yes"/>
      <point x="336.216" y="601.667"/>
      <point x="286.114" y="582.913"/>
      <point x="221" y="535.667" type="curve"/>
      <point x="221" y="73.6667" type="line" smooth="yes"/>
      <point x="221" y="62.0629"/>
      <point x="229.927" y="53.5209"/>
      <point x="242.667" y="52" type="curve" smooth="yes"/>
      <point x="302.333" y="45.6667" type="line"/>
      <point x="302.333" y="0" type="line"/>
      <point x="32.3333" y="0" type="line"/>
      <point x="32.3333" y="45.6667" type="line"/>
      <point x="84.6667" y="50" type="line" smooth="yes"/>
      <point x="96.462" y="50.9709"/>
      <point x="106" y="61.4551"/>
      <point x="106" y="73.6667" type="curve" smooth="yes"/>
      <point x="106" y="603.333" type="line" smooth="yes"/>
      <point x="106" y="611.573"/>
      <point x="97.1674" y="619.765"/>
      <point x="87.6667" y="620.333" type="curve" smooth="yes"/>
    </contour>
  </outline>
</glyph>
<glyph name="uni0221" format="2">
  <advance width="644"/>
  <unicode hex="0221"/>
  <outline>
    <contour>
      <point x="32" y="228.333" type="curve" smooth="yes"/>
      <point x="32" y="391.079"/>
      <point x="134.142" y="496"/>
      <point x="290.333" y="496" type="curve" smooth="yes"/>
      <point x="324" y="496"/>
      <point x="359.333" y="489.667"/>
      <point x="382" y="484" type="curve"/>
      <point x="382" y="659.667" type="line"/>
      <point x="306.667" y="659.667" type="line"/>
      <point x="306.667" y="695.333" type="line"/>
      <point x="444.667" y="738" type="line"/>
      <point x="488.333" y="738" type="line"/>
      <point x="488.333" y="171.667" type="line"/>
      <point x="516.529" y="188.265"/>
      <point x="546.673" y="198.333"/>
      <point x="582.667" y="198.333" type="curve" smooth="yes"/>
      <point x="634.333" y="198.333"/>
      <point x="664" y="161.333"/>
      <point x="664" y="114" type="curve" smooth="yes"/>
      <point x="664" y="26"/>
      <point x="597" y="-14"/>
      <point x="514.667" y="-14" type="curve" smooth="yes"/>
      <point x="467" y="-14"/>
      <point x="426.333" y="-0.333333"/>
      <point x="404.667" y="39.6667" type="curve"/>
      <point x="363.431" y="-8.66667"/>
      <point x="332.004" y="-65.6667"/>
      <point x="305.667" y="-118" type="curve"/>
      <point x="262" y="-102.333" type="line"/>
      <point x="272.621" y="-63.6632"/>
      <point x="297.062" y="-20.3801"/>
      <point x="320.667" y="13.3333" type="curve"/>
      <point x="294" y="-0.666667"/>
      <point x="261" y="-13.3333"/>
      <point x="226" y="-13.3333" type="curve" smooth="yes"/>
      <point x="100.032" y="-13.3333"/>
      <point x="32" y="96.512"/>
    </contour>
    <contour>
      <point x="146.667" y="246" type="curve" smooth="yes"/>
      <point x="146.667" y="141.617"/>
      <point x="189.919" y="63.3333"/>
      <point x="287.333" y="63.3333" type="curve" smooth="yes"/>
      <point x="332" y="63.3333"/>
      <point x="358.627" y="76.6667"/>
      <point x="384.667" y="96.6667" type="curve"/>
      <point x="382.333" y="109.683"/>
      <point x="381.333" y="122.699"/>
      <point x="381.333" y="148" type="curve" smooth="yes"/>
      <point x="381.333" y="427.667" type="line"/>
      <point x="361.667" y="435"/>
      <point x="332" y="442.667"/>
      <point x="302.333" y="442.667" type="curve" smooth="yes"/>
      <point x="196.577" y="442.667"/>
      <point x="146.667" y="355.449"/>
    </contour>
    <contour>
      <point x="488.333" y="123.333" type="curve"/>
      <point x="488.333" y="77.0465"/>
      <point x="498.726" y="27.6667"/>
      <point x="539" y="27.6667" type="curve" smooth="yes"/>
      <point x="580.001" y="27.6667"/>
      <point x="613" y="65.857"/>
      <point x="613" y="105.333" type="curve" smooth="yes"/>
      <point x="613" y="135"/>
      <point x="598.333" y="147"/>
      <point x="568" y="147" type="curve" smooth="yes"/>
      <point x="536.333" y="147"/>
      <point x="511" y="136.667"/>
    </contour>
  </outline>
</glyph>
<glyph name="uni0224" format="2">
  <advance width="577"/>
  <unicode hex="0224"/>
  <outline>
    <contour>
      <point x="37.6667" y="-1.33333" type="line"/>
      <point x="37.6667" y="47.6667" type="line"/>
      <point x="400" y="616" type="line"/>
      <point x="153" y="616" type="line" smooth="yes"/>
      <point x="144.732" y="616"/>
      <point x="138.411" y="610.011"/>
      <point x="137" y="600.667" type="curve" smooth="yes"/>
      <point x="121" y="502.333" type="line"/>
      <point x="57.3333" y="502.333" type="line"/>
      <point x="57.3333" y="669.667" type="line"/>
      <point x="533" y="669.667" type="line"/>
      <point x="533" y="619.333" type="line"/>
      <point x="170.333" y="53.3333" type="line"/>
      <point x="538.333" y="53.3333" type="line"/>
      <point x="546.289" y="40.082"/>
      <point x="551" y="20.1111"/>
      <point x="551" y="-1.66667" type="curve" smooth="yes"/>
      <point x="551" y="-55.0243"/>
      <point x="518.987" y="-114.167"/>
      <point x="466.333" y="-160" type="curve"/>
      <point x="430.333" y="-160" type="line"/>
      <point x="452.892" y="-133.829"/>
      <point x="466.333" y="-92.406"/>
      <point x="466.333" y="-50" type="curve" smooth="yes"/>
      <point x="466.333" y="-30.3333"/>
      <point x="461.985" y="-11.5217"/>
      <point x="455" y="-1.33333" type="curve"/>
    </contour>
  </outline>
</glyph>
<glyph name="uni0226" format="2">
  <advance width="677"/>
  <unicode hex="0226"/>
  <outline>
    <contour>
      <point x="5" y="0" type="line"/>
      <point x="5" y="45.6667" type="line"/>
      <point x="62.3333" y="57" type="line"/>
      <point x="292.333" y="687.667" type="line"/>
      <point x="380.333" y="687.667" type="line"/>
      <point x="609" y="73" type="line" smooth="yes"/>
      <point x="614.154" y="59.7246"/>
      <point x="617.036" y="55.8679"/>
      <point x="630.333" y="53.3333" type="curve" smooth="yes"/>
      <point x="673" y="45.6667" type="line"/>
      <point x="673" y="0" type="line"/>
      <point x="422.333" y="0" type="line"/>
      <point x="422.333" y="45.6667" type="line"/>
      <point x="480.667" y="52" type="line" smooth="yes"/>
      <point x="487.475" y="52.8653"/>
      <point x="491.333" y="57.7617"/>
      <point x="491.333" y="64.3333" type="curve"/>
      <point x="491.333" y="65.778"/>
      <point x="490.931" y="67.9661"/>
      <point x="490.333" y="69" type="curve"/>
      <point x="426.333" y="244" type="line"/>
      <point x="201" y="244" type="line"/>
      <point x="138.667" y="72.3333" type="line"/>
      <point x="138.087" y="71.3281"/>
      <point x="137.667" y="68.6667"/>
      <point x="137.667" y="67" type="curve"/>
      <point x="137.667" y="58.2943"/>
      <point x="144.673" y="52.9427"/>
      <point x="152.667" y="52" type="curve" smooth="yes"/>
      <point x="210.667" y="45.6667" type="line"/>
      <point x="210.667" y="0" type="line"/>
    </contour>
    <contour>
      <point x="219.333" y="295" type="line"/>
      <point x="406" y="295" type="line"/>
      <point x="312" y="549.667" type="line"/>
    </contour>
    <contour>
      <point x="276.667" y="809.333" type="curve" smooth="yes"/>
      <point x="276.667" y="843.667"/>
      <point x="302" y="870"/>
      <point x="336.667" y="870" type="curve" smooth="yes"/>
      <point x="370.667" y="870"/>
      <point x="396.667" y="844"/>
      <point x="396.667" y="809.333" type="curve" smooth="yes"/>
      <point x="396.667" y="775.667"/>
      <point x="371" y="749.333"/>
      <point x="336.667" y="749.333" type="curve" smooth="yes"/>
      <point x="302.333" y="749.333"/>
      <point x="276.667" y="775"/>
    </contour>
  </outline>
</glyph>
<glyph name="uni0230" format="2">
  <advance width="738"/>
  <unicode hex="0230"/>
  <outline>
    <contour>
      <point x="309" y="808" type="curve" smooth="yes"/>
      <point x="309" y="842.333"/>
      <point x="334.333" y="868.667"/>
      <point x="369" y="868.667" type="curve" smooth="yes"/>
      <point x="403" y="868.667"/>
      <point x="429" y="842.667"/>
      <point x="429" y="808" type="curve" smooth="yes"/>
      <point x="429" y="774.333"/>
      <point x="403.333" y="748"/>
      <point x="369" y="748" type="curve" smooth="yes"/>
      <point x="334.667" y="748"/>
      <point x="309" y="773.667"/>
    </contour>
    <contour>
      <point x="38.3333" y="338" type="curve" smooth="yes"/>
      <point x="38.3333" y="529.667"/>
      <point x="171.333" y="686.333"/>
      <point x="369" y="686.333" type="curve" smooth="yes"/>
      <point x="565" y="686.333"/>
      <point x="702" y="526"/>
      <point x="702" y="335.333" type="curve" smooth="yes"/>
      <point x="702" y="145"/>
      <point x="565.667" y="-15.3333"/>
      <point x="372" y="-15.3333" type="curve" smooth="yes"/>
      <point x="178.667" y="-15.3333"/>
      <point x="38.3333" y="135.667"/>
    </contour>
    <contour>
      <point x="169" y="337" type="curve" smooth="yes"/>
      <point x="169" y="203"/>
      <point x="226.333" y="41.6667"/>
      <point x="367.333" y="41.6667" type="curve" smooth="yes"/>
      <point x="512" y="41.6667"/>
      <point x="570.333" y="204.333"/>
      <point x="570.333" y="334" type="curve" smooth="yes"/>
      <point x="570.333" y="473"/>
      <point x="512" y="625.333"/>
      <point x="373.333" y="625.333" type="curve" smooth="yes"/>
      <point x="227" y="625.333"/>
      <point x="169" y="468.333"/>
    </contour>
    <contour>
      <point x="200.667" y="928.667" type="line"/>
      <point x="200.667" y="997.667" type="line"/>
      <point x="537.333" y="997.667" type="line"/>
      <point x="537.333" y="928.667" type="line"/>
    </contour>
  </outline>
</glyph>
<glyph name="uni0234" format="2">
  <advance width="390"/>
  <unicode hex="0234"/>
  <outline>
    <contour>
      <point x="-13.3333" y="-84.3333" type="line"/>
      <point x="11.8071" y="-20.9027"/>
      <point x="53.0759" y="46.1834"/>
      <point x="102" y="101" type="curve"/>
      <point x="102" y="659" type="line"/>
      <point x="27.6667" y="659" type="line"/>
      <point x="27.6667" y="694.667" type="line"/>
      <point x="164" y="737.333" type="line"/>
      <point x="208.333" y="737.333" type="line"/>
      <point x="208.333" y="181" type="line"/>
      <point x="241.369" y="196.385"/>
      <point x="269.253" y="203"/>
      <point x="299.667" y="203" type="curve" smooth="yes"/>
      <point x="357.485" y="203"/>
      <point x="390.667" y="172.972"/>
      <point x="390.667" y="121" type="curve" smooth="yes"/>
      <point x="390.667" y="45.0574"/>
      <point x="328.013" y="-10"/>
      <point x="242" y="-10" type="curve" smooth="yes"/>
      <point x="184.222" y="-10"/>
      <point x="139.194" y="9.62793"/>
      <point x="118" y="44.6667" type="curve"/>
      <point x="88.7087" y="7.53281"/>
      <point x="54.1479" y="-52.8703"/>
      <point x="29.3333" y="-109.333" type="curve"/>
    </contour>
    <contour>
      <point x="209.667" y="129.667" type="curve"/>
      <point x="213.491" y="70.8867"/>
      <point x="231.863" y="41.3333"/>
      <point x="263.667" y="41.3333" type="curve" smooth="yes"/>
      <point x="301.361" y="41.3333"/>
      <point x="338.667" y="77.3585"/>
      <point x="338.667" y="114" type="curve" smooth="yes"/>
      <point x="338.667" y="143.106"/>
      <point x="324.233" y="156.333"/>
      <point x="292.333" y="156.333" type="curve" smooth="yes"/>
      <point x="263.563" y="156.333"/>
      <point x="237.437" y="147.793"/>
    </contour>
  </outline>
</glyph>
<glyph name="uni0237" format="2">
  <advance width="302"/>
  <unicode hex="0237"/>
  <outline>
    <contour>
      <point x="-82.6667" y="-167.667" type="curve" smooth="yes"/>
      <point x="-82.6667" y="-133.667"/>
      <point x="-59.3333" y="-114.333"/>
      <point x="-32.6667" y="-106.667" type="curve"/>
      <point x="64.6667" y="-184.333" type="line"/>
      <point x="102" y="-151"/>
      <point x="106" y="-67.6667"/>
      <point x="106" y="-16" type="curve" smooth="yes"/>
      <point x="106" y="418.333" type="line"/>
      <point x="35" y="418.333" type="line"/>
      <point x="35" y="454" type="line"/>
      <point x="168" y="496" type="line"/>
      <point x="212.333" y="496" type="line"/>
      <point x="212.333" y="58.3333" type="line" smooth="yes"/>
      <point x="212.333" y="-98.6249"/>
      <point x="155.872" y="-229.667"/>
      <point x="1.33333" y="-229.667" type="curve" smooth="yes"/>
      <point x="-44" y="-229.667"/>
      <point x="-82.6667" y="-210.667"/>
    </contour>
  </outline>
</glyph>
<glyph name="uni0240" format="2">
  <advance width="471"/>
  <unicode hex="0240"/>
  <outline>
    <contour>
      <point x="32.6667" y="-0.666667" type="line"/>
      <point x="32.6667" y="56.3333" type="line"/>
      <point x="294.667" y="433" type="line"/>
      <point x="128.333" y="433" type="line" smooth="yes"/>
      <point x="118.333" y="433"/>
      <point x="109.475" y="420.981"/>
      <point x="108.667" y="412" type="curve"/>
      <point x="99.6667" y="337" type="line"/>
      <point x="42" y="337" type="line"/>
      <point x="42" y="483.333" type="line"/>
      <point x="423.667" y="483.333" type="line"/>
      <point x="423.667" y="437.333" type="line"/>
      <point x="153.667" y="51" type="line"/>
      <point x="195.674" y="35.442"/>
      <point x="239.255" y="-34.043"/>
      <point x="265.991" y="-78.7301" type="curve" smooth="yes"/>
      <point x="288.165" y="-115.956"/>
      <point x="323" y="-152.333"/>
      <point x="347" y="-167.667" type="curve"/>
      <point x="423.333" y="-104.333" type="line"/>
      <point x="443" y="-111"/>
      <point x="469.333" y="-126.333"/>
      <point x="469.333" y="-163" type="curve" smooth="yes"/>
      <point x="469.333" y="-211"/>
      <point x="421.683" y="-229.667"/>
      <point x="383" y="-229.667" type="curve" smooth="yes"/>
      <point x="295.216" y="-229.667"/>
      <point x="234.251" y="-156.955"/>
      <point x="189.916" y="-100.819" type="curve" smooth="yes"/>
      <point x="158.959" y="-62.0634"/>
      <point x="111.519" y="-0.666667"/>
      <point x="63.3333" y="-0.666667" type="curve" smooth="yes"/>
    </contour>
  </outline>
</glyph>
<glyph name="uni0242" format="2">
  <advance width="399"/>
  <unicode hex="0242"/>
  <outline>
    <contour>
      <point x="33.3333" y="404" type="curve" smooth="yes"/>
      <point x="33.3333" y="459.45"/>
      <point x="102.416" y="496.667"/>
      <point x="175.667" y="496.667" type="curve" smooth="yes"/>
      <point x="295.667" y="496.667"/>
      <point x="366.333" y="444.667"/>
      <point x="366.333" y="348" type="curve" smooth="yes"/>
      <point x="366.333" y="263"/>
      <point x="310.333" y="231.667"/>
      <point x="245.333" y="208.667" type="curve"/>
      <point x="245.333" y="60" type="line" smooth="yes"/>
      <point x="245.333" y="51.3333"/>
      <point x="252.352" y="45.646"/>
      <point x="260.667" y="45.3333" type="curve" smooth="yes"/>
      <point x="313" y="42.3333" type="line"/>
      <point x="313" y="0.666667" type="line"/>
      <point x="71.3333" y="0.666667" type="line"/>
      <point x="71.3333" y="42.3333" type="line"/>
      <point x="124" y="45.3333" type="line" smooth="yes"/>
      <point x="131.981" y="45.646"/>
      <point x="139.333" y="51.3333"/>
      <point x="139.333" y="60" type="curve" smooth="yes"/>
      <point x="139.333" y="222.333" type="line"/>
      <point x="203.333" y="237.667"/>
      <point x="256" y="272"/>
      <point x="256" y="347.333" type="curve" smooth="yes"/>
      <point x="256" y="409.667"/>
      <point x="232.333" y="451"/>
      <point x="183.333" y="451" type="curve" smooth="yes"/>
      <point x="170.667" y="451"/>
      <point x="158.333" y="447.667"/>
      <point x="151" y="442.333" type="curve"/>
      <point x="117" y="353.333" type="line"/>
      <point x="112.839" y="350.629"/>
      <point x="102.36" y="348"/>
      <point x="92.3333" y="348" type="curve" smooth="yes"/>
      <point x="60.7544" y="348"/>
      <point x="33.3333" y="368.667"/>
    </contour>
  </outline>
</glyph>
<glyph name="uni0245" format="2">
  <advance width="686"/>
  <unicode hex="0245"/>
  <outline>
    <contour>
      <point x="13.3333" y="0" type="line"/>
      <point x="13.3333" y="45.6667" type="line"/>
      <point x="73" y="55.6667" type="line"/>
      <point x="299.667" y="687" type="line"/>
      <point x="382" y="687" type="line"/>
      <point x="612.667" y="55.3333" type="line"/>
      <point x="673.333" y="45.6667" type="line"/>
      <point x="673.333" y="0" type="line"/>
      <point x="419" y="0" type="line"/>
      <point x="419" y="45.6667" type="line"/>
      <point x="477" y="51.3333" type="line" smooth="yes"/>
      <point x="483.319" y="51.9479"/>
      <point x="486.481" y="58.6745"/>
      <point x="486.481" y="65.3333" type="curve"/>
      <point x="486.481" y="67.2559"/>
      <point x="486.299" y="69.1608"/>
      <point x="485.667" y="70.6667" type="curve"/>
      <point x="306" y="570.667" type="line"/>
      <point x="324.667" y="570.667" type="line"/>
      <point x="152" y="71.6667" type="line"/>
      <point x="151.365" y="70.1211"/>
      <point x="151.276" y="68.2227"/>
      <point x="151.276" y="66.6667" type="curve"/>
      <point x="151.276" y="59.5039"/>
      <point x="157.769" y="52.0814"/>
      <point x="166" y="51.3333" type="curve" smooth="yes"/>
      <point x="220.667" y="45.6667" type="line"/>
      <point x="220.667" y="0" type="line"/>
    </contour>
  </outline>
</glyph>
<glyph name="uni024B" format="2">
  <advance width="580"/>
  <unicode hex="024B"/>
  <outline>
    <contour>
      <point x="32.6667" y="229.667" type="curve" smooth="yes"/>
      <point x="32.6667" y="399.051"/>
      <point x="142.067" y="496"/>
      <point x="333" y="496" type="curve" smooth="yes"/>
      <point x="378.667" y="496"/>
      <point x="430.893" y="490.857"/>
      <point x="480.333" y="481.333" type="curve"/>
      <point x="480.333" y="-34" type="line" smooth="yes"/>
      <point x="480.333" y="-116.685"/>
      <point x="498.148" y="-164.92"/>
      <point x="535" y="-181" type="curve"/>
      <point x="615" y="-94.3333" type="line"/>
      <point x="650.971" y="-94.3333"/>
      <point x="675.333" y="-121.867"/>
      <point x="675.333" y="-162.333" type="curve" smooth="yes"/>
      <point x="675.333" y="-201.072"/>
      <point x="636.021" y="-229"/>
      <point x="581.333" y="-229" type="curve" smooth="yes"/>
      <point x="441.19" y="-229"/>
      <point x="373" y="-164.886"/>
      <point x="373" y="-32.6667" type="curve" smooth="yes"/>
      <point x="373" y="31.6667" type="line"/>
      <point x="338.387" y="14.36"/>
      <point x="285.693" y="-10.6667"/>
      <point x="230" y="-10.6667" type="curve" smooth="yes"/>
      <point x="113.544" y="-10.6667"/>
      <point x="32.6667" y="87.7602"/>
    </contour>
    <contour>
      <point x="149.333" y="247.333" type="curve" smooth="yes"/>
      <point x="149.333" y="128.059"/>
      <point x="204.085" y="56.3333"/>
      <point x="295" y="56.3333" type="curve" smooth="yes"/>
      <point x="322.381" y="56.3333"/>
      <point x="349.955" y="60.1321"/>
      <point x="373.667" y="67" type="curve"/>
      <point x="373.667" y="437" type="line"/>
      <point x="354.858" y="442.709"/>
      <point x="334.03" y="445.667"/>
      <point x="315" y="445.667" type="curve" smooth="yes"/>
      <point x="208.724" y="445.667"/>
      <point x="149.333" y="374.459"/>
    </contour>
  </outline>
</glyph>
<glyph name="uni0250" format="2">
  <advance width="523"/>
  <unicode hex="0250"/>
  <outline>
    <contour>
      <point x="18.3333" y="442.333" type="line"/>
      <point x="18.3333" y="484" type="line"/>
      <point x="180" y="484" type="line"/>
      <point x="192.667" y="428" type="line"/>
      <point x="252.149" y="473.602"/>
      <point x="308.812" y="496"/>
      <point x="361.667" y="496" type="curve" smooth="yes"/>
      <point x="439.469" y="496"/>
      <point x="491.667" y="442.224"/>
      <point x="491.667" y="362.333" type="curve" smooth="yes"/>
      <point x="491.667" y="284.361"/>
      <point x="444.923" y="244.343"/>
      <point x="308.667" y="204.667" type="curve" smooth="yes"/>
      <point x="277.183" y="195.483"/>
      <point x="238.439" y="186.158"/>
      <point x="192" y="176.333" type="curve"/>
      <point x="192" y="135" type="line" smooth="yes"/>
      <point x="192" y="70.0181"/>
      <point x="222.889" y="37.6667"/>
      <point x="284.333" y="37.6667" type="curve" smooth="yes"/>
      <point x="305.436" y="37.6667"/>
      <point x="327.005" y="41.139"/>
      <point x="345.333" y="47.6667" type="curve"/>
      <point x="345.333" y="137.667" type="line"/>
      <point x="428.333" y="137.667" type="line" smooth="yes"/>
      <point x="456.023" y="137.667"/>
      <point x="468" y="128.081"/>
      <point x="468" y="106" type="curve" smooth="yes"/>
      <point x="468" y="36.9559"/>
      <point x="379.433" y="-12"/>
      <point x="254.667" y="-12" type="curve" smooth="yes"/>
      <point x="137.394" y="-12"/>
      <point x="86.3333" y="35.6676"/>
      <point x="86.3333" y="145.333" type="curve" smooth="yes"/>
      <point x="86.3333" y="417.667" type="line" smooth="yes"/>
      <point x="86.3333" y="429.11"/>
      <point x="76.9398" y="438.504"/>
      <point x="65" y="439.333" type="curve" smooth="yes"/>
    </contour>
    <contour>
      <point x="191.333" y="219.667" type="line"/>
      <point x="234.317" y="229.643"/>
      <point x="268.577" y="240.455"/>
      <point x="298.667" y="254.333" type="curve"/>
      <point x="356.763" y="277.881"/>
      <point x="377" y="302.677"/>
      <point x="377" y="349" type="curve" smooth="yes"/>
      <point x="377" y="394.584"/>
      <point x="345.539" y="429"/>
      <point x="303.667" y="429" type="curve" smooth="yes"/>
      <point x="270.228" y="429"/>
      <point x="231.243" y="415.604"/>
      <point x="191.333" y="390.333" type="curve"/>
    </contour>
  </outline>
</glyph>
<glyph name="uni0252" format="2">
  <advance width="577"/>
  <unicode hex="0252"/>
  <outline>
    <contour>
      <point x="24.3333" y="441.667" type="line"/>
      <point x="24.3333" y="482.667" type="line"/>
      <point x="195" y="482.667" type="line"/>
      <point x="195" y="428" type="line"/>
      <point x="249.119" y="471.989"/>
      <point x="302.963" y="495.333"/>
      <point x="351.333" y="495.333" type="curve" smooth="yes"/>
      <point x="467.959" y="495.333"/>
      <point x="545.333" y="400.246"/>
      <point x="545.333" y="257" type="curve" smooth="yes"/>
      <point x="545.333" y="94.1423"/>
      <point x="445.532" y="-13.3333"/>
      <point x="294.333" y="-13.3333" type="curve" smooth="yes"/>
      <point x="261" y="-13.3333"/>
      <point x="221.436" y="2.32051"/>
      <point x="191.667" y="27.6667" type="curve"/>
      <point x="127" y="-13.3333" type="line"/>
      <point x="88.3333" y="-13.3333" type="line"/>
      <point x="88.3333" y="416.333" type="line" smooth="yes"/>
      <point x="88.3333" y="427.303"/>
      <point x="78.389" y="436.931"/>
      <point x="66.3333" y="438" type="curve" smooth="yes"/>
    </contour>
    <contour>
      <point x="195" y="85" type="line"/>
      <point x="214.899" y="59.7415"/>
      <point x="254.535" y="39"/>
      <point x="283.667" y="39" type="curve" smooth="yes"/>
      <point x="376.478" y="39"/>
      <point x="430.333" y="111.999"/>
      <point x="430.333" y="238" type="curve" smooth="yes"/>
      <point x="430.333" y="351.073"/>
      <point x="377.552" y="419"/>
      <point x="290.333" y="419" type="curve" smooth="yes"/>
      <point x="261.909" y="419"/>
      <point x="226.037" y="408.303"/>
      <point x="195" y="390.333" type="curve"/>
    </contour>
  </outline>
</glyph>
<glyph name="uni0258" format="2">
  <advance width="512"/>
  <unicode hex="0258"/>
  <outline>
    <contour>
      <point x="32.3333" y="256.667" type="line"/>
      <point x="32.3333" y="286.667" type="line" smooth="yes"/>
      <point x="32.3333" y="411.214"/>
      <point x="120.669" y="496"/>
      <point x="250" y="496" type="curve" smooth="yes"/>
      <point x="386.389" y="496"/>
      <point x="480" y="390.45"/>
      <point x="480" y="236.667" type="curve" smooth="yes"/>
      <point x="480" y="90.7607"/>
      <point x="380.674" y="-12"/>
      <point x="239" y="-12" type="curve" smooth="yes"/>
      <point x="153.14" y="-12"/>
      <point x="92.1889" y="13.4005"/>
      <point x="45.3333" y="68" type="curve"/>
      <point x="45.3333" y="131" type="line"/>
      <point x="98.6647" y="73.0019"/>
      <point x="164.571" y="42.3333"/>
      <point x="236.333" y="42.3333" type="curve" smooth="yes"/>
      <point x="315.974" y="42.3333"/>
      <point x="359.333" y="117.915"/>
      <point x="359.333" y="256.667" type="curve"/>
    </contour>
    <contour>
      <point x="134.333" y="305.333" type="curve"/>
      <point x="354.333" y="305.333" type="line"/>
      <point x="345.208" y="389.275"/>
      <point x="299.931" y="447.667"/>
      <point x="244.667" y="447.667" type="curve" smooth="yes"/>
      <point x="191.733" y="447.667"/>
      <point x="148.053" y="391.115"/>
    </contour>
  </outline>
</glyph>
<glyph name="uni0264" format="2">
  <advance width="576"/>
  <unicode hex="0264"/>
  <outline>
    <contour>
      <point x="9.33333" y="373.667" type="curve" smooth="yes"/>
      <point x="9.33333" y="448"/>
      <point x="43.6667" y="496"/>
      <point x="96.3333" y="496" type="curve" smooth="yes"/>
      <point x="151.045" y="496"/>
      <point x="195.452" y="463.943"/>
      <point x="239.667" y="391.333" type="curve" smooth="yes"/>
      <point x="294.667" y="301.333" type="line"/>
      <point x="359.333" y="396" type="line" smooth="yes"/>
      <point x="403.731" y="461.133"/>
      <point x="443.223" y="496"/>
      <point x="473" y="496" type="curve" smooth="yes"/>
      <point x="528.187" y="496"/>
      <point x="566" y="452.609"/>
      <point x="566" y="389" type="curve" smooth="yes"/>
      <point x="566" y="366.167"/>
      <point x="564.185" y="341.148"/>
      <point x="560.333" y="310.333" type="curve"/>
      <point x="523.667" y="310.333" type="line"/>
      <point x="518.627" y="347.137"/>
      <point x="502.526" y="393.333"/>
      <point x="470" y="393.333" type="curve" smooth="yes"/>
      <point x="438.153" y="393.333"/>
      <point x="420.701" y="381.052"/>
      <point x="390.333" y="335.667" type="curve" smooth="yes"/>
      <point x="330" y="246" type="line"/>
      <point x="361.333" y="196" type="line" smooth="yes"/>
      <point x="387.205" y="154.537"/>
      <point x="398" y="122.863"/>
      <point x="398" y="87.6667" type="curve" smooth="yes"/>
      <point x="398" y="32.2078"/>
      <point x="350.385" y="-12.6667"/>
      <point x="291.333" y="-12.6667" type="curve" smooth="yes"/>
      <point x="220.801" y="-12.6667"/>
      <point x="177.333" y="23.5946"/>
      <point x="177.333" y="83" type="curve" smooth="yes"/>
      <point x="177.333" y="109.798"/>
      <point x="187.521" y="138.789"/>
      <point x="207.667" y="168.667" type="curve" smooth="yes"/>
      <point x="239.333" y="216" type="line"/>
      <point x="174.333" y="325.667" type="line" smooth="yes"/>
      <point x="147.361" y="370.922"/>
      <point x="122.592" y="392.667"/>
      <point x="97.3333" y="392.667" type="curve" smooth="yes"/>
      <point x="66.4201" y="392.667"/>
      <point x="52.1537" y="368.041"/>
      <point x="49.3333" y="310.333" type="curve"/>
      <point x="13.6667" y="310.333" type="line"/>
      <point x="10.8224" y="326.508"/>
      <point x="9.33333" y="349.195"/>
    </contour>
    <contour>
      <point x="236.333" y="83.3333" type="curve" smooth="yes"/>
      <point x="236.333" y="60.2191"/>
      <point x="252.031" y="42"/>
      <point x="272" y="42" type="curve" smooth="yes"/>
      <point x="293.057" y="42"/>
      <point x="308.333" y="58.4737"/>
      <point x="308.333" y="81.6667" type="curve" smooth="yes"/>
      <point x="308.333" y="91.7379"/>
      <point x="305.686" y="103.943"/>
      <point x="301.667" y="110.667" type="curve" smooth="yes"/>
      <point x="273" y="160.667" type="line"/>
      <point x="242" y="106" type="line"/>
      <point x="238.161" y="99.6563"/>
      <point x="236.333" y="92.2652"/>
    </contour>
  </outline>
</glyph>
